<?xml version="1.0" encoding="UTF-8" standalone="no"?>
<!-- Created with Inkscape (http://www.inkscape.org/) -->

<svg
   width="180.25858mm"
   height="295.71967mm"
   viewBox="0 0 180.25858 295.71967"
   version="1.1"
   id="svg1"
   xml:space="preserve"
   sodipodi:docname="camera.svg"
   inkscape:version="1.3.2 (1:1.3.2+202311252150+091e20ef0f)"
   xmlns:inkscape="http://www.inkscape.org/namespaces/inkscape"
   xmlns:sodipodi="http://sodipodi.sourceforge.net/DTD/sodipodi-0.dtd"
   xmlns:xlink="http://www.w3.org/1999/xlink"
   xmlns="http://www.w3.org/2000/svg"
   xmlns:svg="http://www.w3.org/2000/svg"><sodipodi:namedview
     id="namedview1"
     pagecolor="#ffffff"
     bordercolor="#000000"
     borderopacity="0.25"
     inkscape:showpageshadow="2"
     inkscape:pageopacity="0.0"
     inkscape:pagecheckerboard="0"
     inkscape:deskcolor="#d1d1d1"
     inkscape:document-units="mm"
     inkscape:zoom="0.73008334"
     inkscape:cx="341.05696"
     inkscape:cy="354.75402"
     inkscape:window-width="1850"
     inkscape:window-height="1016"
     inkscape:window-x="0"
     inkscape:window-y="0"
     inkscape:window-maximized="1"
     inkscape:current-layer="layer1" /><defs
     id="defs1"><linearGradient
       id="linearGradient1"><stop
         style="stop-color:#784421;stop-opacity:1"
         offset="0"
         id="stop1" /><stop
         style="stop-color:#c87137;stop-opacity:1"
         offset="0.33501455"
         id="stop4" /><stop
         style="stop-color:#deaa87;stop-opacity:1"
         offset="0.63969052"
         id="stop3" /><stop
         style="stop-color:#c87137;stop-opacity:1"
         offset="0.84892297"
         id="stop5" /><stop
         style="stop-color:#784421;stop-opacity:1"
         offset="1"
         id="stop2" /></linearGradient><linearGradient
       xlink:href="#linearGradient1"
       id="linearGradient2"
       x1="113.54744"
       y1="20.200367"
       x2="112.37875"
       y2="284.54822"
       gradientUnits="userSpaceOnUse" /></defs><g
     id="layer1"
     transform="translate(-13.596344,-3.5259551)"><path
       style="fill:url(#linearGradient2);fill-opacity:1"
       d="m 117.80288,298.68324 c -0.65485,-0.31471 -3.81,-1.83198 -7.01146,-3.37172 -15.22796,-7.32386 -31.0876,-17.58888 -44.97917,-29.11239 -7.32156,-6.07347 -11.03046,-9.44226 -12.33309,-11.20213 -0.62909,-0.84992 -0.76378,-1.29425 -0.76378,-2.51961 0,-0.81825 -0.28617,-2.61609 -0.63594,-3.9952 -1.06471,-4.19818 -1.34041,-7.25835 -1.32241,-14.67831 0.0172,-7.10448 0.18962,-9.43641 1.33001,-17.99167 1.48074,-11.10856 3.09903,-18.09191 8.06272,-34.7927 4.23147,-14.23718 5.04275,-16.71093 5.58906,-17.04208 0.79704,-0.48311 1.11356,0.1936 1.07293,2.2939 -0.0738,3.81728 -0.90223,7.71244 -4.96532,23.34713 -4.42062,17.0105 -6.58482,31.49001 -6.60421,44.18542 -0.0108,7.04666 0.23879,9.75854 1.32032,14.34783 0.65024,2.7592 2.25645,7.40714 2.92387,8.46088 0.50806,0.80214 10.6422,9.07152 16.55161,13.50598 8.0887,6.06981 13.3626,9.50522 31.5784,20.57013 6.40291,3.88935 11.8496,7.25483 12.10375,7.47884 0.35051,0.30895 0.39061,0.49342 0.16604,0.764 -0.38824,0.46781 -0.66085,0.43532 -2.08333,-0.2483 z m 64.71415,-2.08752 c -0.22185,-0.31673 -0.54029,-1.18773 -0.70764,-1.93555 -0.41931,-1.87366 0.12412,-3.89385 3.27452,-12.17295 1.38436,-3.63803 2.82426,-7.86474 3.19978,-9.39271 2.42363,-9.86147 1.01006,-28.9199 -3.04721,-41.08396 -2.33914,-7.01296 -8.07267,-15.14525 -13.83076,-19.61717 -1.17776,-0.91469 -4.06125,-2.9295 -6.40776,-4.47736 -4.28899,-2.82922 -6.28908,-4.59543 -6.13135,-5.41441 0.15689,-0.81471 0.99986,-0.62875 2.599,0.57335 0.87317,0.65637 2.92556,1.9295 4.56086,2.82918 5.7405,3.15819 9.40292,5.81823 13.19067,9.58048 6.5057,6.46192 10.03022,13.5292 12.50071,25.06614 1.84479,8.61499 2.13787,11.53596 2.13706,21.29896 -8.2e-4,9.78599 -0.0797,10.36908 -2.25964,16.70602 -1.75291,5.09556 -6.75966,16.74944 -7.73191,17.99705 -0.59764,0.76691 -0.83396,0.77444 -1.34633,0.0429 z m -50.95582,-83.3108 c -8.59912,-1.06879 -15.07887,-3.7814 -20.18881,-8.45159 -2.19199,-2.00336 -2.45733,-3.56061 -1.00665,-5.90787 0.68099,-1.10185 3.76371,-4.06293 5.36717,-5.15538 1.87812,-1.27957 5.80827,-3.11558 8.69374,-4.06137 l 2.58435,-0.84709 -0.96605,-0.7027 c -1.43554,-1.0442 -2.95042,-2.82944 -2.95042,-3.47698 0,-1.24245 4.13179,-4.20286 8.48557,-6.07988 2.6321,-1.13476 5.78629,-2.08047 6.93892,-2.08047 0.5892,0 0.72218,-0.0996 0.61798,-0.46302 -0.073,-0.25466 -0.5063,-1.83224 -0.96282,-3.50573 -2.20248,-8.07362 -6.26667,-14.62143 -11.80786,-19.02363 -1.14464,-0.90936 -2.28952,-1.82192 -2.54418,-2.02791 -0.25466,-0.20599 -0.46302,-0.4985 -0.46302,-0.65001 0,-0.67674 0.98394,-0.51481 2.99356,0.49267 7.4174,3.71856 13.81501,13.82619 14.86556,23.48621 l 0.17573,1.61587 2.16122,0.16281 c 4.11946,0.31034 14.24516,2.96761 17.43087,4.57435 l 1.24675,0.62881 0.2638,-0.99157 c 0.73889,-2.77724 2.2032,-9.19254 2.54424,-11.14653 0.51958,-2.97705 0.50222,-8.75647 -0.0341,-11.35303 -0.93039,-4.50427 -2.34828,-6.79005 -7.25469,-11.69521 -3.91502,-3.91404 -5.79735,-5.38669 -17.59189,-13.76311 -17.70371,-12.57308 -19.04594,-13.77413 -26.42473,-23.64538 -1.40093,-1.87414 -2.54715,-3.20984 -2.54715,-2.96821 0,0.24162 0.24476,1.16585 0.5439,2.05385 0.88924,2.63967 0.23131,3.1054 -1.59224,1.12709 -3.18085,-3.45082 -3.43306,-8.63328 -0.82053,-16.86066 0.59132,-1.86217 1.07512,-3.60356 1.07512,-3.86974 0,-0.62388 0.67257,-1.18104 1.18726,-0.98353 0.22013,0.0845 0.40103,0.36568 0.40199,0.62491 0.01,2.63038 7.55504,5.85115 12.23236,5.22147 1.64052,-0.22085 2.58245,-0.88939 4.64237,-3.29494 3.48031,-4.06425 5.4123,-6.10481 6.13275,-6.47737 0.4077,-0.21082 0.8141,-0.67352 0.90313,-1.0282 0.089,-0.35469 0.78556,-1.20566 1.54788,-1.89105 4.48571,-4.03304 9.72935,-5.89445 9.72935,-3.45377 0,1.18276 -2.55505,2.91508 -7.07761,4.79861 -1.34607,0.5606 -2.44739,1.16903 -2.44739,1.35207 0,0.42616 -4.14709,5.93516 -6.51599,8.65585 -1.16605,1.33921 -2.29298,2.33585 -3.14131,2.77812 -1.20619,0.62885 -1.59137,0.68886 -4.36562,0.68012 -3.5756,-0.0113 -5.85303,-0.59165 -8.95944,-2.28326 -1.07139,-0.58343 -2.04847,-0.96029 -2.17129,-0.83747 -0.42955,0.42955 -1.59203,5.79653 -1.75091,8.08367 -0.14511,2.08903 -0.11016,2.35208 0.36908,2.77812 0.29116,0.25883 1.94567,2.2559 3.6767,4.43793 3.43274,4.32711 8.43959,9.64077 11.19112,11.87691 0.96018,0.78032 7.04406,5.13786 13.51974,9.68341 6.47568,4.54555 12.90505,9.16445 14.2875,10.26423 3.79962,3.0227 9.72038,9.08205 11.17468,11.43625 2.40563,3.8942 3.33053,8.48192 3.01376,14.94896 -0.18996,3.87812 -0.4708,5.47539 -2.05939,11.71262 l -1.11655,4.38386 0.64531,0.41168 c 0.35492,0.22643 1.52185,1.24816 2.59317,2.27051 4.86254,4.64029 7.56145,9.91388 8.37921,16.37274 0.20533,1.62173 0.55535,3.8818 0.77782,5.02238 0.6958,3.56735 0.40731,5.25551 -0.67063,3.92431 -0.66574,-0.82215 -2.03909,-4.76632 -2.77948,-7.98248 -0.35175,-1.52797 -0.7771,-3.37343 -0.9452,-4.10104 -0.79181,-3.42709 -3.15822,-7.64886 -6.02251,-10.74438 -1.29396,-1.39843 -1.63105,-1.61835 -2.67144,-1.74284 -0.65485,-0.0784 -1.31069,-0.29054 -1.45743,-0.47151 -0.84778,-1.04549 -6.32198,-3.05526 -12.7916,-4.69624 -4.2509,-1.07822 -4.54675,-1.11687 -8.50514,-1.11104 -3.78196,0.006 -4.27602,0.0641 -6.35,0.75234 -3.7889,1.25734 -8.73125,3.9595 -8.73125,4.7737 0,0.52103 1.50654,1.71713 3.06571,2.43399 l 1.34592,0.61881 4.87179,-1.46532 c 5.87575,-1.76728 6.8644,-1.93779 7.77522,-1.341 0.71811,0.47052 0.87364,1.24993 0.33772,1.69235 -0.72712,0.60026 -8.5373,3.52075 -12.51163,4.67852 -8.56535,2.4952 -10.08485,3.11074 -13.51524,5.47497 -1.91768,1.32167 -5.3924,4.69102 -5.3924,5.22888 0,0.55567 2.19022,2.67391 4.02812,3.89574 2.51649,1.67296 5.97356,3.14975 9.66805,4.12999 3.0318,0.8044 3.24497,0.82392 9.05799,0.82932 6.63516,0.006 5.2799,0.24185 14.94896,-2.59981 4.5288,-1.33097 6.61458,-1.62857 6.61458,-0.94376 0,0.96107 -8.83408,4.22659 -14.2875,5.28138 -3.38965,0.65562 -7.89286,0.87654 -10.71562,0.5257 z m -32.0224,-21.70063 c -8.19958,-0.67996 -17.40444,-3.80812 -24.02367,-8.16415 -4.50657,-2.96571 -6.2689,-5.05817 -5.54184,-6.57996 0.54487,-1.14045 1.37646,-1.06096 2.80096,0.26775 3.38303,3.15552 11.54507,7.18676 18.04112,8.91052 4.39396,1.16596 7.04743,1.5691 16.53645,2.5124 7.88443,0.78378 8.46667,0.87664 8.46667,1.35029 0,0.42579 -0.36628,0.58359 -2.24896,0.96889 -2.17708,0.44555 -8.69655,1.04786 -10.58333,0.97775 -0.50932,-0.0189 -2.06065,-0.12849 -3.4474,-0.24349 z M 15.28153,173.03344 c -0.0806,-0.33709 -0.45506,-2.39883 -0.83216,-4.58164 -0.57441,-3.32482 -0.70744,-5.06969 -0.81994,-10.75416 -0.2082,-10.52037 0.54669,-17.55568 2.81961,-26.27787 2.93617,-11.26729 8.19502,-21.25323 13.56144,-25.75161 2.83249,-2.37432 6.23943,-3.66701 6.67475,-2.5326 0.21046,0.54846 -0.0579,0.81491 -2.76164,2.74228 -2.10065,1.49744 -5.16945,4.9819 -6.84884,7.77653 -6.03428,10.04143 -8.8887,19.37763 -10.52484,34.42451 -0.43225,3.97524 -0.50658,10.61588 -0.25907,23.14655 0.0381,1.93039 -0.0191,2.25681 -0.40924,2.33269 -0.29544,0.0575 -0.50464,-0.12546 -0.60007,-0.52468 z M 132.38149,115.4524 c -0.54634,-1.02083 1.65552,-8.42381 4.20995,-14.15445 2.17156,-4.87173 5.20783,-10.06389 10.55059,-18.04199 11.39977,-17.022738 13.5078,-21.093409 15.16403,-29.282094 1.59165,-7.86936 0.0247,-19.702054 -3.54674,-26.782894 -0.43298,-0.858455 -1.98684,-3.47783 -3.45302,-5.820834 -3.52725,-5.63669 -4.27197,-7.237075 -4.09563,-8.801504 0.2646,-2.347519 1.78179,-2.541672 1.78179,-0.228014 0,1.411064 0.52498,2.396228 4.04571,7.592091 5.27523,7.785137 7.10127,12.823838 8.27802,22.842003 0.98343,8.372382 -0.25424,15.480523 -4.10018,23.547917 -2.00338,4.202369 -3.86191,7.243739 -9.94342,16.271879 -7.31057,10.85271 -8.24157,12.52375 -13.93007,25.00312 -3.74443,8.21447 -4.29879,9.09219 -4.96103,7.85477 z M 30.30555,87.88781 c -6.99222,-0.73847 -12.25059,-2.61883 -12.25059,-4.38073 0,-0.852 0.73608,-0.85565 2.20184,-0.0109 2.25388,1.29895 4.66835,1.61259 12.35024,1.60431 7.68987,-0.008 9.76123,-0.22181 17.85938,-1.84105 5.61578,-1.12289 11.5217,-2.80949 16.66148,-4.75816 14.83628,-5.62495 29.79572,-13.191407 39.36608,-19.911294 6.62731,-4.653405 11.51123,-9.18322 19.63154,-18.208164 11.16779,-12.411916 14.00222,-15.118819 18.87099,-18.021919 2.68279,-1.599667 3.72729,-1.9292 3.95175,-1.246749 0.0541,0.164371 -0.6652,0.906387 -1.59836,1.648924 -2.67068,2.125125 -6.01761,5.812864 -9.35879,10.311763 -6.18982,8.334604 -9.07765,11.738199 -14.87108,17.52706 -3.14272,3.140236 -7.03136,6.777057 -8.64142,8.081823 C 105.32166,66.103344 91.98164,73.40027 76.01628,79.72143 65.45189,83.90418 55.70975,86.29489 44.381,87.48468 39.56713,87.99026 33.04444,88.17707 30.30555,87.88781 Z M 149.1588,76.80875 c -2.20578,-1.64467 -2.99955,-3.79204 -2.67852,-7.246136 0.30689,-3.302114 1.62502,-6.54649 4.83091,-11.89058 3.26259,-5.438622 3.79538,-7.081673 3.98546,-12.29062 0.1648,-4.516111 -0.21645,-9.078411 -0.95763,-11.459833 -0.26945,-0.865755 -1.20303,-2.620207 -2.08628,-3.920708 -1.80711,-2.660785 -2.04441,-3.327053 -1.22659,-3.44399 0.78431,-0.112146 4.53098,3.870153 5.47193,5.816066 1.44232,2.982752 2.20735,8.675182 1.98248,14.751302 -0.18779,5.07412 -0.79512,6.863121 -4.33178,12.760059 -3.26853,5.449864 -4.15138,8.028821 -4.15136,12.12686 1e-5,1.75398 0.13273,2.82314 0.43919,3.53804 0.24155,0.56348 0.43918,1.17582 0.43918,1.36076 0,0.65708 -0.76007,0.61228 -1.71699,-0.10122 z M 134.20704,58.894168 c -2.37269,-0.623137 -5.25824,-2.161383 -5.83797,-3.112137 -0.6433,-1.05502 -0.64065,-1.369324 0.0171,-2.027109 0.55976,-0.559762 1.71813,-0.690426 2.38125,-0.268605 0.32341,0.205723 0.3371,0.348936 0.0739,0.773609 -0.29697,0.479267 -0.20128,0.566939 1.19063,1.090899 1.94658,0.732758 4.5965,1.296977 6.27604,1.336293 2.03098,0.04754 2.64584,0.291195 2.64584,1.048483 0,1.44097 -3.42933,2.02985 -6.74688,1.158567 z m 10.71563,-8.572485 c -2.21643,-1.245824 -4.92843,-2.019667 -8.33545,-2.378436 -3.78389,-0.398456 -6.38858,-0.348818 -7.0792,0.134909 -0.44623,0.312549 -0.70895,0.341471 -1.1172,0.122982 -0.73452,-0.393099 -0.66904,-1.224553 0.13806,-1.753391 0.58675,-0.384448 1.28216,-0.421847 5.49011,-0.295256 4.15022,0.124855 5.14135,0.240518 7.14857,0.834231 1.28167,0.379103 2.88901,0.974371 3.57187,1.322818 1.5416,0.786634 2.82277,2.089583 2.60716,2.651462 -0.21823,0.568701 -0.32472,0.540615 -2.42392,-0.639319 z"
       id="path1"
       sodipodi:nodetypes="sssssssssscssssssssssssssssssssssssssssssscssssssssssscsscsssssssssssscssscsssssscssssssssssscssssssssssscssscsssssssscsssssssssssssssssssssscsscsssssssssssssssssscssssscssssssssssssssssssssscssscsssccssssssssss" /></g></svg>
