<?xml version="1.0" encoding="UTF-8" standalone="no"?>
<svg
   width="1253.579"
   height="1252.451"
   viewBox="0 0 331.676 331.378"
   version="1.1"
   id="svg40"
   sodipodi:docname="care.svg"
   inkscape:version="1.3.2 (1:1.3.2+202311252150+091e20ef0f)"
   xmlns:inkscape="http://www.inkscape.org/namespaces/inkscape"
   xmlns:sodipodi="http://sodipodi.sourceforge.net/DTD/sodipodi-0.dtd"
   xmlns:xlink="http://www.w3.org/1999/xlink"
   xmlns="http://www.w3.org/2000/svg"
   xmlns:svg="http://www.w3.org/2000/svg">
  <sodipodi:namedview
     id="namedview40"
     pagecolor="#ffffff"
     bordercolor="#000000"
     borderopacity="0.25"
     inkscape:showpageshadow="2"
     inkscape:pageopacity="0.0"
     inkscape:pagecheckerboard="0"
     inkscape:deskcolor="#d1d1d1"
     inkscape:zoom="0.32576124"
     inkscape:cx="-12.278932"
     inkscape:cy="202.60237"
     inkscape:window-width="1850"
     inkscape:window-height="1016"
     inkscape:window-x="0"
     inkscape:window-y="0"
     inkscape:window-maximized="1"
     inkscape:current-layer="svg40" />
  <defs
     id="defs3">
    <linearGradient
       id="linearGradient40"
       inkscape:collect="always">
      <stop
         style="stop-color:#a05a2c;stop-opacity:1"
         offset="0"
         id="stop40" />
      <stop
         style="stop-color:#c87137;stop-opacity:1"
         offset="0.32404861"
         id="stop43" />
      <stop
         style="stop-color:#deaa87;stop-opacity:1"
         offset="0.62942696"
         id="stop42" />
      <stop
         style="stop-color:#c87137;stop-opacity:1"
         offset="0.83539093"
         id="stop44" />
      <stop
         style="stop-color:#a05a2c;stop-opacity:1"
         offset="1"
         id="stop41" />
    </linearGradient>
    <clipPath
       clipPathUnits="userSpaceOnUse"
       id="a">
      <path
         class="powerclip"
         d="M-229.297 341.781H-13.73v215.567h-215.567zm184.604 97.607a90.151 90.151 0 00-90.15-90.151 90.151 90.151 0 00-90.152 90.15 90.151 90.151 0 0090.151 90.152 90.151 90.151 0 0090.151-90.151z"
         fill="maroon"
         stroke-width="1.202"
         stroke-linecap="round"
         stroke-linejoin="round"
         paint-order="markers fill stroke"
         id="path1" />
    </clipPath>
    <clipPath
       clipPathUnits="userSpaceOnUse"
       id="b">
      <path
         class="powerclip"
         d="M-229.297 341.781H-13.73v215.567h-215.567zm184.604 97.607a90.151 90.151 0 00-90.15-90.151 90.151 90.151 0 00-90.152 90.15 90.151 90.151 0 0090.151 90.152 90.151 90.151 0 0090.151-90.151z"
         fill="maroon"
         stroke-width="1.202"
         stroke-linecap="round"
         stroke-linejoin="round"
         paint-order="markers fill stroke"
         id="path2" />
    </clipPath>
    <clipPath
       clipPathUnits="userSpaceOnUse"
       id="c">
      <path
         class="powerclip"
         d="M-229.297 341.781H-13.73v215.567h-215.567zm184.604 97.607a90.151 90.151 0 00-90.15-90.151 90.151 90.151 0 00-90.152 90.15 90.151 90.151 0 0090.151 90.152 90.151 90.151 0 0090.151-90.151z"
         fill="maroon"
         stroke-width="1.202"
         stroke-linecap="round"
         stroke-linejoin="round"
         paint-order="markers fill stroke"
         id="path3" />
    </clipPath>
    <linearGradient
       inkscape:collect="always"
       xlink:href="#linearGradient40"
       id="linearGradient41"
       x1="161.26054"
       y1="1.3191248"
       x2="161.26054"
       y2="327.67239"
       gradientUnits="userSpaceOnUse" />
  </defs>
  <path
     d="M 91.966,284.923 C -2.1584522e-4,0 -2.1584522e-4,0 91.966,284.923 Z m 53.488,7.422 c 0.398,-0.278 2.388,-1.835 3.054,-2.39 l 0.76,-0.632 1.206,0.174 c 1.877,0.27 2.73,0.519 3.217,0.936 0.152,0.13 0.504,0.54 0.783,0.91 l 0.508,0.674 -0.191,0.046 c -0.467,0.113 -6.714,0.391 -8.65,0.385 -0.76,0 -0.818,-0.011 -0.687,-0.103 z m -8.868,-0.13 c -29.937,-1.852 -58.559,-13.112 -82.272,-32.366 -4.06,-3.296 -7.082,-6.044 -11.37,-10.341 l -3.044,-3.05 0.044,-0.54 c 0.501,-6.107 1.88,-11.122 4.269,-15.535 3.51,-6.484 10.38,-14.186 17.333,-19.435 3.294,-2.487 6.664,-4.517 9.487,-5.714 3.868,-1.64 9.554,-3.19 14.1,-3.845 3.788,-0.545 8.701,-0.62 12.938,-0.195 8.317,0.834 18.012,4.226 25.577,8.95 3.549,2.216 6.839,4.575 14.862,10.653 2.675,2.027 6.369,4.763 7.697,5.702 3.039,2.148 3.835,2.783 5.015,4 1.87,1.93 2.907,3.891 3.808,7.208 1.628,5.988 1.963,12.233 1.225,22.798 -0.479,6.854 -1.515,10.478 -5.347,18.694 -2.353,5.047 -3.134,6.392 -4.498,7.746 -0.965,0.958 -3.188,2.662 -6.004,4.601 l -1.122,0.774 -0.636,-0.01 c -0.35,0 -1.277,-0.048 -2.062,-0.097 z m -22.307,-11.942 c 0.908,-0.303 2.297,-1.106 3.12,-1.804 1.382,-1.172 3.003,-3.94 3.556,-6.07 0.666,-2.568 0.632,-6.97 -0.071,-9.404 -0.29,-1 -0.57,-1.31 -1.411,-1.555 -0.797,-0.233 -1.297,-0.077 -1.58,0.492 -0.311,0.627 -0.327,1.074 -0.176,5.142 0.093,2.532 -0.286,4.765 -1.082,6.368 -0.788,1.587 -1.819,2.565 -3.669,3.482 -0.977,0.484 -1.27,0.705 -1.463,1.104 -0.294,0.606 -0.03,1.716 0.504,2.124 0.522,0.398 1.319,0.44 2.272,0.121 z m 11.514,-31.109 c 1.675,-0.425 3.302,-1.555 4.489,-3.118 1.586,-2.09 2.436,-4.135 2.732,-6.573 0.117,-0.972 0.118,-4.562 0,-5.673 -0.26,-2.454 -0.412,-2.845 -1.281,-3.28 -1.02,-0.51 -1.933,-0.208 -2.393,0.792 -0.132,0.286 -0.153,0.437 -0.152,1.095 0,0.443 0.05,1.006 0.115,1.345 0.522,2.675 0.11,6.443 -0.946,8.64 -0.396,0.825 -1.04,1.63 -1.857,2.318 -0.652,0.55 -1.179,0.87 -1.705,1.032 -1.016,0.314 -1.5,0.765 -1.68,1.564 -0.15,0.668 0.243,1.592 0.795,1.87 0.404,0.204 1.047,0.2 1.882,-0.012 z m 32.61,41.28 c -0.158,-0.12 -0.554,-0.546 -0.881,-0.946 -1.12,-1.37 -2.143,-2.244 -3.32,-2.835 -0.645,-0.324 -1.105,-0.447 -1.664,-0.447 -0.384,0 -0.487,-0.022 -0.52,-0.11 -0.098,-0.255 0.34,-1.332 1.652,-4.07 3.115,-6.497 4.93,-11.452 5.567,-15.194 0.64,-3.764 0.995,-9.266 0.996,-15.426 0,-3.628 -0.054,-5.275 -0.265,-8.037 l -0.042,-0.539 1.152,-0.718 c 6.507,-4.053 12.095,-6.187 20.85,-7.961 2.964,-0.601 4.053,-0.719 6.675,-0.723 2.219,0 2.344,0.01 5.574,0.363 3.784,0.42 6.76,0.556 8.857,0.404 6.07,-0.438 11.08,-2.156 25.478,-8.733 3.981,-1.818 5.927,-2.645 7.96,-3.38 4.776,-1.73 7.899,-2.068 11.694,-1.265 2.914,0.617 6.486,2.39 9.506,4.72 1.3,1.001 4.486,4.322 4.475,4.663 -0.008,0.24 -3.413,4.845 -5.673,7.67 -2.18467,2.73339 -4.46371,5.38999 -6.833,7.965 -1.524,1.665 -6.439,6.58 -8.19,8.192 -5.795,5.329 -11.598,9.902 -18.015,14.193 -3.334,2.23 -7.464,4.781 -7.563,4.671 -0.056,-0.062 -0.91,-4.391 -1.157,-5.86 -0.567,-3.388 -0.767,-5.493 -0.767,-8.095 0,-3.44 0.356,-5.895 1.296,-8.926 0.95,-3.066 2.306,-5.93 4.491,-9.486 0.471,-0.766 1.048,-1.78 1.283,-2.255 0.647,-1.309 0.686,-1.815 0.18,-2.3 -0.381,-0.366 -0.78,-0.541 -1.246,-0.548 -1.008,-0.014 -1.92,0.86 -3.544,3.397 -3.005,4.693 -4.895,9.476 -5.676,14.367 -0.337,2.108 -0.4,3.016 -0.4,5.784 0,2.744 0.034,3.302 0.37,6.02 0.106,0.866 0.194,1.626 0.194,1.688 0,0.066 -0.251,-0.158 -0.611,-0.547 -2.24,-2.415 -3.403,-3.425 -5.858,-5.086 -3.577,-2.42 -6.881,-4.082 -12.814,-6.444 -6.165,-2.455 -11.69,-4.36 -13.128,-4.53 -0.491,-0.058 -0.658,0 -1.045,0.36 -0.716,0.664 -0.86,1.144 -0.575,1.906 0.326,0.872 0.705,1.054 6.177,2.978 6.087,2.14 10.02,3.732 13.622,5.515 6.433,3.183 10.177,6.284 13.017,10.78 0.85,1.344 2.132,3.624 2.068,3.676 -0.259,0.21 -5.623,2.912 -7.733,3.894 -10.06855,4.69901 -20.65259,8.20319 -31.536,10.441 -1.533,0.315 -4.335,0.834 -4.47,0.829 -0.041,0 0.074,-0.08 0.257,-0.174 0.705,-0.364 3.438,-1.865 4.544,-2.496 2.68072,-1.52721 5.31396,-3.1363 7.896,-4.825 2.59,-1.682 3.457,-2.105 5.208,-2.542 1.861,-0.464 3.327,-0.637 5.806,-0.688 1.954,-0.04 3.166,0.023 4.876,0.254 1.312,0.178 2.458,0.154 2.864,-0.06 0.808,-0.425 1.221,-1.785 0.736,-2.422 -0.095,-0.124 -0.378,-0.334 -0.628,-0.465 -1.251,-0.658 -3.708,-1.077 -10.768,-1.838 -5.506,-0.593 -7.173,-0.874 -9.253,-1.559 -1.783,-0.587 -3.352,-1.24 -4.514,-1.881 -2.08,-1.147 -3.44,-2.24 -6.369,-5.123 -1.998,-1.967 -2.41,-2.31 -2.94,-2.45 -0.574,-0.152 -1.476,0.314 -1.793,0.927 -0.451,0.873 0.28,2.239 2.327,4.35 2.807,2.895 5.027,4.573 8.052,6.087 2.208,1.105 4.335,1.835 6.515,2.237 0.45,0.083 0.793,0.173 0.763,0.201 -0.122,0.116 -4.615,3.03 -5.991,3.887 -5.337,3.321 -10.656,6.144 -15.625,8.293 -0.62,0.268 -1.163,0.488 -1.206,0.488 -0.043,0 -0.207,-0.098 -0.365,-0.217 z m 71.09309,-107.78152 -2.588,-3.145 -0.365,-0.112 c -0.2,-0.062 -2.216,-0.629 -4.47799,-1.26 -2.68,-0.746 -4.107,-1.174 -4.095,-1.225 0.01,-0.043 0.993,-1.615 2.182,-3.492 l 2.163,-3.414 -0.2,-4.623 c -0.109,-2.543 -0.19,-4.633 -0.181,-4.644 0.01,-0.011 1.777,0.429 3.92699,0.979 2.15,0.55 3.97,0.999 4.041,0.999 0.072,0 2.05299,-0.717 4.40199,-1.592 2.348,-0.876 4.285,-1.578 4.304,-1.559 0.029,0.03 0.533,7.501 0.54,7.997 0.002,0.12 0.83299,1.214 2.89299,3.807 1.877,2.364 2.864,3.657 2.814,3.688 -0.043,0.026 -1.765,0.716 -3.827,1.533 l -3.74999,1.486 -2.564,3.864 c -1.41,2.125 -2.58,3.862 -2.598,3.861 -0.018,0 -1.19699,-1.418 -2.61999,-3.148 z m -52.94492,-38.267 c -0.119,-0.674 -1.893,-11.488 -1.893,-11.536 0,-0.032 -2.104,-2.224 -4.67699,-4.873 -2.573,-2.649 -4.677,-4.836 -4.677,-4.86 0,-0.024 2.379,-1.273 5.28499,-2.775 l 5.283,-2.73099 3.11499,-5.895 c 1.713,-3.242 3.14,-5.921 3.173,-5.955 0.034,-0.036 1.245,1.116 2.963,2.818 l 4.23599,4.196 1.332,1.316 6.46398,1.123 c 3.556,0.617 6.54499,1.14 6.64399,1.161 l 0.18,0.04 -2.688,5.33099 -2.68699,5.332 0.954,6.656 c 0.525,3.661 0.947,6.666 0.937,6.679 -0.015,0.02 -11.33198,-1.674 -11.66198,-1.746 -0.1,-0.022 -7.53999,3.576 -11.45798,5.54 l -0.787,0.394 z"
     fill="#fff"
     id="path40"
     style="fill:url(#linearGradient41);fill-opacity:1"
     sodipodi:nodetypes="cccccccccccccccccccccccccccccsccccccccccccsccccccccccccccccccccscsccccccccccccccccccccccscccccccscscccsccccccccccccccccccccccccccscccscc" />
</svg>
