<?xml version="1.0" encoding="UTF-8" standalone="no"?>
<svg
   width="1253.579"
   height="1252.451"
   viewBox="0 0 331.676 331.378"
   version="1.1"
   id="svg40"
   sodipodi:docname="care.svg"
   inkscape:version="1.3.2 (1:1.3.2+202311252150+091e20ef0f)"
   xmlns:inkscape="http://www.inkscape.org/namespaces/inkscape"
   xmlns:sodipodi="http://sodipodi.sourceforge.net/DTD/sodipodi-0.dtd"
   xmlns:xlink="http://www.w3.org/1999/xlink"
   xmlns="http://www.w3.org/2000/svg"
   xmlns:svg="http://www.w3.org/2000/svg">
  <sodipodi:namedview
     id="namedview40"
     pagecolor="#ffffff"
     bordercolor="#000000"
     borderopacity="0.25"
     inkscape:showpageshadow="2"
     inkscape:pageopacity="0.0"
     inkscape:pagecheckerboard="0"
     inkscape:deskcolor="#d1d1d1"
     inkscape:zoom="0.23034798"
     inkscape:cx="295.20554"
     inkscape:cy="1159.1159"
     inkscape:window-width="1850"
     inkscape:window-height="1016"
     inkscape:window-x="0"
     inkscape:window-y="0"
     inkscape:window-maximized="1"
     inkscape:current-layer="svg40" />
  <defs
     id="defs3">
    <linearGradient
       id="linearGradient40"
       inkscape:collect="always">
      <stop
         style="stop-color:#a05a2c;stop-opacity:1"
         offset="0"
         id="stop40" />
      <stop
         style="stop-color:#c87137;stop-opacity:1"
         offset="0.32404861"
         id="stop43" />
      <stop
         style="stop-color:#deaa87;stop-opacity:1"
         offset="0.62942696"
         id="stop42" />
      <stop
         style="stop-color:#c87137;stop-opacity:1"
         offset="0.83539093"
         id="stop44" />
      <stop
         style="stop-color:#a05a2c;stop-opacity:1"
         offset="1"
         id="stop41" />
    </linearGradient>
    <clipPath
       clipPathUnits="userSpaceOnUse"
       id="a">
      <path
         class="powerclip"
         d="M-229.297 341.781H-13.73v215.567h-215.567zm184.604 97.607a90.151 90.151 0 00-90.15-90.151 90.151 90.151 0 00-90.152 90.15 90.151 90.151 0 0090.151 90.152 90.151 90.151 0 0090.151-90.151z"
         fill="maroon"
         stroke-width="1.202"
         stroke-linecap="round"
         stroke-linejoin="round"
         paint-order="markers fill stroke"
         id="path1" />
    </clipPath>
    <clipPath
       clipPathUnits="userSpaceOnUse"
       id="b">
      <path
         class="powerclip"
         d="M-229.297 341.781H-13.73v215.567h-215.567zm184.604 97.607a90.151 90.151 0 00-90.15-90.151 90.151 90.151 0 00-90.152 90.15 90.151 90.151 0 0090.151 90.152 90.151 90.151 0 0090.151-90.151z"
         fill="maroon"
         stroke-width="1.202"
         stroke-linecap="round"
         stroke-linejoin="round"
         paint-order="markers fill stroke"
         id="path2" />
    </clipPath>
    <clipPath
       clipPathUnits="userSpaceOnUse"
       id="c">
      <path
         class="powerclip"
         d="M-229.297 341.781H-13.73v215.567h-215.567zm184.604 97.607a90.151 90.151 0 00-90.15-90.151 90.151 90.151 0 00-90.152 90.15 90.151 90.151 0 0090.151 90.152 90.151 90.151 0 0090.151-90.151z"
         fill="maroon"
         stroke-width="1.202"
         stroke-linecap="round"
         stroke-linejoin="round"
         paint-order="markers fill stroke"
         id="path3" />
    </clipPath>
    <linearGradient
       inkscape:collect="always"
       xlink:href="#linearGradient40"
       id="linearGradient41"
       x1="161.26054"
       y1="1.3191248"
       x2="161.26054"
       y2="327.67239"
       gradientUnits="userSpaceOnUse" />
  </defs>
  <path
     d="M160.453 331.35a2.4 2.4 0 01.465 0c.138.015.041.027-.214.028-.256 0-.368-.012-.25-.026zm-1.658-.065a2.4 2.4 0 01.464 0c.138.014.041.026-.214.027-.255 0-.368-.012-.25-.026zm-1.392-.067c.155-.014.409-.014.564 0 .155.014.028.025-.282.025s-.437-.012-.282-.025zm-1.126-.066c.156-.014.395-.014.53 0 .136.014.008.026-.283.026-.292 0-.403-.012-.247-.026zm-1.578-.064c-7.552-.575-13.719-1.369-19.97-2.573-17.815-3.43-34.474-9.532-50.326-18.433-5.552-3.117-11.508-6.964-16.82-10.861-6.712-4.926-13.795-11.039-19.572-16.893-.853-.864-.589-.625.862.781 4.377 4.241 7.602 7.125 11.644 10.41 20.054 16.299 43.956 27.935 69.28 33.727 7.991 1.828 16.577 3.138 24.371 3.72.748.055 1.465.111 1.593.124.301.03-.67.028-1.062 0zm7.53-2.321c-12.16-.405-23.241-1.932-34.832-4.801-23.184-5.739-45.24-16.58-63.828-31.37-20.045-15.951-35.572-35.81-45.85-58.643-5.994-13.313-10.164-26.658-12.53-40.095-.295-1.67-.716-4.388-.686-4.418.013-.013.137.371.276.854 1.08 3.747 2.843 8.828 4.482 12.92 5.708 14.246 13.498 27.306 23.35 39.145 2.625 3.153 7.172 8.14 7.172 7.864 0-.081.78.649 2.206 2.062 3.899 3.866 7.41 7.002 11.595 10.354a149.098 149.098 0 0038.382 22.284c14.174 5.608 28.967 8.928 44.023 9.88a143.01 143.01 0 0017.516 0c16.939-1.066 33.579-5.178 49.334-12.191 13.66-6.081 26.304-14.206 37.72-24.24 4.008-3.522 8.684-8.145 12.259-12.118a148.592 148.592 0 0020.217-28.61c1.608-2.962 3.791-7.441 5.22-10.709 5.553-12.698 9.184-25.906 11.03-40.114 1.118-8.61 1.347-15.72.761-23.62-1.862-25.114-7.46-45.427-17.43-63.26-5.236-9.366-11.712-18.524-18.863-26.676-3.85-4.388-8.498-9.065-12.933-13.009-11.244-10-24.114-18.332-37.321-24.162-13.049-5.76-26.952-9.586-41.402-11.393-4.716-.59-10.973-1.043-14.829-1.073l-1.095-.01.962-.123c3.045-.39 7.764-.777 12.209-1.002 2.27-.115 11.725-.116 13.9 0 4.16.22 7.17.459 10.642.846 30.597 3.411 60.179 15.598 84.084 34.64 7.66 6.102 14.599 12.793 21.141 20.385 13.14 15.248 22.8 31.426 29.524 49.438 8.516 22.813 11.852 47.4 9.76 71.922-1.925 22.557-8.464 44.536-19.07 64.093-9.413 17.357-21.834 32.65-37.189 45.787-7.192 6.153-15.304 12.017-22.982 16.611-13.764 8.237-29.52 14.54-46.02 18.41-10.335 2.422-20.191 3.733-30.985 4.118-1.59.057-8.42.072-9.92.022zm-16.775-36.422c.398-.278 2.388-1.835 3.054-2.39l.76-.632 1.206.174c1.877.27 2.73.519 3.217.936.152.13.504.54.783.91l.508.674-.191.046c-.467.113-6.714.391-8.65.385-.76 0-.818-.011-.687-.103zm-8.868-.13c-29.937-1.852-58.559-13.112-82.272-32.366-4.06-3.296-7.082-6.044-11.37-10.341l-3.044-3.05.044-.54c.501-6.107 1.88-11.122 4.269-15.535 3.51-6.484 10.38-14.186 17.333-19.435 3.294-2.487 6.664-4.517 9.487-5.714 3.868-1.64 9.554-3.19 14.1-3.845 3.788-.545 8.701-.62 12.938-.195 8.317.834 18.012 4.226 25.577 8.95 3.549 2.216 6.839 4.575 14.862 10.653 2.675 2.027 6.369 4.763 7.697 5.702 3.039 2.148 3.835 2.783 5.015 4 1.87 1.93 2.907 3.891 3.808 7.208 1.628 5.988 1.963 12.233 1.225 22.798-.479 6.854-1.515 10.478-5.347 18.694-2.353 5.047-3.134 6.392-4.498 7.746-.965.958-3.188 2.662-6.004 4.601l-1.122.774-.636-.01c-.35 0-1.277-.048-2.062-.097zm-22.307-11.942c.908-.303 2.297-1.106 3.12-1.804 1.382-1.172 3.003-3.94 3.556-6.07.666-2.568.632-6.97-.071-9.404-.29-1-.57-1.31-1.411-1.555-.797-.233-1.297-.077-1.58.492-.311.627-.327 1.074-.176 5.142.093 2.532-.286 4.765-1.082 6.368-.788 1.587-1.819 2.565-3.669 3.482-.977.484-1.27.705-1.463 1.104-.294.606-.03 1.716.504 2.124.522.398 1.319.44 2.272.121zm11.514-31.109c1.675-.425 3.302-1.555 4.489-3.118 1.586-2.09 2.436-4.135 2.732-6.573.117-.972.118-4.562 0-5.673-.26-2.454-.412-2.845-1.281-3.28-1.02-.51-1.933-.208-2.393.792-.132.286-.153.437-.152 1.095 0 .443.05 1.006.115 1.345.522 2.675.11 6.443-.946 8.64-.396.825-1.04 1.63-1.857 2.318-.652.55-1.179.87-1.705 1.032-1.016.314-1.5.765-1.68 1.564-.15.668.243 1.592.795 1.87.404.204 1.047.2 1.882-.012zm32.61 41.28c-.158-.12-.554-.546-.881-.946-1.12-1.37-2.143-2.244-3.32-2.835-.645-.324-1.105-.447-1.664-.447-.384 0-.487-.022-.52-.11-.098-.255.34-1.332 1.652-4.07 3.115-6.497 4.93-11.452 5.567-15.194.64-3.764.995-9.266.996-15.426 0-3.628-.054-5.275-.265-8.037l-.042-.539 1.152-.718c6.507-4.053 12.095-6.187 20.85-7.961 2.964-.601 4.053-.719 6.675-.723 2.219 0 2.344.01 5.574.363 3.784.42 6.76.556 8.857.404 6.07-.438 11.08-2.156 25.478-8.733 3.981-1.818 5.927-2.645 7.96-3.38 4.776-1.73 7.899-2.068 11.694-1.265 2.914.617 6.486 2.39 9.506 4.72 1.3 1.001 4.486 4.322 4.475 4.663-.008.24-3.413 4.845-5.673 7.67a150.96 150.96 0 01-6.833 7.965c-1.524 1.665-6.439 6.58-8.19 8.192-5.795 5.329-11.598 9.902-18.015 14.193-3.334 2.23-7.464 4.781-7.563 4.671-.056-.062-.91-4.391-1.157-5.86-.567-3.388-.767-5.493-.767-8.095 0-3.44.356-5.895 1.296-8.926.95-3.066 2.306-5.93 4.491-9.486.471-.766 1.048-1.78 1.283-2.255.647-1.309.686-1.815.18-2.3-.381-.366-.78-.541-1.246-.548-1.008-.014-1.92.86-3.544 3.397-3.005 4.693-4.895 9.476-5.676 14.367-.337 2.108-.4 3.016-.4 5.784 0 2.744.034 3.302.37 6.02.106.866.194 1.626.194 1.688 0 .066-.251-.158-.611-.547-2.24-2.415-3.403-3.425-5.858-5.086-3.577-2.42-6.881-4.082-12.814-6.444-6.165-2.455-11.69-4.36-13.128-4.53-.491-.058-.658 0-1.045.36-.716.664-.86 1.144-.575 1.906.326.872.705 1.054 6.177 2.978 6.087 2.14 10.02 3.732 13.622 5.515 6.433 3.183 10.177 6.284 13.017 10.78.85 1.344 2.132 3.624 2.068 3.676-.259.21-5.623 2.912-7.733 3.894a142.369 142.369 0 01-31.536 10.441c-1.533.315-4.335.834-4.47.829-.041 0 .074-.08.257-.174.705-.364 3.438-1.865 4.544-2.496a150.857 150.857 0 007.896-4.825c2.59-1.682 3.457-2.105 5.208-2.542 1.861-.464 3.327-.637 5.806-.688 1.954-.04 3.166.023 4.876.254 1.312.178 2.458.154 2.864-.06.808-.425 1.221-1.785.736-2.422-.095-.124-.378-.334-.628-.465-1.251-.658-3.708-1.077-10.768-1.838-5.506-.593-7.173-.874-9.253-1.559-1.783-.587-3.352-1.24-4.514-1.881-2.08-1.147-3.44-2.24-6.369-5.123-1.998-1.967-2.41-2.31-2.94-2.45-.574-.152-1.476.314-1.793.927-.451.873.28 2.239 2.327 4.35 2.807 2.895 5.027 4.573 8.052 6.087 2.208 1.105 4.335 1.835 6.515 2.237.45.083.793.173.763.201-.122.116-4.615 3.03-5.991 3.887-5.337 3.321-10.656 6.144-15.625 8.293-.62.268-1.163.488-1.206.488-.043 0-.207-.098-.365-.217zM45.886 280.127l-.563-.58.58.562c.32.31.581.57.581.58 0 .049-.076-.022-.598-.562zm-1.33-1.393l-.162-.183.183.161c.17.15.213.204.16.204a1.15 1.15 0 01-.182-.182zm-27.796-40.44c-7.405-15.276-12.283-30.885-14.86-47.54C.802 183.667.186 176.516.015 168.878c-.028-1.27-.026-1.305.058-.796.059.355.076.85.053 1.493-.027.737-.002 1.242.105 2.16.077.66.14 1.555.14 1.99.004 3.598.827 11.865 1.797 18.002 1.711 10.83 4.623 21.729 8.686 32.519 1.72 4.566 4.123 10.214 6.012 14.126.306.636.547 1.166.534 1.178-.012.012-.3-.552-.641-1.254zm312.11-42.352c0-.077.019-.093.04-.04.019.048.017.105-.01.127-.022.022-.038-.017-.035-.087zm.066-.398c0-.077.019-.093.04-.04.019.048.017.105-.01.127-.022.022-.038-.017-.035-.087zm.066-.332c0-.077.019-.093.04-.04.019.048.017.105-.01.127-.022.022-.038-.017-.035-.087zm.066-.398c0-.077.019-.093.04-.04.019.048.017.105-.01.127-.022.022-.038-.017-.035-.087zm.072-.36c0-.09.015-.128.034-.083a.262.262 0 010 .166c-.018.046-.034.01-.034-.083zm.06-.37c0-.077.02-.093.04-.04.02.048.018.105-.01.127-.021.022-.037-.017-.034-.087zm.067-.398c0-.077.019-.093.04-.04.019.048.017.105-.01.127-.022.022-.038-.017-.035-.087zm.066-.398c0-.077.019-.093.04-.04.019.048.017.105-.01.127-.022.022-.038-.017-.035-.087zm.066-.398c0-.077.019-.093.04-.04.019.048.017.105-.01.127-.022.022-.038-.017-.035-.087zm.072-.426c0-.091.015-.129.034-.083a.261.261 0 010 .166c-.018.046-.034.01-.034-.083zm.066-.398c0-.091.015-.129.034-.083a.262.262 0 010 .166c-.018.046-.034.01-.034-.083zm.066-.398c0-.091.015-.129.034-.083a.262.262 0 010 .166c-.018.046-.034.01-.034-.083zm.069-.432c0-.109.016-.146.033-.082a.404.404 0 010 .2c-.018.044-.032-.01-.03-.118zm.064-.43c0-.092.015-.13.034-.084a.261.261 0 010 .166c-.018.046-.034.01-.034-.083zm.069-.432c0-.11.016-.146.033-.082a.404.404 0 010 .199c-.018.045-.032-.01-.031-.118zm.066-.465c0-.109.016-.146.033-.082a.404.404 0 010 .2c-.018.045-.032-.01-.031-.118zm.066-.464c0-.11.016-.146.033-.082a.404.404 0 010 .2c-.018.044-.032-.01-.031-.118zm.066-.464c0-.11.016-.147.033-.082a.404.404 0 010 .199c-.018.045-.032-.01-.031-.118zm.066-.465c0-.11.016-.146.033-.082a.404.404 0 010 .2c-.018.044-.032-.01-.031-.118zm.069-.498c0-.127.014-.18.03-.116a.535.535 0 010 .233c-.017.064-.03.012-.03-.117zm.066-.464c0-.128.014-.18.03-.116a.535.535 0 010 .232c-.017.064-.03.012-.03-.116zm.066-.53c0-.128.014-.18.03-.117a.535.535 0 010 .232c-.017.064-.03.012-.03-.116zm.068-.498c0-.146.014-.198.03-.116a.76.76 0 010 .266c-.017.063-.03 0-.03-.15zm.066-.531c0-.146.014-.198.03-.115a.76.76 0 010 .265c-.016.063-.03 0-.03-.15zm.068-.564c0-.164.013-.231.029-.15a.934.934 0 010 .3c-.016.081-.03.014-.03-.15zm.065-.564c0-.146.014-.198.03-.115a.76.76 0 010 .265c-.017.064-.03 0-.03-.15zm.055-.398c0-.073.069-.85.158-1.725.792-7.732 1.065-16.128.764-23.52-.033-.822-.075-1.942-.092-2.489-.03-.977-.03-.98.025-.232.159 2.152.23 5.017.229 9.156 0 6.285-.219 10.679-.828 16.786-.19 1.9-.245 2.341-.257 2.024zm.747-29.26c0-.292.012-.403.026-.247.014.156.014.395 0 .53-.014.137-.026.01-.025-.283zm-.067-1.028c0-.274.012-.386.026-.25.014.138.014.362 0 .498-.014.137-.026.025-.026-.248zm-.068-.93c0-.236.012-.333.027-.215a2.07 2.07 0 010 .431c-.015.12-.027.022-.027-.215zm-.067-.895c0-.219.013-.3.028-.181.015.12.015.298 0 .398-.015.1-.027 0-.027-.217zm-.067-.83c0-.2.012-.282.028-.182.015.1.015.265 0 .365-.015.1-.028.018-.028-.182zm-.067-.762c0-.183.013-.25.029-.149.015.101.015.25 0 .332-.016.082-.028 0-.028-.183zm-.066-.73c0-.183.013-.25.029-.148.015.1.015.25 0 .331-.016.082-.028 0-.028-.183zm-.067-.697c0-.164.013-.231.029-.149a.935.935 0 010 .299c-.016.082-.03.015-.03-.15zm-.066-.663c0-.164.013-.232.029-.15a.935.935 0 010 .3c-.016.081-.03.014-.03-.15zm-.068-.63c0-.147.014-.198.03-.116a.762.762 0 010 .266c-.017.063-.03 0-.03-.15zm-.066-.664c0-.146.014-.198.03-.115a.76.76 0 010 .265c-.016.063-.03 0-.03-.15zm-.068-.564c0-.128.014-.18.03-.116a.535.535 0 010 .232c-.017.064-.03.012-.03-.116zm-.07-.564c0-.11.017-.146.034-.082a.404.404 0 010 .2c-.018.044-.032-.01-.031-.118zm-.065-.597c0-.11.016-.146.033-.082a.404.404 0 010 .199c-.018.045-.032-.01-.031-.118zm-.066-.53c0-.11.016-.147.033-.083a.404.404 0 010 .2c-.018.044-.032-.01-.031-.118zm-.07-.565c0-.09.016-.128.035-.083a.262.262 0 010 .166c-.018.046-.034.01-.034-.083zm-.071-.503c0-.077.019-.093.04-.04.019.048.017.105-.01.127-.022.022-.038-.017-.035-.087zm-.061-.492c0-.091.015-.129.034-.083a.262.262 0 010 .166c-.018.046-.034.01-.034-.083zm-.072-.503c0-.077.019-.093.04-.04.019.048.017.105-.01.127-.022.022-.038-.017-.035-.087zm-.066-.465c0-.077.019-.093.04-.04.019.048.017.105-.01.127-.022.022-.038-.017-.035-.087zM167.6 80.17l-2.588-3.145-.365-.112c-.2-.062-2.216-.629-4.478-1.26-2.68-.746-4.107-1.174-4.095-1.225.01-.043.993-1.615 2.182-3.492l2.163-3.414-.2-4.623c-.109-2.543-.19-4.633-.181-4.644.01-.011 1.777.429 3.927.979 2.15.55 3.97.999 4.041.999.072 0 2.053-.717 4.402-1.592 2.348-.876 4.285-1.578 4.304-1.559.029.03.533 7.501.54 7.997.002.12.833 1.214 2.893 3.807 1.877 2.364 2.864 3.657 2.814 3.688-.043.026-1.765.716-3.827 1.533l-3.75 1.486-2.564 3.864c-1.41 2.125-2.58 3.862-2.598 3.861-.018 0-1.197-1.418-2.62-3.148zm-52.945-38.267c-.119-.674-1.893-11.488-1.893-11.536 0-.032-2.104-2.224-4.677-4.873-2.573-2.649-4.677-4.836-4.677-4.86 0-.024 2.379-1.273 5.285-2.775l5.283-2.731 3.115-5.895c1.713-3.242 3.14-5.921 3.173-5.955.034-.036 1.245 1.116 2.963 2.818l4.236 4.196 1.332 1.316 6.464 1.123c3.556.617 6.545 1.14 6.644 1.161l.18.04-2.688 5.331-2.687 5.332.954 6.656c.525 3.661.947 6.666.937 6.679-.015.02-11.332-1.674-11.662-1.746-.1-.022-7.54 3.576-11.458 5.54l-.787.394zm9.507-36.851c.048-.019.105-.017.127.01.022.022-.017.038-.087.035-.077 0-.093-.019-.04-.04zm.245-.057c.136-.052 1.662-.427 1.741-.428.046 0 .083.055.083.122 0 .107-.106.137-.822.233-.776.103-1.151.13-1.002.073zm2.52-.632c.409-.122 4.039-.933 5.607-1.252 3.185-.648 7.606-1.428 7.82-1.38.06.014-.055.048-.256.077-.671.095-3.001.575-4.744.977-4.242.977-5.647 1.263-7.43 1.516-1 .141-1.329.162-.996.063zm14-2.752c.256-.048.554-.086.664-.084.11 0-.025.043-.299.09a5.346 5.346 0 01-.663.085c-.091 0 .043-.043.299-.091zm.98-.142a.535.535 0 01.231 0c.064.017.012.03-.116.03-.127 0-.18-.014-.116-.03zm.464-.066a.535.535 0 01.232 0c.064.017.011.03-.116.03-.128 0-.18-.014-.116-.03zm.613-.091c.146-.03.355-.053.465-.05.149 0 .124.018-.1.058-.4.07-.714.065-.365-.01zm.814-.11a.76.76 0 01.265 0c.064.017-.004.03-.15.03s-.198-.015-.115-.03zm.497-.065a.535.535 0 01.232 0c.064.017.011.03-.116.03-.128 0-.18-.014-.116-.03zm.498-.067a.761.761 0 01.265 0c.064.016-.004.03-.15.03s-.197-.015-.115-.03zm.53-.066a.761.761 0 01.266 0c.064.017-.004.03-.15.03s-.198-.015-.115-.03zm.532-.066a.761.761 0 01.265 0c.063.016-.004.03-.15.03s-.198-.015-.115-.03zm.597-.066a.76.76 0 01.265 0c.064.017-.004.03-.15.03s-.198-.015-.115-.03zm.53-.066a.761.761 0 01.266 0c.063.017-.004.03-.15.03s-.198-.015-.115-.03zm.53-.066a.935.935 0 01.3 0c.081.016.014.03-.15.03s-.232-.014-.15-.03zm.665-.066a.761.761 0 01.265 0c.064.017-.004.03-.15.03s-.198-.015-.115-.03zm.663-.066a.761.761 0 01.266 0c.063.017-.004.03-.15.03s-.198-.015-.116-.03zm.598-.066a.761.761 0 01.265 0c.063.016-.004.03-.15.03s-.198-.015-.115-.03zm.73-.066a.761.761 0 01.265 0c.063.017-.004.03-.15.03s-.198-.015-.116-.03zm.663-.066a.761.761 0 01.265 0c.064.016-.004.03-.15.03s-.198-.015-.115-.03zm.73-.066a.761.761 0 01.265 0c.063.017-.004.03-.15.03s-.198-.015-.115-.03zm.795-.066a.935.935 0 01.299 0c.082.016.015.03-.15.03-.164 0-.231-.014-.149-.03zm.83-.065a.535.535 0 01.232 0c.063.017.011.03-.116.03-.128 0-.18-.014-.117-.03zm.896-.068a.761.761 0 01.265 0c.064.017-.004.03-.15.03s-.198-.015-.115-.03zm.999-.065c.047-.019.105-.017.127.01.022.022-.017.038-.087.035-.078 0-.093-.019-.04-.04zm1.025-.067a.404.404 0 01.2 0c.044.018-.009.032-.118.031-.11 0-.147-.016-.082-.033z"
     fill="#fff"
     id="path40"
     style="fill:url(#linearGradient41);fill-opacity:1" />
</svg>
