<?xml version="1.0" encoding="UTF-8" standalone="no"?>
<!-- Created with Inkscape (http://www.inkscape.org/) -->

<svg
   width="28.861673mm"
   height="18.040161mm"
   viewBox="0 0 28.861673 18.040161"
   version="1.1"
   id="svg1"
   xml:space="preserve"
   inkscape:version="1.3 (1:1.3+202307231459+0e150ed6c4)"
   sodipodi:docname="packages.svg"
   xmlns:inkscape="http://www.inkscape.org/namespaces/inkscape"
   xmlns:sodipodi="http://sodipodi.sourceforge.net/DTD/sodipodi-0.dtd"
   xmlns="http://www.w3.org/2000/svg"
   xmlns:svg="http://www.w3.org/2000/svg"><sodipodi:namedview
     id="namedview1"
     pagecolor="#ffffff"
     bordercolor="#000000"
     borderopacity="0.25"
     inkscape:showpageshadow="2"
     inkscape:pageopacity="0.0"
     inkscape:pagecheckerboard="0"
     inkscape:deskcolor="#d1d1d1"
     inkscape:document-units="mm"
     inkscape:zoom="1.0620589"
     inkscape:cx="2630.2684"
     inkscape:cy="26.363886"
     inkscape:window-width="1850"
     inkscape:window-height="1016"
     inkscape:window-x="0"
     inkscape:window-y="0"
     inkscape:window-maximized="1"
     inkscape:current-layer="layer1" /><defs
     id="defs1"><filter
       style="color-interpolation-filters:sRGB"
       inkscape:label="Drop Shadow"
       id="filter25-3"
       x="-0.07673342"
       y="-0.14545277"
       width="1.1534668"
       height="1.3666622"><feFlood
         result="flood"
         in="SourceGraphic"
         flood-opacity="0.498039"
         flood-color="rgb(0,0,0)"
         id="feFlood24-9" /><feGaussianBlur
         result="blur"
         in="SourceGraphic"
         stdDeviation="0.800000"
         id="feGaussianBlur24-0" /><feOffset
         result="offset"
         in="blur"
         dx="0.000000"
         dy="1.000000"
         id="feOffset24-8" /><feComposite
         result="comp1"
         operator="in"
         in="flood"
         in2="offset"
         id="feComposite24-8" /><feComposite
         result="comp2"
         operator="over"
         in="SourceGraphic"
         in2="comp1"
         id="feComposite25-5" /></filter></defs><g
     inkscape:label="Layer 1"
     inkscape:groupmode="layer"
     id="layer1"
     transform="translate(-643.81361,88.319867)"><path
       style="fill:#f9f9f9;stroke-width:0.346;filter:url(#filter25-3)"
       d="m 649.43063,-73.302966 c -1.30202,-0.415913 -2.51648,-1.405078 -3.10862,-2.531919 -1.02361,-1.947931 -0.69494,-4.130493 0.85518,-5.678979 1.1489,-1.147687 2.77394,-1.666944 4.29603,-1.372724 l 0.39476,0.07631 0.36591,-0.57939 c 0.54534,-0.863477 1.67571,-1.88197 2.58115,-2.325684 1.10204,-0.540062 1.74563,-0.685084 3.03781,-0.684511 0.88922,3.48e-4 1.22938,0.0409 1.78514,0.212647 1.70294,0.526213 2.96639,1.511676 3.89232,3.035919 0.19706,0.32439 0.39554,0.546612 0.48821,0.546612 0.0859,0 0.45875,0.145017 0.8286,0.32226 1.19436,0.572382 2.36595,1.994529 2.54004,3.083256 l 0.0557,0.347865 h 0.52127 c 0.72513,0 1.29749,0.220244 1.84005,0.708056 0.69107,0.621324 0.94579,1.179565 0.95097,2.084092 0.003,0.560111 -0.0416,0.831895 -0.1907,1.155528 -0.27943,0.606693 -0.79368,1.134616 -1.39093,1.427914 l -0.51819,0.25448 -9.42922,0.01762 c -7.43982,0.0139 -9.50649,-0.007 -9.79541,-0.09935 z"
       id="path4-1-4-5-8" /></g></svg>
