<?xml version="1.0" encoding="UTF-8" standalone="no"?>
<!-- Uploaded to: SVG Repo, www.svgrepo.com, Generator: SVG Repo Mixer Tools -->

<svg
   fill="#000000"
   width="600"
   height="600"
   viewBox="0 0 192 192"
   id="Flat"
   version="1.1"
   sodipodi:docname="instagram.svg"
   inkscape:version="1.3.2 (1:1.3.2+202311252150+091e20ef0f)"
   xmlns:inkscape="http://www.inkscape.org/namespaces/inkscape"
   xmlns:sodipodi="http://sodipodi.sourceforge.net/DTD/sodipodi-0.dtd"
   xmlns:xlink="http://www.w3.org/1999/xlink"
   xmlns="http://www.w3.org/2000/svg"
   xmlns:svg="http://www.w3.org/2000/svg">
  <sodipodi:namedview
     id="namedview1"
     pagecolor="#ffffff"
     bordercolor="#000000"
     borderopacity="0.25"
     inkscape:showpageshadow="2"
     inkscape:pageopacity="0.0"
     inkscape:pagecheckerboard="0"
     inkscape:deskcolor="#d1d1d1"
     inkscape:zoom="0.68"
     inkscape:cx="226.47059"
     inkscape:cy="472.05882"
     inkscape:window-width="1850"
     inkscape:window-height="1016"
     inkscape:window-x="0"
     inkscape:window-y="0"
     inkscape:window-maximized="1"
     inkscape:current-layer="Flat" />
  <defs
     id="defs1">
    <linearGradient
       id="linearGradient1"
       inkscape:collect="always">
      <stop
         style="stop-color:#a47551;stop-opacity:1;"
         offset="0"
         id="stop1" />
      <stop
         style="stop-color:#e9c6af;stop-opacity:1"
         offset="0.4833189"
         id="stop3" />
      <stop
         style="stop-color:#a47551;stop-opacity:1"
         offset="1"
         id="stop2" />
    </linearGradient>
    <linearGradient
       inkscape:collect="always"
       xlink:href="#linearGradient1"
       id="linearGradient2"
       x1="96.75"
       y1="46.224262"
       x2="96.75"
       y2="145.77574"
       gradientUnits="userSpaceOnUse" />
  </defs>
  <path
     d="m 96,51.999986 a 44,44 0 1 0 44,44 44.04978,44.04978 0 0 0 -44,-44 z m 0,80.000004 A 36,36 0 1 1 132,95.999986 36.04061,36.04061 0 0 1 96,131.99999 Z M 140,-1.3681641e-5 H 52 A 52.059,52.059 0 0 0 -1.7578122e-7,51.999986 V 139.99999 A 52.059,52.059 0 0 0 52,191.99999 h 88 a 52.059,52.059 0 0 0 52,-52 V 51.999986 A 52.059,52.059 0 0 0 140,-1.3681641e-5 Z M 184,139.99999 a 44.04978,44.04978 0 0 1 -44,44 H 52 a 44.04978,44.04978 0 0 1 -44.0000002,-44 V 51.999986 A 44.04978,44.04978 0 0 1 52,7.9999863 h 88 A 44.04978,44.04978 0 0 1 184,51.999986 Z M 156,43.999986 a 8,8 0 1 1 -8,-8 8.00917,8.00917 0 0 1 8,8 z"
     id="path1"
     style="fill:url(#linearGradient2);fill-opacity:1" />
</svg>
