<?xml version="1.0" encoding="UTF-8" standalone="no"?>
<!-- Created with Inkscape (http://www.inkscape.org/) -->

<svg
   width="80.262032mm"
   height="80.258408mm"
   viewBox="0 0 80.262032 80.258408"
   version="1.1"
   id="svg1"
   xml:space="preserve"
   xmlns="http://www.w3.org/2000/svg"
   xmlns:svg="http://www.w3.org/2000/svg"><defs
     id="defs1" /><g
     id="layer1"
     transform="translate(-70.489793,-96.880407)"><path
       style="fill:#e4d4c8;fill-opacity:1"
       d="m 73.317325,176.83377 c -0.60685,-0.20947 -1.07448,-0.52242 -1.59325,-1.06624 -1.33732,-1.4019 -1.23235,1.26566 -1.23235,-31.31777 0,-32.29335 -0.086,-29.8991 1.12081,-31.20832 0.34619,-0.37557 0.95883,-0.84512 1.36141,-1.04344 l 0.73198,-0.36058 25.08642,-0.0411 25.086405,-0.0411 -4.23224,4.23527 -4.23225,4.23527 H 97.186335 78.958395 v 24.22407 24.22408 h 24.224065 24.22407 v -18.22794 -18.22794 l 4.23527,-4.23225 4.23527,-4.23224 -0.0411,25.08642 -0.0411,25.08642 -0.36058,0.73197 c -0.19831,0.40259 -0.66786,1.01523 -1.04344,1.36142 -1.30964,1.20718 1.09474,1.12141 -31.27597,1.11569 -27.968025,-0.005 -28.967325,-0.0151 -29.797485,-0.30162 z m 35.779605,-36.07592 c -1.76389,-0.88142 -2.69721,-2.39801 -2.69721,-4.38278 0,-2.21964 -0.77801,-1.32542 14.14837,-16.26172 l 13.35223,-13.3611 -8.46017,-0.0445 -8.46016,-0.0444 -0.89597,-0.43998 c -1.65967,-0.81501 -2.7886,-2.60459 -2.7886,-4.42052 0,-1.815933 1.12893,-3.605513 2.7886,-4.420523 l 0.89597,-0.43997 14.50308,-0.0491 c 10.47783,-0.0355 14.74243,8.1e-4 15.36544,0.13078 1.8215,0.38001 3.37968,1.93819 3.75969,3.759703 0.12997,0.623 0.16627,4.8876 0.13079,15.36543 l -0.0491,14.50308 -0.43997,0.89597 c -0.81501,1.65968 -2.60459,2.7886 -4.42052,2.7886 -1.81593,0 -3.60551,-1.12892 -4.42052,-2.7886 l -0.43997,-0.89597 -0.0445,-8.46016 -0.0445,-8.46017 -13.3611,13.35224 c -14.9455,14.93557 -14.03847,14.14702 -16.27588,14.1499 -1.01448,0.001 -1.33113,-0.069 -2.14606,-0.47619 z"
       id="path1" /></g></svg>
