<?xml version="1.0" encoding="UTF-8" standalone="no"?>
<!-- Created with Inkscape (http://www.inkscape.org/) -->

<svg
   width="814.50336mm"
   height="331.68002mm"
   viewBox="0 0 814.50336 331.68002"
   version="1.1"
   id="svg1"
   xml:space="preserve"
   xmlns="http://www.w3.org/2000/svg"
   xmlns:svg="http://www.w3.org/2000/svg"><defs
     id="defs1"><clipPath
       clipPathUnits="userSpaceOnUse"
       id="clipath_lpe_path-effect6-7"><circle
         style="display:none;fill:#800000;stroke:none;stroke-width:1.20162;stroke-linecap:round;stroke-linejoin:round;stroke-dasharray:none;paint-order:markers fill stroke"
         id="circle10"
         cx="-134.84392"
         cy="439.38782"
         r="90.150963"
         d="m -44.692955,439.38782 a 90.150963,90.150963 0 0 1 -90.150965,90.15096 90.150963,90.150963 0 0 1 -90.15096,-90.15096 90.150963,90.150963 0 0 1 90.15096,-90.15097 90.150963,90.150963 0 0 1 90.150965,90.15097 z" /><path
         id="lpe_path-effect6-7"
         style="fill:#800000;stroke:none;stroke-width:1.20162;stroke-linecap:round;stroke-linejoin:round;stroke-dasharray:none;paint-order:markers fill stroke"
         class="powerclip"
         d="m -229.29687,341.78149 h 215.5666 v 215.5666 h -215.5666 z m 184.603915,97.60633 a 90.150963,90.150963 0 0 0 -90.150965,-90.15097 90.150963,90.150963 0 0 0 -90.15096,90.15097 90.150963,90.150963 0 0 0 90.15096,90.15096 90.150963,90.150963 0 0 0 90.150965,-90.15096 z" /></clipPath></defs><g
     id="layer1"
     transform="translate(-154.81027,-868.8209)"><g
       id="g5"
       transform="translate(437.13412,-137.80141)"><g
         id="g17" /><path
         style="fill:#ffffff;stroke:none;stroke-width:1.37;stroke-linecap:round;stroke-linejoin:round;stroke-dasharray:none;paint-order:markers fill stroke"
         id="path6-4"
         clip-path="url(#clipath_lpe_path-effect6-7)"
         d="m -18.73027,449.56479 a 102.7833,102.7833 0 0 1 -102.7833,102.7833 102.7833,102.7833 0 0 1 -102.7833,-102.7833 102.7833,102.7833 0 0 1 102.7833,-102.7833 102.7833,102.7833 0 0 1 102.7833,102.7833 z"
         transform="matrix(1.6134917,0,0,1.6134917,79.577298,447.09326)" /><g
         id="g14"
         transform="matrix(1.1805438,0,0,1.1805438,-280.65751,-131.81252)"
         style="fill:#ffffff"><path
           style="font-size:127.465px;font-family:Chilanka;-inkscape-font-specification:Chilanka;letter-spacing:0px;word-spacing:0px;fill:#ffffff;stroke-width:30.9378;stroke-linecap:round;stroke-linejoin:round;paint-order:markers fill stroke"
           d="m 344.72785,1039.0355 c -6.03716,0 -11.0785,3.7966 -14.87507,11.452 -1.18254,-4.419 -2.80074,-7.8421 -4.79238,-10.3939 -0.87135,-1.0581 -1.92941,-1.4937 -2.98747,-1.4937 -2.17835,0 -4.29447,1.8671 -4.29447,4.1077 0,0.8091 0.24895,1.6182 0.93358,2.4273 3.42313,4.2945 5.2903,12.8212 5.66373,25.7047 -0.68463,5.228 -0.99582,11.0785 -0.99582,17.4891 0,2.6762 0.0622,5.477 0.18671,8.4022 0.12448,2.4273 2.11612,3.7343 4.10776,3.7343 1.92941,0 3.79657,-1.1825 3.98328,-3.5476 l 0.37344,-4.2945 c 0.37343,-4.0455 0.49791,-8.7756 0.49791,-14.2527 0,-2.2405 0,-4.6056 -0.0622,-7.0952 1.05806,-7.9043 2.80074,-14.0659 5.35253,-18.4849 2.2406,-3.8588 4.66791,-5.7882 7.2197,-5.7882 2.98746,0 6.22388,2.5518 9.70925,7.7176 3.17417,4.7302 5.35253,11.0785 6.53507,19.1073 -0.24896,3.0497 -0.3112,6.3484 -0.3112,9.7715 0,4.1078 0.12448,8.4645 0.43568,13.1324 0.24895,2.3651 2.17835,3.6098 4.10775,3.6098 1.86717,0 3.73433,-1.1203 3.98329,-3.4231 0.56014,-4.3567 0.74686,-8.1533 0.74686,-11.6386 0,-4.1078 -0.31119,-7.8421 -0.8091,-11.6387 0.68462,-8.0288 2.24059,-15.373 5.85044,-21.7213 2.2406,-3.9211 5.10358,-5.8505 8.15328,-5.8505 2.73851,0 5.60149,1.6182 8.21552,4.7924 3.98328,4.8546 6.41059,12.1988 6.41059,21.4102 0,7.2196 -1.99164,14.9373 -6.03716,23.0905 -1.55597,3.112 1.18254,5.726 3.60985,5.726 1.49373,0 2.92522,-0.6846 3.67209,-2.1161 4.54343,-9.2736 6.84626,-18.1737 6.84626,-26.7627 0,-11.0785 -2.98746,-20.0409 -7.96656,-26.078 -4.10776,-5.0414 -9.33582,-8.34 -14.87507,-8.34 -2.86298,0 -5.7882,0.9336 -8.71343,2.9874 -4.29447,3.0497 -7.65536,8.1533 -10.02044,15.2485 -3.79656,-8.5267 -10.70507,-16.9912 -19.85416,-16.9912 z m 128.95872,17.7381 c -0.8091,-8.589 -4.17,-14.5016 -10.26939,-17.7381 -3.42314,-1.8049 -7.09522,-2.7385 -11.01627,-2.7385 -3.11193,0 -6.34835,0.5602 -9.70924,1.6805 -8.77567,2.8007 -15.37298,8.4645 -19.66745,16.9289 -2.92523,5.7882 -4.41896,11.8254 -4.41896,18.1738 0,9.8337 2.92522,17.489 7.96656,22.2192 2.80075,2.614 6.78403,4.6057 11.51418,4.6057 1.6182,0 3.29865,-0.249 5.10358,-0.7469 2.92522,-0.3112 5.72596,-1.556 8.46447,-3.7343 4.48119,-3.6099 8.71343,-8.589 12.69671,-14.9996 0.0622,7.282 0.74686,13.3814 2.05388,18.1737 0.56015,2.0539 2.11611,2.9253 3.73432,2.9253 2.05388,0 4.23224,-1.4938 4.23224,-3.7966 0,-0.3734 -0.0622,-0.7469 -0.18672,-1.1825 -1.18253,-4.4812 -1.80492,-10.2694 -1.80492,-17.4891 0,-5.1658 0.31119,-11.0163 0.93358,-17.5514 0.37343,-1.2447 0.56015,-2.3028 0.56015,-3.2986 0,-0.4979 -0.0622,-0.9958 -0.18672,-1.4315 z m -8.09104,0.5601 c -0.0622,0.8714 -0.18671,1.7427 -0.24895,2.5518 -3.85881,11.5142 -12.07432,23.713 -18.2982,28.6299 -2.11612,1.6804 -3.48537,2.4895 -4.17,2.5518 -1.80492,0.1867 -3.11194,0.6846 -4.73014,0.6846 -2.36508,0 -4.4812,-0.8714 -6.34836,-2.614 -2.98746,-2.8008 -5.10358,-8.7757 -5.10358,-15.9332 0,-5.1035 1.24478,-10.1449 3.85881,-15.2485 3.11193,-6.0994 7.96656,-10.1449 14.62611,-12.261 2.7385,-0.8713 5.22805,-1.307 7.46865,-1.307 7.65537,0 12.1988,4.9791 12.94566,12.9456 z m 48.04833,-18.2982 c -6.03716,0 -11.0785,3.7966 -14.87506,11.452 -1.18254,-4.419 -2.80075,-7.8421 -4.79239,-10.3939 -0.87134,-1.0581 -1.9294,-1.4937 -2.98746,-1.4937 -2.17836,0 -4.29448,1.8671 -4.29448,4.1077 0,0.8091 0.24896,1.6182 0.93359,2.4273 3.42313,4.2945 5.29029,12.8212 5.66372,25.7047 -0.68462,5.228 -0.99582,11.0785 -0.99582,17.4891 0,2.6762 0.0622,5.477 0.18672,8.4022 0.12448,2.4273 2.11612,3.7343 4.10776,3.7343 1.9294,0 3.79656,-1.1825 3.98328,-3.5476 l 0.37343,-4.2945 c 0.37344,-4.0455 0.49791,-8.7756 0.49791,-14.2527 0,-2.2405 0,-4.6056 -0.0622,-7.0952 1.05806,-7.9043 2.80075,-14.0659 5.35254,-18.4849 2.24059,-3.8588 4.66791,-5.7882 7.2197,-5.7882 2.98746,0 6.22387,2.5518 9.70924,7.7176 3.17418,4.7302 5.35254,11.0785 6.53507,19.1073 -0.24895,3.0497 -0.31119,6.3484 -0.31119,9.7715 0,4.1078 0.12448,8.4645 0.43567,13.1324 0.24896,2.3651 2.17836,3.6098 4.10776,3.6098 1.86716,0 3.73433,-1.1203 3.98328,-3.4231 0.56015,-4.3567 0.74687,-8.1533 0.74687,-11.6386 0,-4.1078 -0.3112,-7.8421 -0.80911,-11.6387 0.68463,-8.0288 2.2406,-15.373 5.85045,-21.7213 2.24059,-3.9211 5.10358,-5.8505 8.15327,-5.8505 2.73851,0 5.60149,1.6182 8.21552,4.7924 3.98328,4.8546 6.4106,12.1988 6.4106,21.4102 0,7.2196 -1.99165,14.9373 -6.03717,23.0905 -1.55596,3.112 1.18254,5.726 3.60985,5.726 1.49373,0 2.92523,-0.6846 3.67209,-2.1161 4.54343,-9.2736 6.84627,-18.1737 6.84627,-26.7627 0,-11.0785 -2.98747,-20.0409 -7.96657,-26.078 -4.10776,-5.0414 -9.33581,-8.34 -14.87506,-8.34 -2.86299,0 -5.78821,0.9336 -8.71343,2.9874 -4.29448,3.0497 -7.65537,8.1533 -10.02044,15.2485 -3.79657,-8.5267 -10.70507,-16.9912 -19.85417,-16.9912 z m 73.87741,-14.6261 c 0,3.5476 2.67627,6.4729 5.72597,6.4729 1.43149,0 3.0497,-0.4357 4.85462,-1.3693 3.23642,-1.1203 5.2903,-3.9833 5.2903,-7.033 0,-3.2364 -3.11194,-7.3441 -6.97075,-7.3441 -3.98328,0 -8.90014,4.6679 -8.90014,9.2735 z m 10.08268,65.4752 c 0.62239,-12.4477 0.62239,-22.4059 0.62239,-35.9117 0,-4.1078 -0.0622,-8.2778 -0.12448,-12.6968 0,-2.614 -1.9294,-3.8588 -3.92104,-3.8588 -2.05388,0 -4.10776,1.3071 -4.10776,3.9833 0.0622,3.2364 0.0622,6.6596 0.0622,10.1449 0,9.5848 0.0622,39.2727 -1.80493,43.5049 -0.18671,0.5602 -0.31119,1.1203 -0.31119,1.6182 0,2.3029 1.9294,4.1078 4.10776,4.1078 3.8588,0 5.22806,-4.2322 5.47701,-10.8918 z"
           id="text7-6-6"
           aria-label="mami" /><path
           style="font-size:127.465px;font-family:Chilanka;-inkscape-font-specification:Chilanka;letter-spacing:0px;word-spacing:0px;fill:#ffffff;stroke-width:30.9378;stroke-linecap:round;stroke-linejoin:round;paint-order:markers fill stroke"
           d="m 396.00543,1132.4291 c -6.03716,0 -11.0785,3.7966 -14.87506,11.4519 -1.18254,-4.4189 -2.80075,-7.842 -4.79239,-10.3938 -0.87134,-1.0581 -1.9294,-1.4938 -2.98746,-1.4938 -2.17835,0 -4.29447,1.8672 -4.29447,4.1078 0,0.8091 0.24895,1.6182 0.93358,2.4273 3.42313,4.2945 5.29029,12.8212 5.66373,25.7046 -0.68463,5.2281 -0.99582,11.0785 -0.99582,17.4891 0,2.6763 0.0622,5.477 0.18671,8.4022 0.12448,2.4274 2.11612,3.7344 4.10776,3.7344 1.9294,0 3.79657,-1.1826 3.98328,-3.5476 l 0.37343,-4.2945 c 0.37344,-4.0455 0.49792,-8.7757 0.49792,-14.2527 0,-2.2406 0,-4.6057 -0.0622,-7.0952 1.05806,-7.9043 2.80074,-14.066 5.35253,-18.4849 2.2406,-3.8588 4.66791,-5.7882 7.2197,-5.7882 2.98746,0 6.22387,2.5518 9.70925,7.7176 3.17417,4.7301 5.35253,11.0785 6.53507,19.1073 -0.24896,3.0497 -0.3112,6.3483 -0.3112,9.7715 0,4.1077 0.12448,8.4644 0.43567,13.1323 0.24896,2.3651 2.17836,3.6099 4.10776,3.6099 1.86717,0 3.73433,-1.1203 3.98328,-3.4231 0.56015,-4.3568 0.74687,-8.1533 0.74687,-11.6387 0,-4.1078 -0.3112,-7.8421 -0.80911,-11.6386 0.68463,-8.0288 2.2406,-15.373 5.85045,-21.7214 2.24059,-3.921 5.10358,-5.8504 8.15328,-5.8504 2.7385,0 5.60149,1.6182 8.21551,4.7924 3.98329,4.8546 6.4106,12.1988 6.4106,21.4101 0,7.2197 -1.99164,14.9373 -6.03716,23.0906 -1.55597,3.1119 1.18253,5.726 3.60985,5.726 1.49373,0 2.92522,-0.6847 3.67208,-2.1162 4.54343,-9.2735 6.84627,-18.1737 6.84627,-26.7626 0,-11.0785 -2.98746,-20.0409 -7.96656,-26.0781 -4.10776,-5.0413 -9.33582,-8.34 -14.87507,-8.34 -2.86298,0 -5.78821,0.9336 -8.71343,2.9875 -4.29447,3.0497 -7.65537,8.1533 -10.02044,15.2485 -3.79656,-8.5267 -10.70507,-16.9912 -19.85417,-16.9912 z m 105.80591,-3.5476 c -0.49791,-0.1867 -0.99582,-0.249 -1.49373,-0.1867 -7.34418,0.3112 -13.87925,3.1119 -19.66745,8.4022 -5.78821,5.2903 -9.21134,12.0121 -10.39388,20.2898 -0.24895,1.7427 -0.37343,3.4232 -0.37343,5.0414 0,6.3483 1.80492,12.1988 5.2903,17.6136 5.22805,7.9665 13.69252,14.0037 25.95356,14.0037 6.59731,0 12.88343,-1.9917 17.80029,-5.1658 7.65537,-4.9169 13.81701,-14.315 13.81701,-25.7046 0,-7.6554 -1.99164,-13.8793 -5.53925,-18.9829 -6.59731,-9.5847 -15.06179,-14.6883 -25.39342,-15.3107 z m 22.77939,33.8579 c 0,4.5434 -1.18254,9.1491 -3.60985,12.9456 -3.60985,5.726 -11.14074,10.3317 -19.66745,10.3317 -2.92522,0 -5.91268,-0.4979 -8.96238,-1.7427 -7.28194,-2.9252 -14.4394,-11.0785 -14.4394,-21.7213 0,-13.9415 9.70925,-25.02 22.4682,-25.7669 0.31119,0.1245 0.68462,0.1867 0.99582,0.1867 11.70089,0.7469 23.21506,11.3275 23.21506,25.7669 z m 52.46727,-33.8579 c -0.49791,-0.1867 -0.99582,-0.249 -1.49373,-0.1867 -7.34417,0.3112 -13.87924,3.1119 -19.66745,8.4022 -5.7882,5.2903 -9.21133,12.0121 -10.39387,20.2898 -0.24896,1.7427 -0.37343,3.4232 -0.37343,5.0414 0,6.3483 1.80492,12.1988 5.29029,17.6136 5.22806,7.9665 13.69253,14.0037 25.95357,14.0037 6.59731,0 12.88342,-1.9917 17.80029,-5.1658 7.65536,-4.9169 13.817,-14.315 13.817,-25.7046 0,-7.6554 -1.99164,-13.8793 -5.53925,-18.9829 -6.59731,-9.5847 -15.06178,-14.6883 -25.39342,-15.3107 z m 22.77939,33.8579 c 0,4.5434 -1.18253,9.1491 -3.60985,12.9456 -3.60984,5.726 -11.14073,10.3317 -19.66745,10.3317 -2.92522,0 -5.91268,-0.4979 -8.96238,-1.7427 -7.28193,-2.9252 -14.43939,-11.0785 -14.43939,-21.7213 0,-13.9415 9.70925,-25.02 22.46819,-25.7669 0.3112,0.1245 0.68463,0.1867 0.99582,0.1867 11.70089,0.7469 23.21506,11.3275 23.21506,25.7669 z m 24.7088,-33.4222 c -2.05388,0 -4.17,1.5559 -4.17,3.9832 0,1.0581 0.56015,2.1162 1.49373,3.2987 1.05806,1.307 2.2406,4.2945 3.54761,9.0869 1.30701,4.7923 2.05388,11.9498 2.2406,21.4723 -0.80911,5.1659 -1.24478,10.7673 -1.24478,16.8667 0,1.805 0.0622,3.6099 0.12448,5.4771 0.12448,2.4895 2.11612,3.7343 4.10776,3.7343 1.86716,0 3.67208,-1.1203 3.92104,-3.4232 l 0.24895,-2.4273 c 0.62239,-6.0371 0.93359,-12.0743 0.93359,-18.0492 0,-0.5602 0,-1.0581 0,-1.6182 2.30283,-13.2569 9.02462,-27.6963 21.34789,-29.5012 0.99582,-0.1245 1.99164,-0.1867 2.92523,-0.1867 10.58059,0 17.73804,8.5267 19.72968,18.0492 0.43568,2.2406 0.68463,4.4812 0.68463,6.7841 0,7.7798 -2.55179,16.0576 -7.71761,25.0822 -1.80492,3.0497 0.99582,5.9749 3.60985,5.9749 1.30702,0 2.67627,-0.6224 3.42313,-1.9294 5.85045,-10.2072 8.77567,-19.9164 8.77567,-29.0655 0,-2.9252 -0.31119,-5.726 -0.87134,-8.5267 -2.67627,-12.9457 -12.57223,-24.5221 -27.57178,-24.5221 -1.36925,0 -2.7385,0.1245 -4.16999,0.3112 -9.02462,1.307 -16.24432,7.0952 -21.84581,17.2401 -1.36925,-7.5308 -3.54761,-13.0701 -6.53507,-16.6799 -0.80911,-0.9959 -1.9294,-1.4315 -2.98746,-1.4315 z"
           id="text7-6-6-0"
           aria-label="moon" /></g><g
         id="g13"
         transform="matrix(1.2160507,-0.27941153,0.27941153,1.2160507,-493.03284,198.73021)"
         style="fill:#ffffff"><path
           style="fill:#ffffff;stroke:none;stroke-width:9.72722;stroke-linecap:round;stroke-linejoin:round;stroke-dasharray:none;paint-order:markers fill stroke"
           d="m 1893.4037,2972.1959 c -26.0204,-4.0902 -49.9408,-14.6245 -96.1848,-42.3589 -14.3818,-8.6253 -36.9649,-21.0939 -50.1847,-27.7078 -37.3517,-18.6874 -49.4521,-26.3732 -60.7743,-38.6022 -12.3643,-13.3546 -16.2979,-25.7631 -16.4443,-51.8736 -0.1347,-24.0156 4.2518,-45.8749 13.3577,-66.5655 7.2319,-16.4325 16.8855,-28.8934 32.4461,-41.8816 24.286,-20.2711 53.75,-35.5837 78.599,-40.8482 14.1033,-2.9879 38.3079,-3.6936 52.981,-1.5446 27.8373,4.0769 49.6234,12.5578 73.5666,28.6381 20.4423,13.7291 32.3039,25.5081 63.3064,62.8657 7.9918,9.63 18.0311,21.3238 22.3097,25.9863 13.0631,14.2352 16.2483,22.5033 16.2206,42.1043 -0.024,16.9429 -3.8073,36.2998 -12.6343,64.6424 -5.5382,17.7828 -11.4329,28.4005 -26.4761,47.6896 -15.4533,19.815 -16.1295,20.4133 -29.9691,26.5206 -21.1272,9.3231 -38.9365,14.5086 -48.9332,14.2476 -1.8725,-0.049 -6.9063,-0.6394 -11.1863,-1.3122 z m -10.99,-62.0146 c 5.758,-2.444 13.2518,-10.2879 16.5332,-17.3056 3.1289,-6.6916 5.6431,-17.6954 5.6431,-24.6981 0,-4.4217 -0.3738,-5.6078 -2.1619,-6.8602 -5.1146,-3.5824 -7.4598,-1.0509 -9.0715,9.7922 -2.8308,19.0436 -9.5176,28.5366 -21.7465,30.8723 -4.4229,0.8448 -5.929,2.2543 -5.929,5.5486 0,5.945 6.5331,6.9799 16.7326,2.6508 z m 55.9337,-83.9758 c 6.1896,-3.0844 13.3198,-10.604 16.3645,-17.2581 2.5657,-5.6072 4.8062,-14.741 5.7172,-23.3067 0.508,-4.7771 0.3113,-5.8683 -1.3591,-7.5386 -4.2819,-4.282 -9.7249,-0.892 -9.7492,6.0719 -0.032,9.3053 -4.3919,21.7447 -9.5767,27.3253 -3.0932,3.3294 -8.944,6.4768 -12.04,6.4768 -5.1601,0 -7.9375,4.3964 -5.5709,8.8184 1.5411,2.8796 9.8601,2.5774 16.2142,-0.589 z"
           id="path11"
           transform="matrix(0.26458333,0,0,0.26458333,-437.13412,137.80141)" /><path
           style="fill:#ffffff;stroke:none;stroke-width:9.72722;stroke-linecap:round;stroke-linejoin:round;stroke-dasharray:none;paint-order:markers fill stroke"
           d="m 2051.471,2988.2289 c -21.6448,-0.9298 -47.6634,-3.0291 -47.6634,-3.8457 0,-0.3451 4.049,-1.4318 8.9977,-2.4148 13.0808,-2.5984 36.1514,-9.3565 51.7975,-15.1732 12.4678,-4.6351 14.3165,-5.0629 21.8862,-5.0648 8.7299,0 21.0382,2.4516 29.9834,5.9775 6.8651,2.706 9.4782,2.5855 11.5202,-0.531 3.725,-5.685 -0.7088,-8.343 -31.6319,-18.9631 -19.1617,-6.5808 -23.0704,-8.4069 -33.0193,-15.4267 -7.6756,-5.4157 -13.7252,-12.469 -20.6559,-24.0832 -5.1661,-8.657 -6.5729,-9.8066 -10.3744,-8.4779 -5.7633,2.0145 -3.5273,9.1099 7.9528,25.2359 6.9868,9.8143 19.0941,19.7605 29.8084,24.4876 l 3.7462,1.6528 -12.876,4.75 c -16.3216,6.021 -35.5552,11.6696 -50.4266,14.8095 -6.3815,1.3474 -12.1491,2.4498 -12.8167,2.4498 -0.6677,0 -2.3555,-2.583 -3.7509,-5.7399 -2.5192,-5.7 -8.8502,-11.7691 -12.2769,-11.7691 -2.1773,0 -1.103,-1.7482 8.1205,-13.2137 10.5322,-13.0924 19.8595,-27.2117 24.1713,-36.5896 5.8678,-12.7623 14.4376,-43.0828 17.7975,-62.9689 l 1.715,-10.1501 5.0445,-1.7429 c 18.2598,-6.3091 35.1122,-8.9961 56.7233,-9.0441 20.4104,-0.045 28.0357,1.1524 44.2589,6.9518 33.9841,12.1485 46.3942,11.9649 111.863,-1.6546 32.0645,-6.6704 44.8969,-6.3012 60.1931,1.7319 7.9663,4.1837 18.4073,13.6165 24.4592,22.0975 5.3333,7.4739 12.325,21.8182 15.7281,32.2679 2.3157,7.1106 2.4693,8.3005 1.2284,9.5129 -2.4333,2.3774 -28.9222,18.9613 -44.7045,27.9882 -42.4675,24.2899 -89.4966,44.7339 -128.292,55.7697 l -2.3245,0.6613 0.5326,-21.7518 c 0.5487,-22.4096 1.9018,-33.3767 5.6788,-46.0279 4.297,-14.3928 13.6514,-28.9914 27.3215,-42.6385 8.6426,-8.6279 9.8336,-10.9554 7.0373,-13.7518 -3.1826,-3.1825 -6.9801,-1.9251 -13.7442,4.551 -21.9159,20.9827 -32.9988,43.5698 -36.0466,73.4628 l -0.7213,7.0746 -4.3772,-7.5316 c -5.4076,-9.3044 -18.1523,-22.4039 -31.8173,-32.703 -11.7663,-8.8681 -36.5935,-25.3292 -44.2429,-29.3342 -5.2879,-2.7686 -5.4748,-2.7948 -8.0203,-1.127 -2.0612,1.3506 -2.5433,2.3428 -2.3058,4.7457 0.2736,2.7672 1.5888,3.8443 14.7552,12.0839 38.9228,24.3582 56.7552,40.3812 65.8479,59.1667 3.8848,8.0259 7.8847,21.804 9.0837,31.2897 l 0.6347,5.0215 -5.1289,1.1194 c -25.8268,5.6371 -72.2052,8.5117 -110.6694,6.8595 z"
           id="path12"
           transform="matrix(0.26458333,0,0,0.26458333,-437.13412,137.80141)" /><path
           style="fill:#ffffff;stroke:none;stroke-width:3.43909;stroke-linecap:round;stroke-linejoin:round;stroke-dasharray:none;paint-order:markers fill stroke"
           d="m 1975.4145,2981.338 c -6.9039,-1.1003 -17.3831,-2.7403 -23.2869,-3.6444 l -10.7342,-1.6438 6.0914,-2.4526 c 6.8343,-2.7517 14.5439,-6.1804 19.5863,-8.7109 l 3.3698,-1.691 3.4326,1.2897 c 4.9412,1.8566 7.5107,3.2446 8.7181,4.7093 1.1986,1.4542 3.0073,5.7524 4.3072,10.2362 0.4831,1.6664 1.0561,3.2441 1.2734,3.5059 0.2173,0.2618 0.2601,0.4594 0.095,0.4391 -0.165,-0.02 -5.9488,-0.9373 -12.8528,-2.0375 z"
           id="path13"
           transform="matrix(0.26458333,0,0,0.26458333,-437.13412,137.80141)" /></g><path
         style="fill:#ffffff;stroke:none;stroke-width:1.37;stroke-linecap:round;stroke-linejoin:round;stroke-dasharray:none;paint-order:markers fill stroke"
         id="path9-4-4-2-6-4"
         d="m -243.95892,615.15718 -84.94037,-22.15943 -92.83613,34.10845 -5.17315,-87.63074 -61.127,-77.75232 81.74319,-31.99934 55.05757,-82.16202 55.69322,67.85405 95.15445,26.9734 -47.32289,73.93545 z"
         transform="matrix(0.13559559,-0.01418768,0.01418768,0.13559559,-119.34152,957.98336)" /><path
         style="fill:#ffffff;stroke:none;stroke-width:1.37;stroke-linecap:round;stroke-linejoin:round;stroke-dasharray:none;paint-order:markers fill stroke"
         id="path9-4-4-2-6-4-4"
         d="m -243.95892,615.15718 -84.94037,-22.15943 -92.83613,34.10845 -5.17315,-87.63074 -61.127,-77.75232 81.74319,-31.99934 55.05757,-82.16202 55.69322,67.85405 95.15445,26.9734 -47.32289,73.93545 z"
         transform="matrix(0.07638453,0.05494125,-0.05494125,0.07638453,-59.659527,1056.6549)" /><path
         style="fill:#000000"
         id="path14"
         d="" /><path
         style="-inkscape-font-specification:Chilanka;fill:#ffffff;stroke-width:17.8597;stroke-opacity:0.996078"
         d="m 122.36162,1058.529 c 0,-0.3989 0,-0.7978 0,-1.1683 0,-0.8833 -0.057,-1.4532 -0.17096,-1.7951 -0.0285,-1.2823 -0.0285,-2.935 -0.0285,-4.9581 0,-3.2484 0.0285,-7.4656 0.057,-12.5946 l 0.057,-6.9812 c 0.0285,-1.1968 -0.91183,-1.8237 -1.85215,-1.8237 -0.91183,0 -1.85215,0.5984 -1.85215,1.7952 l -0.057,6.9527 c -0.0285,3.9607 -0.0285,7.1236 -0.0285,9.4887 -3.78979,-3.9608 -7.52259,-6.0694 -11.1414,-6.3543 -0.34194,-0.029 -0.71237,-0.029 -1.05431,-0.029 -3.1344,0 -5.75591,1.1683 -7.779029,3.6473 -2.479033,2.9635 -4.017743,7.2092 -4.017743,11.4834 0,8.4344 5.812902,14.3328 14.104842,14.3328 4.10323,0 7.46559,-2.1087 10.11559,-6.2689 0.057,1.6527 0.14248,2.992 0.22796,3.9608 0.0855,1.0258 0.79785,1.9661 1.79516,1.9661 1.51022,0 2.02312,-1.2253 2.02312,-2.7355 0,-2.5075 -0.39893,-6.0978 -0.39893,-8.9188 z m -13.73441,8.2919 c -6.41129,0 -10.400535,-4.3881 -10.400535,-10.7994 0,-5.585 3.162905,-11.2839 8.206455,-11.2839 0.17097,0 0.34193,0.029 0.5129,0.029 3.59032,0.3134 7.4086,3.1059 11.54033,8.4059 v 2.593 c -0.14248,0.3705 -0.34194,0.9404 -0.62689,1.7382 -2.25107,6.2118 -5.3,9.3177 -9.23226,9.3177 z m 34.42151,-25.7021 c -0.22795,-0.085 -0.45591,-0.114 -0.68387,-0.085 -3.36236,0.1425 -6.3543,1.4247 -9.0043,3.8468 -2.65,2.422 -4.21721,5.4994 -4.7586,9.2892 -0.11398,0.7979 -0.17097,1.5672 -0.17097,2.3081 0,2.9065 0.82634,5.5849 2.42204,8.064 2.39355,3.6473 6.26882,6.4113 11.88226,6.4113 3.02043,0 5.89839,-0.9119 8.14947,-2.3651 3.50484,-2.2511 6.3258,-6.5537 6.3258,-11.7683 0,-3.5048 -0.91182,-6.3543 -2.53602,-8.6908 -3.02043,-4.3882 -6.8957,-6.7248 -11.62581,-7.0097 z m 10.42904,15.5011 c 0,2.0801 -0.5414,4.1887 -1.65269,5.9269 -1.65269,2.6215 -5.10054,4.7301 -9.0043,4.7301 -1.33925,0 -2.70699,-0.228 -4.10323,-0.7979 -3.33387,-1.3392 -6.61075,-5.072 -6.61075,-9.9446 0,-6.3828 4.44516,-11.4549 10.28656,-11.7968 0.14247,0.057 0.31344,0.086 0.45591,0.086 5.35699,0.3419 10.6285,5.186 10.6285,11.7968 z m 29.77689,-12.5662 -0.19947,3.2769 c -0.0855,1.8522 -0.11397,3.6188 -0.11397,5.2715 0,0.8264 0.0285,1.6527 0.0285,2.4221 -1.0543,5.5564 -3.21989,9.3462 -6.46828,11.4263 -1.22527,0.7979 -2.36505,1.1398 -3.41936,1.1398 -2.56451,0 -4.47365,-2.1371 -5.47096,-4.8726 -0.71237,-1.9661 -1.05431,-4.2172 -1.05431,-6.7817 0,-3.3909 0.62689,-7.2946 1.85216,-11.7398 0.37043,-1.2537 -0.74086,-2.308 -1.73818,-2.308 -0.79785,0 -1.62419,0.5129 -1.85215,1.3392 -1.28226,4.8441 -1.93763,9.0898 -1.93763,12.8226 0,7.0097 2.50752,12.908 7.26613,14.6747 1.0258,0.3704 2.02312,0.5414 2.99193,0.5414 4.64463,0 8.5199,-3.8468 10.42904,-7.1236 0.62688,4.2457 1.65269,6.7247 3.07742,7.4655 1.53871,0.7979 2.96344,0 2.96344,-1.4532 0,-0.6554 -0.31344,-1.3107 -0.94032,-1.6527 -0.057,-0.057 -0.11398,-0.1709 -0.22796,-0.3704 -1.0543,-1.9661 -1.65269,-6.2118 -1.76667,-12.7941 0.34194,-1.9661 0.51291,-4.0462 0.51291,-6.2403 0,-1.5957 -0.0855,-3.2484 -0.25646,-4.9581 -0.0855,-0.8833 -0.91182,-1.6812 -1.82365,-1.6812 -0.85484,0 -1.6242,0.6554 -1.85215,1.5957 z m 14.2758,-15.2446 c -0.96882,0 -1.88064,0.7694 -1.90914,1.7667 -0.65538,15.558 -0.99731,26.5285 -0.99731,32.9113 0,2.9919 0.0855,4.9865 0.22796,5.9554 0.17096,1.0543 0.96881,1.5387 1.76666,1.5387 0.94033,0 1.90914,-0.6554 1.90914,-1.7667 0,-0.086 0,-0.1995 -0.0285,-0.3134 -0.14247,-0.8549 -0.19946,-2.6215 -0.19946,-5.3 0,-6.1549 0.34193,-17.0968 0.99731,-32.8543 0.057,-1.0259 -0.82635,-1.9377 -1.76667,-1.9377 z m 32.65485,22.0549 c -0.37043,-3.9323 -1.90914,-6.6393 -4.70162,-8.121 -1.5672,-0.8264 -3.24838,-1.2538 -5.04355,-1.2538 -1.42473,0 -2.90645,0.2565 -4.44516,0.7694 -4.01774,1.2822 -7.03817,3.8752 -9.0043,7.7505 -1.33925,2.65 -2.02312,5.414 -2.02312,8.3205 0,4.5021 1.33925,8.0069 3.64731,10.1725 1.28226,1.1968 3.10592,2.1086 5.27151,2.1086 0.74086,0 1.51021,-0.1139 2.33656,-0.3419 1.33925,-0.1425 2.6215,-0.7124 3.87527,-1.7097 2.05161,-1.6527 3.98925,-3.9322 5.8129,-6.8672 0.0285,3.3339 0.34194,6.1264 0.94032,8.3204 0.25646,0.9404 0.96882,1.3393 1.70968,1.3393 0.94033,0 1.93764,-0.6839 1.93764,-1.7382 0,-0.1709 -0.0285,-0.3419 -0.0855,-0.5414 -0.54139,-2.0516 -0.82634,-4.7016 -0.82634,-8.007 0,-2.365 0.14247,-5.0435 0.42742,-8.0355 0.17097,-0.5698 0.25645,-1.0543 0.25645,-1.5102 0,-0.2279 -0.0285,-0.4559 -0.0855,-0.6553 z m -3.70431,0.2564 c -0.0285,0.3989 -0.0855,0.7979 -0.11397,1.1683 -1.76667,5.2715 -5.52796,10.8564 -8.37742,13.1075 -0.96882,0.7694 -1.5957,1.1398 -1.90914,1.1683 -0.82635,0.086 -1.42474,0.3134 -2.1656,0.3134 -1.08279,0 -2.05161,-0.3989 -2.90645,-1.1967 -1.36774,-1.2823 -2.33656,-4.0178 -2.33656,-7.2947 0,-2.3365 0.56989,-4.6446 1.76667,-6.9811 1.42473,-2.7925 3.64731,-4.6447 6.69624,-5.6135 1.25376,-0.3989 2.39355,-0.5984 3.41935,-0.5984 3.50484,0 5.58495,2.2796 5.92688,5.9269 z"
         id="text1"
         aria-label="doula" /></g></g></svg>
