<?xml version="1.0" encoding="UTF-8" standalone="no"?>
<!-- Created with Inkscape (http://www.inkscape.org/) -->

<svg
   width="331.67603mm"
   height="331.37772mm"
   viewBox="0 0 331.67603 331.37771"
   version="1.1"
   id="svg1"
   xml:space="preserve"
   inkscape:version="1.3.2 (091e20e, 2023-11-25)"
   sodipodi:docname="logo-alt.svg"
   inkscape:export-filename="logo2.svg"
   inkscape:export-xdpi="96"
   inkscape:export-ydpi="96"
   xmlns:inkscape="http://www.inkscape.org/namespaces/inkscape"
   xmlns:sodipodi="http://sodipodi.sourceforge.net/DTD/sodipodi-0.dtd"
   xmlns="http://www.w3.org/2000/svg"
   xmlns:svg="http://www.w3.org/2000/svg"><sodipodi:namedview
     id="namedview1"
     pagecolor="#ffffff"
     bordercolor="#000000"
     borderopacity="0.25"
     inkscape:showpageshadow="2"
     inkscape:pageopacity="0.0"
     inkscape:pagecheckerboard="0"
     inkscape:deskcolor="#d1d1d1"
     inkscape:document-units="mm"
     inkscape:zoom="0.12850535"
     inkscape:cx="23.345332"
     inkscape:cy="653.66928"
     inkscape:window-width="1854"
     inkscape:window-height="1011"
     inkscape:window-x="0"
     inkscape:window-y="0"
     inkscape:window-maximized="1"
     inkscape:current-layer="g5" /><defs
     id="defs1"><clipPath
       clipPathUnits="userSpaceOnUse"
       id="clipPath6"><circle
         style="display:none;fill:#800000;stroke:none;stroke-width:1.20162;stroke-linecap:round;stroke-linejoin:round;stroke-dasharray:none;paint-order:markers fill stroke"
         id="circle6"
         cx="-134.84392"
         cy="439.38782"
         r="90.150963" /></clipPath><inkscape:path-effect
       effect="powerclip"
       id="path-effect6"
       is_visible="true"
       lpeversion="1"
       inverse="true"
       flatten="false"
       hide_clip="false"
       message="Use fill-rule evenodd on &lt;b&gt;fill and stroke&lt;/b&gt; dialog if no flatten result after convert clip to paths." /><inkscape:path-effect
       effect="powerclip"
       id="path-effect6-7"
       is_visible="true"
       lpeversion="1"
       inverse="true"
       flatten="false"
       hide_clip="false"
       message="Use fill-rule evenodd on &lt;b&gt;fill and stroke&lt;/b&gt; dialog if no flatten result after convert clip to paths." /><clipPath
       clipPathUnits="userSpaceOnUse"
       id="clipath_lpe_path-effect6-7"><circle
         style="display:none;fill:#800000;stroke:none;stroke-width:1.20162;stroke-linecap:round;stroke-linejoin:round;stroke-dasharray:none;paint-order:markers fill stroke"
         id="circle10"
         cx="-134.84392"
         cy="439.38782"
         r="90.150963" /></clipPath><inkscape:path-effect
       effect="powerclip"
       id="path-effect6-7-8"
       is_visible="true"
       lpeversion="1"
       inverse="true"
       flatten="false"
       hide_clip="false"
       message="Use fill-rule evenodd on &lt;b&gt;fill and stroke&lt;/b&gt; dialog if no flatten result after convert clip to paths." /><clipPath
       clipPathUnits="userSpaceOnUse"
       id="clipath_lpe_path-effect6-7-8"><circle
         style="display:none;fill:#800000;stroke:none;stroke-width:1.20162;stroke-linecap:round;stroke-linejoin:round;stroke-dasharray:none;paint-order:markers fill stroke"
         id="circle15"
         cx="-134.84392"
         cy="439.38782"
         r="90.150963" /></clipPath></defs><g
     inkscape:label="Layer 1"
     inkscape:groupmode="layer"
     id="layer1"
     transform="translate(-194.4828,-1317.8336)"><g
       id="g5"
       transform="translate(437.13412,-137.80141)"><g
         id="g17" /><path
         style="fill:#000000"
         id="path14"
         d="" /><path
         style="fill:#d0b49f;stroke-width:0.250767;fill-opacity:1"
         d="m -82.197879,1786.9857 c 0.11778,-0.015 0.32677,-0.015 0.46444,0 0.13765,0.014 0.0413,0.026 -0.21415,0.027 -0.25546,0 -0.36808,-0.012 -0.25029,-0.026 z m -1.65873,-0.066 c 0.11779,-0.015 0.3268,-0.015 0.46445,0 0.13767,0.014 0.0413,0.026 -0.21416,0.027 -0.25543,0 -0.36807,-0.012 -0.25029,-0.026 z m -1.39183,-0.067 c 0.15508,-0.014 0.40888,-0.014 0.56395,0 0.1551,0.014 0.0282,0.025 -0.28196,0.025 -0.3102,0 -0.43708,-0.012 -0.28199,-0.025 z m -1.12619,-0.066 c 0.15608,-0.014 0.39493,-0.014 0.5308,0 0.13589,0.014 0.008,0.026 -0.28374,0.026 -0.29192,-2e-4 -0.40311,-0.012 -0.24706,-0.026 z m -1.57752,-0.064 c -7.55221,-0.5742 -13.718741,-1.3686 -19.970981,-2.5726 -17.81398,-3.4305 -34.47306,-9.5324 -50.32547,-18.4333 -5.55157,-3.1171 -11.50811,-6.9635 -16.81937,-10.8609 -6.71279,-4.9259 -13.79562,-11.0389 -19.57285,-16.893 -0.85213,-0.8635 -0.58838,-0.6245 0.86253,0.7813 4.37698,4.2411 7.60227,7.1244 11.64418,10.4095 20.05392,16.299 43.95551,27.935 69.28018,33.7276 7.99076,1.8278 16.576581,3.138 24.370981,3.7191 0.74809,0.056 1.46465,0.1116 1.59237,0.1242 0.30142,0.03 -0.67012,0.028 -1.06157,0 z m 7.53057,-2.3207 c -12.16095,-0.4049 -23.242131,-1.9323 -34.833091,-4.8014 -23.18339,-5.7386 -45.24025,-16.5792 -63.82739,-31.3699 -20.04505,-15.9509 -35.57177,-35.8093 -45.85089,-58.6425 -5.99335,-13.3132 -10.16375,-26.6583 -12.52981,-40.095 -0.29425,-1.6711 -0.71591,-4.388 -0.68569,-4.4182 0.0128,-0.013 0.13727,0.3714 0.27637,0.8539 1.08042,3.7472 2.84314,8.828 4.48222,12.9195 5.7072,14.2463 13.49737,27.3062 23.35021,39.1457 2.62412,3.1532 7.17158,8.1395 7.17158,7.8636 0,-0.081 0.78048,0.6493 2.20609,2.0628 3.89839,3.8654 7.4104,7.0015 11.59444,10.3534 11.60975,9.3008 24.53759,16.8065 38.38269,22.2843 14.17373,5.6078 28.9666,8.928 44.02235,9.8807 5.65494,0.3578 11.838491,0.358 17.516071,0 16.93884,-1.0666 33.57898,-5.179 49.33364,-12.1921 13.66064,-6.0809 26.30434,-14.2058 37.7206202,-24.2395 4.00775,-3.5224 8.68405,-8.1449 12.2588498,-12.1179 7.87951,-8.7572 14.60742,-18.2784 20.21692,-28.6106 1.6081,-2.962 3.7915,-7.4409 5.2204,-10.7088 5.5524,-12.6982 9.184,-25.9063 11.0294,-40.1143 1.1184,-8.61 1.3476,-15.7189 0.7616,-23.6201 -1.8625,-25.1137 -7.4595,-45.4269 -17.4303,-63.26 -5.2364,-9.3653 -11.7124,-18.5237 -18.86294,-26.6757 -3.8492398,-4.3883 -8.4982298,-9.0645 -12.9333398,-13.0089 -11.2441202,-10.0002 -24.1135402,-18.3319 -37.3211402,-24.1619 -13.04816,-5.7596 -26.95182,-9.5857 -41.40156,-11.3932 -4.7162,-0.5899 -10.97338,-1.0424 -14.82894,-1.0724 l -1.09477,-0.01 0.96207,-0.1231 c 3.04496,-0.3898 7.76403,-0.7773 12.20817,-1.0025 2.27036,-0.115 11.72497,-0.1154 13.90004,0 4.161,0.2198 7.17055,0.4591 10.64284,0.8463 30.59643,3.411 60.1784902,15.5981 84.08387,34.6407 7.6594,6.1013 14.5987,12.7923 21.1407,20.3843 13.1394,15.2483 22.8003,31.4255 29.5242,49.4383 8.5154,22.8123 11.8517,47.3992 9.7593,71.9219 -1.9245,22.5571 -8.4639,44.5354 -19.0697,64.0929 -9.4125,17.3568 -21.8339,32.6501 -37.1885,45.7865 -7.1925,6.1534 -15.3045,12.0168 -22.9822498,16.6115 -13.76365,8.2368 -29.5202702,14.5397 -46.0203802,18.4088 -10.33447,2.4233 -20.19115,3.7338 -30.98483,4.1193 -1.58938,0.057 -8.42071,0.072 -9.91912,0.022 z m -16.77576,-36.4217 c 0.39802,-0.2782 2.38765,-1.8352 3.05371,-2.3897 l 0.75937,-0.6322 1.20662,0.1738 c 1.87734,0.2704 2.72967,0.5184 3.21773,0.9362 0.15154,0.1297 0.50389,0.539 0.78305,0.9096 l 0.50752,0.6737 -0.19116,0.046 c -0.467,0.1137 -6.71367,0.3917 -8.65064,0.385 -0.75875,0 -0.81717,-0.011 -0.6862,-0.1029 z m -8.868011,-0.1312 c -29.93709,-1.8512 -58.55902,-13.1106 -82.27235,-32.3647 -4.05969,-3.2963 -7.08128,-6.0445 -11.37016,-10.3415 l -3.04341,-3.0492 0.0443,-0.5404 c 0.50098,-6.1076 1.87872,-11.1222 4.2683,-15.5351 3.51126,-6.4845 10.38018,-14.1866 17.33296,-19.4355 3.29395,-2.4868 6.66437,-4.5164 9.48785,-5.7135 3.86778,-1.64 9.55374,-3.1906 14.09908,-3.8451 3.78803,-0.5454 8.70163,-0.6194 12.938,-0.1949 8.31723,0.8335 18.01259,4.2262 25.57742,8.9502 3.54857,2.2159 6.83891,4.5744 14.86211,10.653 2.67445,2.0262 6.368791,4.7629 7.696431,5.7013 3.03916,2.1482 3.83575,2.7836 5.01555,4.0008 1.87082,1.9302 2.90667,3.8907 3.8081,7.2076 1.62742,5.9883 1.9629,12.2326 1.22484,22.7984 -0.47876,6.8537 -1.51511,10.4773 -5.34654,18.6937 -2.3534,5.0468 -3.13469,6.3921 -4.49886,7.7462 -0.96487,0.9578 -3.18757,2.6613 -6.003221,4.6009 l -1.12256,0.7734 -0.63567,-0.01 c -0.34964,0 -1.2776,-0.048 -2.06218,-0.097 z m -22.30659,-11.9406 c 0.90782,-0.3035 2.29614,-1.1066 3.11876,-1.8041 1.3824,-1.1721 3.00368,-3.9397 3.55652,-6.0712 0.66584,-2.5671 0.63276,-6.9684 -0.0707,-9.403 -0.28918,-1.0009 -0.56908,-1.3093 -1.41146,-1.5552 -0.79684,-0.2326 -1.29671,-0.077 -1.57958,0.4925 -0.31115,0.6262 -0.32647,1.0731 -0.17609,5.1415 0.0936,2.5321 -0.28577,4.7653 -1.0818,6.3684 -0.78806,1.5871 -1.81871,2.5651 -3.66887,3.4815 -0.97704,0.4839 -1.27001,0.7051 -1.46335,1.1044 -0.29337,0.6061 -0.0298,1.7161 0.50422,2.1234 0.52172,0.3979 1.31873,0.4406 2.27232,0.1218 z m 11.51347,-31.1091 c 1.6751,-0.4249 3.30182,-1.5551 4.4887,-3.1187 1.58642,-2.0899 2.43647,-4.135 2.73198,-6.5728 0.11776,-0.9714 0.11853,-4.562 0,-5.6728 -0.2592,-2.4543 -0.41169,-2.8446 -1.28097,-3.2795 -1.02014,-0.5104 -1.93278,-0.2086 -2.39302,0.7914 -0.1316,0.286 -0.15251,0.4371 -0.15136,1.0948 0,0.4435 0.0489,1.0067 0.1148,1.3449 0.52202,2.6758 0.10949,6.4437 -0.94599,8.6406 -0.39604,0.8243 -1.04081,1.6291 -1.85698,2.3179 -0.65244,0.5506 -1.17905,0.8693 -1.70473,1.0317 -1.01618,0.314 -1.50122,0.7654 -1.68011,1.5637 -0.14976,0.6682 0.24281,1.5927 0.79442,1.8708 0.40416,0.2038 1.04743,0.1997 1.88203,-0.012 z m 32.610421,41.2787 c -0.15793,-0.1198 -0.55467,-0.5453 -0.88167,-0.9455 -1.11942,-1.37 -2.1422,-2.2433 -3.32015,-2.8348 -0.64442,-0.3236 -1.10438,-0.4472 -1.66356,-0.4472 -0.38363,0 -0.48682,-0.022 -0.52052,-0.1096 -0.0977,-0.2546 0.33981,-1.332 1.6529,-4.0704 3.11515,-6.4965 4.93043,-11.4514 5.56655,-15.1938 0.6398,-3.7642 0.99494,-9.2661 0.99572,-15.4261 0,-3.6277 -0.0538,-5.2748 -0.26494,-8.0366 l -0.0412,-0.5391 1.1517,-0.7175 c 6.50669,-4.0535 12.09472,-6.1874 20.85006,-7.9618 2.96374,-0.6007 4.05247,-0.7185 6.67521,-0.7223 2.21836,0 2.34409,0.01 5.57329,0.3631 3.78399,0.4196 6.76047,0.5553 8.85755,0.4038 6.06928,-0.4385 11.08002,-2.156 25.47786,-8.7329 3.98125,-1.8186 5.9267502,-2.645 7.9593902,-3.381 4.77615,-1.7294 7.89922,-2.0669 11.69415,-1.2641 2.91466,0.6167 6.4864798,2.3895 9.5067098,4.7188 1.29987,1.0024 4.48616,4.323 4.47495,4.6636 -0.008,0.2411 -3.41353,4.8457 -5.67354,7.6709 -2.21096,2.7639 -4.2820398,5.1779 -6.8331398,7.9648 -1.52348,1.6643 -6.43826002,6.5794 -8.19051,8.1912 -5.79414,5.3294 -11.5974602,9.9021 -18.0136702,14.1937 -3.33487,2.2306 -7.46402,4.7808 -7.56307,4.671 -0.0561,-0.062 -0.91081,-4.3917 -1.15694,-5.8605 -0.56774,-3.3881 -0.76725,-5.4925 -0.76742,-8.0945 -2.3e-4,-3.4395 0.35631,-5.8956 1.29574,-8.9264 0.95023,-3.0656 2.30604,-5.929 4.4914,-9.4854 0.47089,-0.7663 1.04808,-1.7814 1.28265,-2.2558 0.64695,-1.3085 0.6865,-1.8143 0.17982,-2.3003 -0.38079,-0.3653 -0.77998,-0.5406 -1.24548,-0.5471 -1.00831,-0.014 -1.91997,0.8598 -3.54451,3.397 -3.00449,4.6924 -4.89414,9.4758 -5.6753,14.3663 -0.33686,2.1089 -0.39967,3.0169 -0.40022,5.7849 0,2.7439 0.0336,3.3016 0.36912,6.02 0.10688,0.866 0.19432,1.6253 0.19432,1.6872 0,0.066 -0.25079,-0.1578 -0.61089,-0.5462 -2.23977,-2.4158 -3.40223,-3.4252 -5.85811,-5.0868 -3.57638,-2.4198 -6.88081,-4.0814 -12.8137,-6.4436 -6.16509,-2.4546 -11.68923,-4.3608 -13.12745,-4.5298 -0.49181,-0.058 -0.65796,0 -1.04572,0.3595 -0.71524,0.6642 -0.85991,1.1441 -0.57471,1.9064 0.32617,0.8717 0.7047,1.0543 6.17661,2.978 6.08791,2.1404 10.01993,3.7322 13.62219,5.5147 6.43302,3.1832 10.17756,6.2842 13.01717,10.78 0.84922,1.3445 2.13182,3.6239 2.06822,3.6757 -0.25917,0.2108 -5.62279,2.9121 -7.73281,3.8944 -10.1565,4.7281 -20.67616,8.211 -31.53669,10.4411 -1.53246,0.3147 -4.33427,0.8342 -4.46923,0.8287 -0.0416,0 0.0737,-0.08 0.2561,-0.174 0.70549,-0.3636 3.43852,-1.8645 4.54487,-2.496 2.75217,-1.571 4.99645,-2.9424 7.89551,-4.8248 2.5907,-1.6822 3.4571,-2.105 5.20838,-2.5415 1.86116,-0.464 3.32662,-0.6378 5.80549,-0.6887 1.95423,-0.04 3.16578,0.023 4.87664,0.2546 1.31126,0.1774 2.45761,0.1534 2.86315,-0.06 0.80835,-0.4251 1.22169,-1.7855 0.73603,-2.4222 -0.0949,-0.1245 -0.37741,-0.3339 -0.62772,-0.4655 -1.251,-0.6573 -3.70741,-1.0765 -10.76745,-1.8376 -5.50655,-0.5935 -7.17322,-0.8743 -9.25331,-1.5589 -1.78335,-0.587 -3.35177,-1.2406 -4.51402,-1.8812 -2.08079,-1.1468 -3.44032,-2.2403 -6.36895,-5.1226 -1.99858,-1.967 -2.41104,-2.3108 -2.94029,-2.4507 -0.5743,-0.1518 -1.47553,0.3145 -1.7924,0.9274 -0.45143,0.8732 0.27898,2.2389 2.32696,4.3507 2.80666,2.8943 5.02652,4.5723 8.05149,6.086 2.2079,1.1049 4.33561,1.8355 6.51552,2.2373 0.44892,0.083 0.79227,0.1732 0.76301,0.2009 -0.12238,0.1159 -4.61516,3.0308 -5.99139,3.8871 -5.33742,3.3213 -10.65623,6.1443 -15.6251,8.2931 -0.62037,0.2683 -1.16293,0.488 -1.20571,0.4882 -0.0428,3e-4 -0.20698,-0.098 -0.36491,-0.2174 z m -112.517391,-10.315 -0.5625,-0.5806 0.58055,0.5625 c 0.3193,0.3094 0.58055,0.5706 0.58055,0.5806 0,0.048 -0.0762,-0.023 -0.5986,-0.5625 z m -1.33055,-1.3933 -0.16084,-0.1825 0.18246,0.1609 c 0.17052,0.1503 0.21288,0.204 0.16084,0.204 -0.0118,0 -0.094,-0.082 -0.18246,-0.1824 z m -27.79582,-40.4391 c -7.40411,-15.2791 -12.28262,-30.8873 -14.8601,-47.5429 -1.09648,-7.0854 -1.71211,-14.2369 -1.88303,-21.8748 -0.0285,-1.2707 -0.026,-1.3045 0.0579,-0.7962 0.0586,0.355 0.0761,0.8493 0.0527,1.4928 -0.0268,0.7371 -0.002,1.2425 0.1051,2.1608 0.0771,0.6594 0.14025,1.5551 0.14043,1.9905 0.003,3.5973 0.8265,11.8637 1.79639,18.001 1.71151,10.83 4.62271,21.7289 8.68613,32.519 1.71961,4.5663 4.12303,10.214 6.01165,14.1265 0.30672,0.6354 0.54738,1.1655 0.53481,1.1781 -0.0125,0.012 -0.30144,-0.5521 -0.64196,-1.2548 z m 312.110111,-42.353 c 0,-0.077 0.019,-0.093 0.04,-0.04 0.019,0.048 0.017,0.1051 -0.01,0.1272 -0.022,0.022 -0.038,-0.017 -0.035,-0.087 z m 0.066,-0.3981 c 0,-0.077 0.019,-0.093 0.04,-0.04 0.019,0.048 0.017,0.1051 -0.01,0.1272 -0.022,0.022 -0.038,-0.017 -0.035,-0.087 z m 0.066,-0.3317 c 0,-0.077 0.019,-0.093 0.04,-0.04 0.019,0.048 0.017,0.1051 -0.01,0.1271 -0.022,0.022 -0.038,-0.017 -0.035,-0.087 z m 0.066,-0.3981 c 0,-0.077 0.019,-0.093 0.04,-0.04 0.019,0.048 0.017,0.1051 -0.01,0.1271 -0.022,0.022 -0.038,-0.017 -0.035,-0.087 z m 0.072,-0.3594 c 0,-0.091 0.015,-0.1286 0.034,-0.083 0.018,0.046 0.018,0.1203 0,0.1659 -0.018,0.046 -0.034,0.01 -0.034,-0.083 z m 0.061,-0.3705 c 0,-0.077 0.019,-0.093 0.04,-0.04 0.019,0.048 0.017,0.1052 -0.01,0.1272 -0.022,0.022 -0.038,-0.017 -0.035,-0.087 z m 0.066,-0.3981 c 0,-0.077 0.019,-0.093 0.04,-0.04 0.019,0.048 0.017,0.1051 -0.01,0.1271 -0.022,0.022 -0.038,-0.017 -0.035,-0.087 z m 0.066,-0.3981 c 0,-0.077 0.019,-0.093 0.04,-0.04 0.019,0.048 0.017,0.1051 -0.01,0.1271 -0.022,0.022 -0.038,-0.017 -0.035,-0.087 z m 0.066,-0.3981 c 0,-0.077 0.019,-0.093 0.04,-0.04 0.019,0.048 0.017,0.1051 -0.01,0.1271 -0.022,0.022 -0.038,-0.017 -0.035,-0.087 z m 0.072,-0.4257 c 0,-0.091 0.015,-0.1285 0.034,-0.083 0.018,0.046 0.018,0.1202 0,0.1658 -0.018,0.046 -0.034,0.01 -0.034,-0.083 z m 0.066,-0.3981 c 0,-0.091 0.015,-0.1285 0.034,-0.083 0.018,0.046 0.018,0.1202 0,0.1659 -0.018,0.046 -0.034,0.01 -0.034,-0.083 z m 0.066,-0.3981 c 0,-0.091 0.015,-0.1285 0.034,-0.083 0.018,0.046 0.018,0.1202 0,0.1659 -0.018,0.046 -0.034,0.01 -0.034,-0.083 z m 0.069,-0.4312 c 0,-0.1095 0.016,-0.1463 0.033,-0.082 0.017,0.065 0.016,0.1541 0,0.199 -0.018,0.045 -0.032,-0.01 -0.03,-0.1173 z m 0.064,-0.4313 c 0,-0.091 0.015,-0.1285 0.034,-0.083 0.018,0.046 0.018,0.1202 0,0.1658 -0.018,0.046 -0.034,0.01 -0.034,-0.083 z m 0.069,-0.4313 c 0,-0.1094 0.016,-0.1462 0.033,-0.082 0.017,0.064 0.016,0.1541 0,0.199 -0.018,0.045 -0.032,-0.01 -0.031,-0.1174 z m 0.066,-0.4644 c 0,-0.1095 0.016,-0.1462 0.033,-0.082 0.017,0.065 0.016,0.1542 0,0.1991 -0.018,0.045 -0.032,-0.01 -0.031,-0.1174 z m 0.066,-0.4644 c 0,-0.1095 0.016,-0.1463 0.033,-0.082 0.017,0.064 0.016,0.1541 0,0.199 -0.018,0.045 -0.032,-0.01 -0.031,-0.1173 z m 0.066,-0.4645 c 0,-0.1095 0.016,-0.1462 0.033,-0.082 0.017,0.065 0.016,0.1542 0,0.1991 -0.018,0.045 -0.032,-0.01 -0.031,-0.1174 z m 0.066,-0.4644 c 0,-0.1095 0.016,-0.1463 0.033,-0.082 0.017,0.064 0.016,0.1541 0,0.199 -0.018,0.045 -0.032,-0.01 -0.031,-0.1173 z m 0.069,-0.4977 c 0,-0.1277 0.014,-0.1799 0.03,-0.1161 0.017,0.064 0.017,0.1684 0,0.2323 -0.017,0.064 -0.03,0.012 -0.03,-0.1162 z m 0.066,-0.4644 c 0,-0.1277 0.014,-0.1799 0.03,-0.1161 0.017,0.064 0.017,0.1684 0,0.2322 -0.017,0.064 -0.03,0.012 -0.03,-0.1161 z m 0.066,-0.5308 c 0,-0.1277 0.014,-0.1799 0.03,-0.1161 0.017,0.064 0.017,0.1684 0,0.2322 -0.017,0.064 -0.03,0.012 -0.03,-0.1161 z m 0.068,-0.4976 c 0,-0.146 0.014,-0.1979 0.03,-0.1153 0.016,0.083 0.015,0.2019 0,0.2654 -0.017,0.063 -0.03,0 -0.029,-0.1501 z m 0.066,-0.5308 c 0,-0.146 0.014,-0.1978 0.03,-0.1153 0.016,0.083 0.015,0.202 0,0.2654 -0.016,0.063 -0.03,0 -0.029,-0.1501 z m 0.068,-0.5639 c 0,-0.1643 0.013,-0.2314 0.029,-0.1493 0.016,0.082 0.016,0.2164 0,0.2985 -0.016,0.082 -0.029,0.015 -0.029,-0.1492 z m 0.065,-0.564 c 0,-0.146 0.014,-0.1979 0.03,-0.1153 0.016,0.082 0.015,0.2019 0,0.2653 -0.017,0.064 -0.03,0 -0.029,-0.15 z m 0.055,-0.3981 c 0,-0.073 0.069,-0.8493 0.1584,-1.7251 0.7923,-7.7315 1.0652,-16.1281 0.7642,-23.5206 -0.033,-0.821 -0.075,-1.9407 -0.092,-2.488 -0.03,-0.9767 -0.03,-0.981 0.025,-0.2323 0.1584,2.1519 0.23,5.0169 0.2288,9.1561 0,6.2849 -0.2187,10.6788 -0.8278,16.7863 -0.1896,1.9004 -0.2456,2.3409 -0.2573,2.0236 z m 0.747,-29.2598 c 3e-4,-0.2919 0.012,-0.4031 0.026,-0.247 0.014,0.156 0.014,0.3949 0,0.5308 -0.014,0.1359 -0.026,0.01 -0.025,-0.2838 z m -0.067,-1.0284 c 0,-0.2737 0.012,-0.3856 0.026,-0.2488 0.014,0.1369 0.014,0.3608 0,0.4976 -0.014,0.1369 -0.026,0.025 -0.026,-0.2488 z m -0.068,-0.9288 c 0,-0.2372 0.012,-0.3343 0.027,-0.2157 0.015,0.1186 0.015,0.3127 0,0.4313 -0.015,0.1186 -0.027,0.022 -0.027,-0.2156 z m -0.067,-0.8957 c 0,-0.219 0.013,-0.3006 0.028,-0.1813 0.015,0.1192 0.015,0.2984 0,0.3981 -0.015,0.1 -0.027,0 -0.027,-0.2168 z m -0.067,-0.8294 c 0,-0.2007 0.012,-0.2828 0.028,-0.1825 0.015,0.1004 0.015,0.2646 0,0.365 -0.015,0.1003 -0.028,0.018 -0.028,-0.1825 z m -0.067,-0.763 c 0,-0.1825 0.013,-0.2493 0.029,-0.1484 0.015,0.1009 0.015,0.2501 0,0.3317 -0.016,0.082 -0.028,0 -0.028,-0.1833 z m -0.066,-0.7298 c 0,-0.1825 0.013,-0.2493 0.029,-0.1484 0.015,0.1008 0.015,0.2501 0,0.3317 -0.016,0.082 -0.028,0 -0.028,-0.1833 z m -0.067,-0.6967 c 0,-0.1642 0.013,-0.2314 0.029,-0.1493 0.016,0.082 0.016,0.2165 0,0.2986 -0.016,0.082 -0.029,0.015 -0.029,-0.1493 z m -0.066,-0.6635 c 0,-0.1642 0.013,-0.2314 0.029,-0.1493 0.016,0.082 0.016,0.2165 0,0.2986 -0.016,0.082 -0.029,0.015 -0.029,-0.1493 z m -0.068,-0.6303 c 0,-0.146 0.014,-0.1979 0.03,-0.1154 0.016,0.083 0.015,0.202 0,0.2655 -0.017,0.063 -0.03,0 -0.029,-0.1501 z m -0.066,-0.6635 c 0,-0.146 0.014,-0.1979 0.03,-0.1153 0.016,0.082 0.015,0.2019 0,0.2653 -0.016,0.063 -0.03,0 -0.029,-0.15 z m -0.068,-0.564 c 0,-0.1277 0.014,-0.1799 0.03,-0.1161 0.017,0.064 0.017,0.1684 0,0.2322 -0.017,0.064 -0.03,0.012 -0.03,-0.1161 z m -0.069,-0.5639 c 0,-0.1095 0.016,-0.1463 0.033,-0.082 0.017,0.065 0.016,0.1541 0,0.1991 -0.018,0.045 -0.032,-0.01 -0.031,-0.1174 z m -0.066,-0.5972 c 0,-0.1094 0.016,-0.1462 0.033,-0.082 0.017,0.064 0.016,0.1541 0,0.199 -0.018,0.045 -0.032,-0.01 -0.031,-0.1174 z m -0.066,-0.5308 c 0,-0.1094 0.016,-0.1462 0.033,-0.082 0.017,0.064 0.016,0.1541 0,0.199 -0.018,0.045 -0.032,-0.01 -0.031,-0.1174 z m -0.069,-0.5639 c 0,-0.091 0.015,-0.1286 0.034,-0.083 0.018,0.046 0.018,0.1203 0,0.1659 -0.018,0.046 -0.034,0.01 -0.034,-0.083 z m -0.072,-0.5032 c 0,-0.077 0.019,-0.093 0.04,-0.04 0.019,0.048 0.017,0.1051 -0.01,0.1271 -0.022,0.022 -0.038,-0.017 -0.035,-0.087 z m -0.061,-0.492 c 0,-0.091 0.015,-0.1286 0.034,-0.083 0.018,0.046 0.018,0.1203 0,0.1659 -0.018,0.046 -0.034,0.01 -0.034,-0.083 z m -0.072,-0.5032 c 0,-0.077 0.019,-0.093 0.04,-0.04 0.019,0.048 0.017,0.1051 -0.01,0.1272 -0.022,0.022 -0.038,-0.017 -0.035,-0.087 z m -0.066,-0.4644 c 0,-0.077 0.019,-0.093 0.04,-0.04 0.019,0.048 0.017,0.1051 -0.01,0.1271 -0.022,0.022 -0.038,-0.017 -0.035,-0.087 z m -162.45992,-62.4293 -2.58762,-3.1451 -0.36491,-0.1122 c -0.20071,-0.062 -2.21605,-0.6283 -4.47854,-1.2591 -2.67907,-0.7468 -4.10693,-1.1742 -4.09447,-1.2253 0.0105,-0.043 0.99238,-1.6149 2.18187,-3.4927 l 2.16271,-3.4141 -0.19913,-4.6229 c -0.10954,-2.5426 -0.19131,-4.6323 -0.18173,-4.6437 0.01,-0.011 1.77691,0.429 3.9274,0.9787 2.15053,0.5496 3.96889,0.9993 4.04081,0.9993 0.0719,0 2.05257,-0.7166 4.40143,-1.5924 2.34885,-0.8759 4.28593,-1.5772 4.30463,-1.5585 0.0287,0.029 0.53241,7.5013 0.53903,7.9965 0.003,0.1196 0.83367,1.2145 2.89369,3.8078 1.87762,2.3637 2.86431,3.6567 2.814,3.6878 -0.0426,0.026 -1.76474,0.7163 -3.82697,1.5332 l -3.74949,1.4854 -2.56439,3.8639 c -1.41041,2.1252 -2.57931,3.8628 -2.59756,3.8613 -0.0183,0 -1.19759,-1.4181 -2.62076,-3.1479 z m -52.945141,-38.2668 c -0.11833,-0.6738 -1.89208,-11.4886 -1.89208,-11.5362 0,-0.032 -2.10491,-2.2244 -4.67757,-4.873 -2.57267,-2.6486 -4.67725,-4.8356 -4.67683,-4.86 0,-0.024 2.3785,-1.2733 5.28461,-2.7753 l 5.2838,-2.7309 3.1145,-5.8944 c 1.71298,-3.242 3.14072,-5.9219 3.17275,-5.9554 0.0344,-0.036 1.24513,1.1155 2.96313,2.8183 1.59768,1.5835 3.50414,3.4714 4.23655,4.1952 l 1.3317,1.3161 6.46428,1.1229 c 3.55535,0.6176 6.54499,1.1403 6.64361,1.1616 l 0.17933,0.039 -2.68734,5.3321 -2.68734,5.3322 0.95446,6.6558 c 0.52496,3.6607 0.9466,6.6661 0.93694,6.6787 -0.0153,0.02 -11.33254,-1.6743 -11.66222,-1.7459 -0.0995,-0.022 -7.53928,3.5756 -11.45743,5.5397 l -0.78716,0.3946 z m 9.50744,-36.8513 c 0.0479,-0.019 0.10513,-0.017 0.12717,0.01 0.0221,0.022 -0.0171,0.038 -0.0871,0.035 -0.0773,0 -0.093,-0.019 -0.0401,-0.04 z m 0.24468,-0.057 c 0.13591,-0.052 1.66185,-0.4273 1.74165,-0.4278 0.0456,0 0.0829,0.055 0.0829,0.1221 0,0.1068 -0.10627,0.1368 -0.82186,0.2323 -0.7762,0.1034 -1.15167,0.131 -1.00271,0.073 z m 2.52123,-0.632 c 0.40812,-0.1221 4.03762,-0.9327 5.60649,-1.252 3.18509,-0.6483 7.60545,-1.4281 7.82023,-1.3796 0.0596,0.014 -0.0558,0.048 -0.25648,0.077 -0.67128,0.095 -3.0012,0.5751 -4.74393,0.9764 -4.24224,0.977 -5.64696,1.2636 -7.43107,1.5161 -0.99925,0.1415 -1.32771,0.1622 -0.99524,0.063 z m 13.9996,-2.7522 c 0.25543,-0.048 0.55399,-0.086 0.66348,-0.084 0.10948,0 -0.0248,0.043 -0.29857,0.091 -0.27368,0.048 -0.57227,0.086 -0.6635,0.084 -0.0912,0 0.0431,-0.043 0.29859,-0.091 z m 0.97864,-0.1419 c 0.0638,-0.017 0.16834,-0.017 0.23221,0 0.0639,0.017 0.0115,0.03 -0.11611,0.03 -0.12771,0 -0.17997,-0.014 -0.1161,-0.03 z m 0.46442,-0.066 c 0.0639,-0.017 0.16836,-0.017 0.23223,0 0.0639,0.017 0.0115,0.03 -0.1161,0.03 -0.12774,0 -0.17998,-0.014 -0.11613,-0.03 z m 0.613721,-0.091 c 0.14598,-0.03 0.35499,-0.053 0.46445,-0.05 0.14928,0 0.12438,0.018 -0.0995,0.058 -0.4004,0.071 -0.714241,0.065 -0.36495,-0.01 z m 0.81357,-0.1095 c 0.0825,-0.016 0.20194,-0.015 0.26538,0 0.0634,0.017 -0.004,0.03 -0.15006,0.029 -0.14597,0 -0.19785,-0.014 -0.11532,-0.03 z m 0.49684,-0.065 c 0.0639,-0.017 0.16834,-0.017 0.23221,0 0.0639,0.017 0.0115,0.03 -0.1161,0.03 -0.12772,0 -0.17998,-0.014 -0.11611,-0.03 z m 0.49837,-0.067 c 0.0825,-0.016 0.20197,-0.015 0.26542,0 0.0634,0.016 -0.004,0.03 -0.15006,0.029 -0.14597,0 -0.19788,-0.014 -0.11536,-0.03 z m 0.5308,-0.066 c 0.0825,-0.016 0.20197,-0.015 0.26539,0 0.0634,0.017 -0.004,0.03 -0.15006,0.029 -0.14597,0 -0.19786,-0.014 -0.11533,-0.03 z m 0.5308,-0.066 c 0.0825,-0.016 0.20194,-0.015 0.26539,0 0.0634,0.016 -0.004,0.03 -0.15006,0.029 -0.14597,0 -0.19788,-0.014 -0.11533,-0.03 z m 0.59713,-0.066 c 0.0825,-0.016 0.20196,-0.015 0.26538,0 0.0634,0.017 -0.004,0.03 -0.15006,0.029 -0.14594,0 -0.19785,-0.014 -0.11532,-0.03 z m 0.53079,-0.066 c 0.0825,-0.016 0.20195,-0.015 0.26539,0 0.0634,0.017 -0.004,0.03 -0.15006,0.029 -0.14597,0 -0.19785,-0.014 -0.11533,-0.03 z m 0.53002,-0.066 c 0.0821,-0.016 0.21646,-0.016 0.29857,0 0.0821,0.016 0.015,0.029 -0.14929,0.029 -0.16422,0 -0.2314,-0.013 -0.14928,-0.029 z m 0.66428,-0.066 c 0.0825,-0.016 0.20195,-0.015 0.26539,0 0.0634,0.017 -0.004,0.03 -0.15006,0.029 -0.14597,0 -0.19788,-0.014 -0.11533,-0.03 z m 0.66348,-0.066 c 0.0825,-0.016 0.20197,-0.015 0.26539,0 0.0634,0.017 -0.004,0.03 -0.15006,0.029 -0.14595,0 -0.19786,-0.014 -0.11533,-0.03 z m 0.59715,-0.066 c 0.0825,-0.016 0.20194,-0.015 0.26539,0 0.0634,0.016 -0.004,0.03 -0.15006,0.029 -0.14597,0 -0.19788,-0.014 -0.11533,-0.03 z m 0.72983,-0.066 c 0.0825,-0.016 0.20195,-0.015 0.26539,0 0.0634,0.017 -0.004,0.03 -0.15006,0.029 -0.14597,0 -0.19785,-0.014 -0.11533,-0.03 z m 0.66348,-0.066 c 0.0825,-0.016 0.20197,-0.015 0.26539,0 0.0634,0.016 -0.004,0.03 -0.15006,0.029 -0.14595,0 -0.19786,-0.014 -0.11533,-0.03 z m 0.72983,-0.066 c 0.0825,-0.016 0.20197,-0.015 0.26541,0 0.0634,0.017 -0.004,0.03 -0.15005,0.029 -0.14598,0 -0.19788,-0.014 -0.11536,-0.03 z m 0.79541,-0.066 c 0.0821,-0.016 0.21646,-0.016 0.29859,0 0.0821,0.016 0.015,0.029 -0.14928,0.029 -0.16423,0 -0.23141,-0.013 -0.14931,-0.029 z m 0.82936,-0.065 c 0.0639,-0.017 0.16836,-0.017 0.23224,0 0.0638,0.017 0.0115,0.03 -0.11611,0.03 -0.12774,0 -0.17998,-0.014 -0.11613,-0.03 z m 0.89649,-0.068 c 0.0825,-0.016 0.20197,-0.015 0.26539,0 0.0634,0.017 -0.004,0.03 -0.15006,0.029 -0.14597,0 -0.19786,-0.014 -0.11533,-0.03 z m 0.9986,-0.065 c 0.0479,-0.019 0.10512,-0.017 0.12717,0.01 0.0221,0.022 -0.0171,0.038 -0.0871,0.035 -0.0773,0 -0.093,-0.019 -0.0401,-0.04 z m 1.02551,-0.067 c 0.0646,-0.017 0.15415,-0.016 0.19906,0 0.0449,0.018 -0.008,0.032 -0.11738,0.031 -0.10946,0 -0.14622,-0.016 -0.0817,-0.033 z"
         id="path16-9" /></g></g></svg>
