<?xml version="1.0" encoding="UTF-8" standalone="no"?>
<!-- Created with Inkscape (http://www.inkscape.org/) -->

<svg
   width="482.82339mm"
   height="331.68008mm"
   viewBox="0 0 482.82339 331.68008"
   version="1.1"
   id="svg1"
   xml:space="preserve"
   sodipodi:docname="logo-txt.svg"
   inkscape:version="1.3 (1:1.3+202307231459+0e150ed6c4)"
   xmlns:inkscape="http://www.inkscape.org/namespaces/inkscape"
   xmlns:sodipodi="http://sodipodi.sourceforge.net/DTD/sodipodi-0.dtd"
   xmlns="http://www.w3.org/2000/svg"
   xmlns:svg="http://www.w3.org/2000/svg"><sodipodi:namedview
     id="namedview1"
     pagecolor="#ffffff"
     bordercolor="#000000"
     borderopacity="0.25"
     inkscape:showpageshadow="2"
     inkscape:pageopacity="0.0"
     inkscape:pagecheckerboard="0"
     inkscape:deskcolor="#d1d1d1"
     inkscape:document-units="mm"
     inkscape:zoom="0.3203013"
     inkscape:cx="610.36281"
     inkscape:cy="861.68868"
     inkscape:window-width="1850"
     inkscape:window-height="1016"
     inkscape:window-x="0"
     inkscape:window-y="0"
     inkscape:window-maximized="1"
     inkscape:current-layer="layer1" /><defs
     id="defs1" /><g
     inkscape:label="Layer 1"
     inkscape:groupmode="layer"
     id="layer1"
     transform="translate(496.54133,26.130128)"><rect
       style="fill:none;stroke:none;stroke-width:2.68936;stroke-linecap:round;stroke-linejoin:round;paint-order:markers fill stroke"
       id="rect1"
       width="482.8233"
       height="331.68008"
       x="-496.54132"
       y="-26.130127" /><g
       id="g14"
       transform="matrix(1.1805438,0,0,1.1805438,-826.55498,-1164.5649)"><path
         style="font-size:127.465px;font-family:Chilanka;-inkscape-font-specification:Chilanka;letter-spacing:0px;word-spacing:0px;fill:#ffffff;stroke-width:30.9378;stroke-linecap:round;stroke-linejoin:round;paint-order:markers fill stroke"
         d="m 344.72785,1039.0355 c -6.03716,0 -11.0785,3.7966 -14.87507,11.452 -1.18254,-4.419 -2.80074,-7.8421 -4.79238,-10.3939 -0.87135,-1.0581 -1.92941,-1.4937 -2.98747,-1.4937 -2.17835,0 -4.29447,1.8671 -4.29447,4.1077 0,0.8091 0.24895,1.6182 0.93358,2.4273 3.42313,4.2945 5.2903,12.8212 5.66373,25.7047 -0.68463,5.228 -0.99582,11.0785 -0.99582,17.4891 0,2.6762 0.0622,5.477 0.18671,8.4022 0.12448,2.4273 2.11612,3.7343 4.10776,3.7343 1.92941,0 3.79657,-1.1825 3.98328,-3.5476 l 0.37344,-4.2945 c 0.37343,-4.0455 0.49791,-8.7756 0.49791,-14.2527 0,-2.2405 0,-4.6056 -0.0622,-7.0952 1.05806,-7.9043 2.80074,-14.0659 5.35253,-18.4849 2.2406,-3.8588 4.66791,-5.7882 7.2197,-5.7882 2.98746,0 6.22388,2.5518 9.70925,7.7176 3.17417,4.7302 5.35253,11.0785 6.53507,19.1073 -0.24896,3.0497 -0.3112,6.3484 -0.3112,9.7715 0,4.1078 0.12448,8.4645 0.43568,13.1324 0.24895,2.3651 2.17835,3.6098 4.10775,3.6098 1.86717,0 3.73433,-1.1203 3.98329,-3.4231 0.56014,-4.3567 0.74686,-8.1533 0.74686,-11.6386 0,-4.1078 -0.31119,-7.8421 -0.8091,-11.6387 0.68462,-8.0288 2.24059,-15.373 5.85044,-21.7213 2.2406,-3.9211 5.10358,-5.8505 8.15328,-5.8505 2.73851,0 5.60149,1.6182 8.21552,4.7924 3.98328,4.8546 6.41059,12.1988 6.41059,21.4102 0,7.2196 -1.99164,14.9373 -6.03716,23.0905 -1.55597,3.112 1.18254,5.726 3.60985,5.726 1.49373,0 2.92522,-0.6846 3.67209,-2.1161 4.54343,-9.2736 6.84626,-18.1737 6.84626,-26.7627 0,-11.0785 -2.98746,-20.0409 -7.96656,-26.078 -4.10776,-5.0414 -9.33582,-8.34 -14.87507,-8.34 -2.86298,0 -5.7882,0.9336 -8.71343,2.9874 -4.29447,3.0497 -7.65536,8.1533 -10.02044,15.2485 -3.79656,-8.5267 -10.70507,-16.9912 -19.85416,-16.9912 z m 128.95872,17.7381 c -0.8091,-8.589 -4.17,-14.5016 -10.26939,-17.7381 -3.42314,-1.8049 -7.09522,-2.7385 -11.01627,-2.7385 -3.11193,0 -6.34835,0.5602 -9.70924,1.6805 -8.77567,2.8007 -15.37298,8.4645 -19.66745,16.9289 -2.92523,5.7882 -4.41896,11.8254 -4.41896,18.1738 0,9.8337 2.92522,17.489 7.96656,22.2192 2.80075,2.614 6.78403,4.6057 11.51418,4.6057 1.6182,0 3.29865,-0.249 5.10358,-0.7469 2.92522,-0.3112 5.72596,-1.556 8.46447,-3.7343 4.48119,-3.6099 8.71343,-8.589 12.69671,-14.9996 0.0622,7.282 0.74686,13.3814 2.05388,18.1737 0.56015,2.0539 2.11611,2.9253 3.73432,2.9253 2.05388,0 4.23224,-1.4938 4.23224,-3.7966 0,-0.3734 -0.0622,-0.7469 -0.18672,-1.1825 -1.18253,-4.4812 -1.80492,-10.2694 -1.80492,-17.4891 0,-5.1658 0.31119,-11.0163 0.93358,-17.5514 0.37343,-1.2447 0.56015,-2.3028 0.56015,-3.2986 0,-0.4979 -0.0622,-0.9958 -0.18672,-1.4315 z m -8.09104,0.5601 c -0.0622,0.8714 -0.18671,1.7427 -0.24895,2.5518 -3.85881,11.5142 -12.07432,23.713 -18.2982,28.6299 -2.11612,1.6804 -3.48537,2.4895 -4.17,2.5518 -1.80492,0.1867 -3.11194,0.6846 -4.73014,0.6846 -2.36508,0 -4.4812,-0.8714 -6.34836,-2.614 -2.98746,-2.8008 -5.10358,-8.7757 -5.10358,-15.9332 0,-5.1035 1.24478,-10.1449 3.85881,-15.2485 3.11193,-6.0994 7.96656,-10.1449 14.62611,-12.261 2.7385,-0.8713 5.22805,-1.307 7.46865,-1.307 7.65537,0 12.1988,4.9791 12.94566,12.9456 z m 48.04833,-18.2982 c -6.03716,0 -11.0785,3.7966 -14.87506,11.452 -1.18254,-4.419 -2.80075,-7.8421 -4.79239,-10.3939 -0.87134,-1.0581 -1.9294,-1.4937 -2.98746,-1.4937 -2.17836,0 -4.29448,1.8671 -4.29448,4.1077 0,0.8091 0.24896,1.6182 0.93359,2.4273 3.42313,4.2945 5.29029,12.8212 5.66372,25.7047 -0.68462,5.228 -0.99582,11.0785 -0.99582,17.4891 0,2.6762 0.0622,5.477 0.18672,8.4022 0.12448,2.4273 2.11612,3.7343 4.10776,3.7343 1.9294,0 3.79656,-1.1825 3.98328,-3.5476 l 0.37343,-4.2945 c 0.37344,-4.0455 0.49791,-8.7756 0.49791,-14.2527 0,-2.2405 0,-4.6056 -0.0622,-7.0952 1.05806,-7.9043 2.80075,-14.0659 5.35254,-18.4849 2.24059,-3.8588 4.66791,-5.7882 7.2197,-5.7882 2.98746,0 6.22387,2.5518 9.70924,7.7176 3.17418,4.7302 5.35254,11.0785 6.53507,19.1073 -0.24895,3.0497 -0.31119,6.3484 -0.31119,9.7715 0,4.1078 0.12448,8.4645 0.43567,13.1324 0.24896,2.3651 2.17836,3.6098 4.10776,3.6098 1.86716,0 3.73433,-1.1203 3.98328,-3.4231 0.56015,-4.3567 0.74687,-8.1533 0.74687,-11.6386 0,-4.1078 -0.3112,-7.8421 -0.80911,-11.6387 0.68463,-8.0288 2.2406,-15.373 5.85045,-21.7213 2.24059,-3.9211 5.10358,-5.8505 8.15327,-5.8505 2.73851,0 5.60149,1.6182 8.21552,4.7924 3.98328,4.8546 6.4106,12.1988 6.4106,21.4102 0,7.2196 -1.99165,14.9373 -6.03717,23.0905 -1.55596,3.112 1.18254,5.726 3.60985,5.726 1.49373,0 2.92523,-0.6846 3.67209,-2.1161 4.54343,-9.2736 6.84627,-18.1737 6.84627,-26.7627 0,-11.0785 -2.98747,-20.0409 -7.96657,-26.078 -4.10776,-5.0414 -9.33581,-8.34 -14.87506,-8.34 -2.86299,0 -5.78821,0.9336 -8.71343,2.9874 -4.29448,3.0497 -7.65537,8.1533 -10.02044,15.2485 -3.79657,-8.5267 -10.70507,-16.9912 -19.85417,-16.9912 z m 73.87741,-14.6261 c 0,3.5476 2.67627,6.4729 5.72597,6.4729 1.43149,0 3.0497,-0.4357 4.85462,-1.3693 3.23642,-1.1203 5.2903,-3.9833 5.2903,-7.033 0,-3.2364 -3.11194,-7.3441 -6.97075,-7.3441 -3.98328,0 -8.90014,4.6679 -8.90014,9.2735 z m 10.08268,65.4752 c 0.62239,-12.4477 0.62239,-22.4059 0.62239,-35.9117 0,-4.1078 -0.0622,-8.2778 -0.12448,-12.6968 0,-2.614 -1.9294,-3.8588 -3.92104,-3.8588 -2.05388,0 -4.10776,1.3071 -4.10776,3.9833 0.0622,3.2364 0.0622,6.6596 0.0622,10.1449 0,9.5848 0.0622,39.2727 -1.80493,43.5049 -0.18671,0.5602 -0.31119,1.1203 -0.31119,1.6182 0,2.3029 1.9294,4.1078 4.10776,4.1078 3.8588,0 5.22806,-4.2322 5.47701,-10.8918 z"
         id="text7-6-6"
         aria-label="mami" /><path
         style="font-size:127.465px;font-family:Chilanka;-inkscape-font-specification:Chilanka;letter-spacing:0px;word-spacing:0px;fill:#ffffff;stroke-width:30.9378;stroke-linecap:round;stroke-linejoin:round;paint-order:markers fill stroke"
         d="m 396.00543,1132.4291 c -6.03716,0 -11.0785,3.7966 -14.87506,11.4519 -1.18254,-4.4189 -2.80075,-7.842 -4.79239,-10.3938 -0.87134,-1.0581 -1.9294,-1.4938 -2.98746,-1.4938 -2.17835,0 -4.29447,1.8672 -4.29447,4.1078 0,0.8091 0.24895,1.6182 0.93358,2.4273 3.42313,4.2945 5.29029,12.8212 5.66373,25.7046 -0.68463,5.2281 -0.99582,11.0785 -0.99582,17.4891 0,2.6763 0.0622,5.477 0.18671,8.4022 0.12448,2.4274 2.11612,3.7344 4.10776,3.7344 1.9294,0 3.79657,-1.1826 3.98328,-3.5476 l 0.37343,-4.2945 c 0.37344,-4.0455 0.49792,-8.7757 0.49792,-14.2527 0,-2.2406 0,-4.6057 -0.0622,-7.0952 1.05806,-7.9043 2.80074,-14.066 5.35253,-18.4849 2.2406,-3.8588 4.66791,-5.7882 7.2197,-5.7882 2.98746,0 6.22387,2.5518 9.70925,7.7176 3.17417,4.7301 5.35253,11.0785 6.53507,19.1073 -0.24896,3.0497 -0.3112,6.3483 -0.3112,9.7715 0,4.1077 0.12448,8.4644 0.43567,13.1323 0.24896,2.3651 2.17836,3.6099 4.10776,3.6099 1.86717,0 3.73433,-1.1203 3.98328,-3.4231 0.56015,-4.3568 0.74687,-8.1533 0.74687,-11.6387 0,-4.1078 -0.3112,-7.8421 -0.80911,-11.6386 0.68463,-8.0288 2.2406,-15.373 5.85045,-21.7214 2.24059,-3.921 5.10358,-5.8504 8.15328,-5.8504 2.7385,0 5.60149,1.6182 8.21551,4.7924 3.98329,4.8546 6.4106,12.1988 6.4106,21.4101 0,7.2197 -1.99164,14.9373 -6.03716,23.0906 -1.55597,3.1119 1.18253,5.726 3.60985,5.726 1.49373,0 2.92522,-0.6847 3.67208,-2.1162 4.54343,-9.2735 6.84627,-18.1737 6.84627,-26.7626 0,-11.0785 -2.98746,-20.0409 -7.96656,-26.0781 -4.10776,-5.0413 -9.33582,-8.34 -14.87507,-8.34 -2.86298,0 -5.78821,0.9336 -8.71343,2.9875 -4.29447,3.0497 -7.65537,8.1533 -10.02044,15.2485 -3.79656,-8.5267 -10.70507,-16.9912 -19.85417,-16.9912 z m 105.80591,-3.5476 c -0.49791,-0.1867 -0.99582,-0.249 -1.49373,-0.1867 -7.34418,0.3112 -13.87925,3.1119 -19.66745,8.4022 -5.78821,5.2903 -9.21134,12.0121 -10.39388,20.2898 -0.24895,1.7427 -0.37343,3.4232 -0.37343,5.0414 0,6.3483 1.80492,12.1988 5.2903,17.6136 5.22805,7.9665 13.69252,14.0037 25.95356,14.0037 6.59731,0 12.88343,-1.9917 17.80029,-5.1658 7.65537,-4.9169 13.81701,-14.315 13.81701,-25.7046 0,-7.6554 -1.99164,-13.8793 -5.53925,-18.9829 -6.59731,-9.5847 -15.06179,-14.6883 -25.39342,-15.3107 z m 22.77939,33.8579 c 0,4.5434 -1.18254,9.1491 -3.60985,12.9456 -3.60985,5.726 -11.14074,10.3317 -19.66745,10.3317 -2.92522,0 -5.91268,-0.4979 -8.96238,-1.7427 -7.28194,-2.9252 -14.4394,-11.0785 -14.4394,-21.7213 0,-13.9415 9.70925,-25.02 22.4682,-25.7669 0.31119,0.1245 0.68462,0.1867 0.99582,0.1867 11.70089,0.7469 23.21506,11.3275 23.21506,25.7669 z m 52.46727,-33.8579 c -0.49791,-0.1867 -0.99582,-0.249 -1.49373,-0.1867 -7.34417,0.3112 -13.87924,3.1119 -19.66745,8.4022 -5.7882,5.2903 -9.21133,12.0121 -10.39387,20.2898 -0.24896,1.7427 -0.37343,3.4232 -0.37343,5.0414 0,6.3483 1.80492,12.1988 5.29029,17.6136 5.22806,7.9665 13.69253,14.0037 25.95357,14.0037 6.59731,0 12.88342,-1.9917 17.80029,-5.1658 7.65536,-4.9169 13.817,-14.315 13.817,-25.7046 0,-7.6554 -1.99164,-13.8793 -5.53925,-18.9829 -6.59731,-9.5847 -15.06178,-14.6883 -25.39342,-15.3107 z m 22.77939,33.8579 c 0,4.5434 -1.18253,9.1491 -3.60985,12.9456 -3.60984,5.726 -11.14073,10.3317 -19.66745,10.3317 -2.92522,0 -5.91268,-0.4979 -8.96238,-1.7427 -7.28193,-2.9252 -14.43939,-11.0785 -14.43939,-21.7213 0,-13.9415 9.70925,-25.02 22.46819,-25.7669 0.3112,0.1245 0.68463,0.1867 0.99582,0.1867 11.70089,0.7469 23.21506,11.3275 23.21506,25.7669 z m 24.7088,-33.4222 c -2.05388,0 -4.17,1.5559 -4.17,3.9832 0,1.0581 0.56015,2.1162 1.49373,3.2987 1.05806,1.307 2.2406,4.2945 3.54761,9.0869 1.30701,4.7923 2.05388,11.9498 2.2406,21.4723 -0.80911,5.1659 -1.24478,10.7673 -1.24478,16.8667 0,1.805 0.0622,3.6099 0.12448,5.4771 0.12448,2.4895 2.11612,3.7343 4.10776,3.7343 1.86716,0 3.67208,-1.1203 3.92104,-3.4232 l 0.24895,-2.4273 c 0.62239,-6.0371 0.93359,-12.0743 0.93359,-18.0492 0,-0.5602 0,-1.0581 0,-1.6182 2.30283,-13.2569 9.02462,-27.6963 21.34789,-29.5012 0.99582,-0.1245 1.99164,-0.1867 2.92523,-0.1867 10.58059,0 17.73804,8.5267 19.72968,18.0492 0.43568,2.2406 0.68463,4.4812 0.68463,6.7841 0,7.7798 -2.55179,16.0576 -7.71761,25.0822 -1.80492,3.0497 0.99582,5.9749 3.60985,5.9749 1.30702,0 2.67627,-0.6224 3.42313,-1.9294 5.85045,-10.2072 8.77567,-19.9164 8.77567,-29.0655 0,-2.9252 -0.31119,-5.726 -0.87134,-8.5267 -2.67627,-12.9457 -12.57223,-24.5221 -27.57178,-24.5221 -1.36925,0 -2.7385,0.1245 -4.16999,0.3112 -9.02462,1.307 -16.24432,7.0952 -21.84581,17.2401 -1.36925,-7.5308 -3.54761,-13.0701 -6.53507,-16.6799 -0.80911,-0.9959 -1.9294,-1.4315 -2.98746,-1.4315 z"
         id="text7-6-6-0"
         aria-label="moon" /></g></g></svg>
