<?xml version="1.0" encoding="UTF-8" standalone="no"?>
<!-- Created with Inkscape (http://www.inkscape.org/) -->

<svg
   width="171.13387mm"
   height="214.16318mm"
   viewBox="0 0 171.13387 214.16318"
   version="1.1"
   id="svg1"
   xml:space="preserve"
   inkscape:version="1.3 (1:1.3+202307231459+0e150ed6c4)"
   sodipodi:docname="shopping bag.svg"
   xmlns:inkscape="http://www.inkscape.org/namespaces/inkscape"
   xmlns:sodipodi="http://sodipodi.sourceforge.net/DTD/sodipodi-0.dtd"
   xmlns="http://www.w3.org/2000/svg"
   xmlns:svg="http://www.w3.org/2000/svg"><sodipodi:namedview
     id="namedview1"
     pagecolor="#ffffff"
     bordercolor="#000000"
     borderopacity="0.25"
     inkscape:showpageshadow="2"
     inkscape:pageopacity="0.0"
     inkscape:pagecheckerboard="0"
     inkscape:deskcolor="#d1d1d1"
     inkscape:document-units="mm"
     inkscape:zoom="0.51402139"
     inkscape:cx="1625.4187"
     inkscape:cy="243.18054"
     inkscape:window-width="1850"
     inkscape:window-height="1016"
     inkscape:window-x="0"
     inkscape:window-y="0"
     inkscape:window-maximized="1"
     inkscape:current-layer="layer1" /><defs
     id="defs1"><clipPath
       clipPathUnits="userSpaceOnUse"
       id="clipPath2"><circle
         style="display:none;fill:#ff0000;stroke-width:2.38712;stroke-linecap:round;stroke-linejoin:round;paint-order:markers fill stroke"
         id="circle2"
         cx="-191.33894"
         cy="166.84569"
         r="43.271275"
         clip-path="none"
         d="m -148.06767,166.84569 a 43.271275,43.271275 0 0 1 -43.27127,43.27127 43.271275,43.271275 0 0 1 -43.27128,-43.27127 43.271275,43.271275 0 0 1 43.27128,-43.27128 43.271275,43.271275 0 0 1 43.27127,43.27128 z" /><path
         id="lpe_path-effect2"
         style="fill:#ff0000;stroke-width:2.38712;stroke-linecap:round;stroke-linejoin:round;paint-order:markers fill stroke"
         class="powerclip"
         d="m -235.60807,114.54302 h 105.92189 v 105.92189 h -105.92189 z m 87.5404,52.30267 a 43.271275,43.271275 0 0 0 -43.27127,-43.27128 43.271275,43.271275 0 0 0 -43.27128,43.27128 43.271275,43.271275 0 0 0 43.27128,43.27127 43.271275,43.271275 0 0 0 43.27127,-43.27127 z" /></clipPath><inkscape:path-effect
       effect="powerclip"
       id="path-effect2"
       is_visible="true"
       lpeversion="1"
       inverse="true"
       flatten="false"
       hide_clip="false"
       message="Use fill-rule evenodd on &lt;b&gt;fill and stroke&lt;/b&gt; dialog if no flatten result after convert clip to paths." /></defs><g
     inkscape:label="Layer 1"
     inkscape:groupmode="layer"
     id="layer1"
     transform="translate(-475.88349,-2.0203494)"><g
       id="g7"><path
         style="fill:#000000"
         d="m 588.84335,215.94732 c -52.93217,-1.45053 -89.17382,-4.56352 -103.43331,-8.88443 -5.29476,-1.60442 -8.20241,-3.53583 -9.18113,-6.09857 -0.42752,-1.11945 -0.43848,-1.6466 -0.14136,-6.79806 0.87223,-15.12245 5.61633,-68.6713 11.24918,-126.974794 1.25812,-13.02232 1.20295,-12.77771 3.10044,-13.74526 0.81559,-0.41589 1.9027,-0.46265 10.76296,-0.46302 l 9.85573,-4.1e-4 v 3.43958 3.43958 h -7.94581 c -6.11912,0 -7.97215,0.076 -8.06043,0.33073 -0.063,0.1819 -0.71287,6.64104 -1.44407,14.35365 -6.08307,64.163784 -9.64018,104.430564 -10.57623,119.723964 -0.29734,4.85792 -0.47466,4.5459 3.288,5.78581 9.19657,3.03056 29.25998,5.45576 59.26666,7.16394 15.47353,0.88086 41.40413,1.86253 49.27864,1.86557 l 3.50573,0.001 v -1.39609 c 0,-3.92014 -5.3313,-127.966624 -6.0862,-141.611214 -0.14492,-2.61937 -0.26356,-5.14945 -0.26364,-5.6224 l -1.6e-4,-0.85989 -6.41614,4.6e-4 -6.41615,4.7e-4 0.0809,-3.44005 0.0809,-3.44005 5.21081,0.005 c 2.86595,0.003 9.18328,-0.14018 14.03851,-0.318 l 8.82769,-0.3233 -0.17746,-2.65857 c -0.25753,-3.85815 -1.12086,-9.59323 -1.99338,-13.24189 -1.82721,-7.64104 -4.57429,-12.96909 -8.68707,-16.84888 -2.27727,-2.14826 -4.466,-3.39976 -7.59123,-4.34063 -2.15285,-0.64812 -2.77459,-0.71625 -6.48229,-0.71031 -4.09143,0.007 -5.04731,0.15811 -9.68595,1.53565 -0.4599,0.13657 -0.6878,-0.0587 -1.29817,-1.11217 -0.40718,-0.70281 -1.25748,-1.96377 -1.88956,-2.80214 -0.63208,-0.83837 -1.14923,-1.56985 -1.14923,-1.62551 0,-0.16022 3.15688,-1.3712101 4.82208,-1.8497701 2.38675,-0.68593 6.44888,-1.2149597 9.33313,-1.2154997 14.95848,-0.003 25.05782,9.3981098 29.36843,27.3374498 1.07345,4.46734 1.91048,10.00438 2.15084,14.22805 l 0.17478,3.07123 7.70089,0.15289 c 4.66927,0.0927 8.1163,0.2755 8.75613,0.46434 2.31546,0.6834 3.17007,2.49838 4.35434,9.24759 3.61639,20.60998 11.0218,100.848414 11.81883,128.058344 0.19795,6.75805 0.0126,8.24094 -1.27295,10.1817 -3.1426,4.74446 -15.81101,9.75738 -38.12979,15.08805 -5.61015,1.33994 -4.6085,1.29147 -18.7038,0.9052 z m 29.34352,-27.101 c 2.51543,-4.9477 4.66669,-9.09439 4.78057,-9.21484 0.11389,-0.12046 3.02675,2.30323 6.47304,5.38598 3.44628,3.08275 6.30117,5.56256 6.34418,5.51068 0.043,-0.0519 -2.52836,-3.63013 -5.71417,-7.95168 l -5.79237,-7.85737 -4.0252,-50.88013 c -2.21385,-27.984084 -4.06704,-50.583234 -4.11819,-50.220344 -0.0512,0.3629 1.01045,23.75868 2.3591,51.990634 l 2.45211,51.33082 -3.99502,10.71563 c -2.19725,5.89359 -4.07519,10.95375 -4.17319,11.24479 -0.41809,1.24167 1.11583,-1.60948 5.40914,-10.05417 z M 616.02071,70.779636 c -0.0608,-0.40218 -0.1122,-0.13593 -0.11418,0.59168 -0.002,0.7276 0.0478,1.05666 0.11057,0.73124 0.0628,-0.32542 0.0644,-0.92073 0.004,-1.32292 z m -43.78875,4.54437 c -1.1353,-0.7952 -1.44445,-1.8145 -1.1448,-3.77446 1.12288,-7.34444 1.5819,-23.17357 0.86834,-29.94386 -1.81674,-17.23704 -6.90378,-27.87413 -15.24732,-31.8824301 -3.3228,-1.59629 -5.78796,-2.0965297 -10.19816,-2.06941 -7.42859,0.0457 -12.50817,2.00553 -17.12485,6.6072701 -4.54746,4.53276 -7.74065,11.30592 -9.60743,20.37864 -1.859,9.03487 -2.22434,22.42995 -0.91358,33.49567 0.53927,4.55262 0.53475,4.60304 -0.5058,5.6436 -0.68262,0.68262 -1.12442,0.89958 -1.83179,0.89958 -1.08817,0 -2.41678,-0.97968 -2.6639,-1.96428 -0.38014,-1.5146 -0.96091,-7.72343 -1.23363,-13.18832 -0.92981,-18.63183 2.41602,-35.11385 9.08209,-44.73972 5.13665,-7.4173698 12.72094,-11.7491998 22.09874,-12.6218998 12.46459,-1.15994 22.56952,4.72091 28.14012,16.3769398 4.18209,8.75068 6.393,22.52592 5.94453,37.03771 -0.25325,8.1946 -1.12334,17.21911 -1.80426,18.71356 -0.59703,1.31033 -2.66922,1.86427 -3.8583,1.03141 z m -52.70944,-18.90165 v -3.43958 h 5.38077 c 2.95942,0 9.3209,-0.0786 14.13661,-0.17472 l 8.75584,-0.17471 0.16956,-2.0081 c 1.31176,-15.53541 5.29599,-26.87159 11.8908,-33.83251 l 1.6597,-1.75184 1.29451,1.76647 c 0.71198,0.97155 1.57218,2.29245 1.91156,2.93532 l 0.61706,1.16887 -1.35697,1.68196 c -3.13022,3.87991 -5.38846,8.79016 -7.02208,15.26862 -0.73885,2.93008 -1.62227,8.25239 -1.85102,11.15189 -0.0861,1.0914 -0.216,2.37132 -0.28865,2.84427 l -0.13208,0.85989 h 8.08178 8.08178 v 3.39635 3.39636 l -13.29531,0.17523 c -7.31243,0.0964 -18.86149,0.17537 -25.66459,0.17552 l -12.36927,2.9e-4 z"
         id="path6" /><path
         style="fill:#000000;fill-opacity:1;stroke-width:2.64583;stroke-linecap:round;stroke-linejoin:round;paint-order:markers fill stroke"
         id="path1-3"
         clip-path="url(#clipPath2)"
         inkscape:path-effect="#path-effect2"
         sodipodi:type="arc"
         sodipodi:cx="-182.64713"
         sodipodi:cy="167.50397"
         sodipodi:rx="47.960945"
         sodipodi:ry="47.960945"
         d="m -134.68618,167.50397 a 47.960945,47.960945 0 0 1 -47.96095,47.96094 47.960945,47.960945 0 0 1 -47.96094,-47.96094 47.960945,47.960945 0 0 1 47.96094,-47.96095 47.960945,47.960945 0 0 1 47.96095,47.96095 z"
         transform="matrix(0.62995553,0.20031678,-0.16879608,0.74759241,678.97975,47.579906)"
         inkscape:export-filename="pinkmoon.png"
         inkscape:export-xdpi="96"
         inkscape:export-ydpi="96" /><path
         sodipodi:type="star"
         style="fill:#000000;fill-opacity:0.978962;stroke:#000000;stroke-width:1.5875;stroke-linecap:round;stroke-linejoin:round;paint-order:markers fill stroke"
         id="path1-37"
         inkscape:flatsided="false"
         sodipodi:sides="5"
         sodipodi:cx="113.08329"
         sodipodi:cy="226.8949"
         sodipodi:r1="14.278275"
         sodipodi:r2="8.9487772"
         sodipodi:arg1="0.52359878"
         sodipodi:arg2="1.1519173"
         inkscape:rounded="0"
         inkscape:randomized="0"
         d="m 125.44864,234.03403 -8.72555,1.03598 -6.60842,5.79115 -3.68162,-7.97836 -7.549817,-4.49542 6.450187,-5.96687 1.94237,-8.56947 7.66806,4.29063 8.75027,-0.8008 -1.71108,8.61863 z"
         transform="matrix(0.24197346,0,0,0.30249387,479.46144,20.419234)"
         inkscape:transform-center-x="0.22197608"
         inkscape:transform-center-y="0.13951173" /><path
         sodipodi:type="star"
         style="fill:#000000;fill-opacity:0.978962;stroke:#000000;stroke-width:1.5875;stroke-linecap:round;stroke-linejoin:round;paint-order:markers fill stroke"
         id="path1-1"
         inkscape:flatsided="false"
         sodipodi:sides="5"
         sodipodi:cx="113.08329"
         sodipodi:cy="226.8949"
         sodipodi:r1="14.278275"
         sodipodi:r2="8.9487772"
         sodipodi:arg1="0.52359878"
         sodipodi:arg2="1.1519173"
         inkscape:rounded="0"
         inkscape:randomized="0"
         d="m 125.44864,234.03403 -8.72555,1.03598 -6.60842,5.79115 -3.68162,-7.97836 -7.549817,-4.49542 6.450187,-5.96687 1.94237,-8.56947 7.66806,4.29063 8.75027,-0.8008 -1.71108,8.61863 z"
         transform="matrix(0.21828221,0.24635972,-0.18093066,0.29721851,530.70523,90.778707)"
         inkscape:transform-center-x="-0.33756084"
         inkscape:transform-center-y="-0.069699238" /><path
         sodipodi:type="star"
         style="fill:#000000;fill-opacity:0.978962;stroke:#000000;stroke-width:1.5875;stroke-linecap:round;stroke-linejoin:round;paint-order:markers fill stroke"
         id="path1-9"
         inkscape:flatsided="false"
         sodipodi:sides="5"
         sodipodi:cx="113.08329"
         sodipodi:cy="226.8949"
         sodipodi:r1="14.278275"
         sodipodi:r2="8.9487772"
         sodipodi:arg1="0.52359878"
         sodipodi:arg2="1.1519173"
         inkscape:rounded="0"
         inkscape:randomized="0"
         d="m 125.44864,234.03403 -8.72555,1.03598 -6.60842,5.79115 -3.68162,-7.97836 -7.549817,-4.49542 6.450187,-5.96687 1.94237,-8.56947 7.66806,4.29063 8.75027,-0.8008 -1.71108,8.61863 z"
         transform="matrix(0.16205123,0.13206845,-0.10303196,0.20772053,580.44553,41.327238)"
         inkscape:transform-center-x="-0.1244807"
         inkscape:transform-center-y="-0.1802229" /><path
         sodipodi:type="star"
         style="fill:#000000;fill-opacity:0.978962;stroke:#000000;stroke-width:1.5875;stroke-linecap:round;stroke-linejoin:round;paint-order:markers fill stroke"
         id="path1-0"
         inkscape:flatsided="false"
         sodipodi:sides="5"
         sodipodi:cx="113.08329"
         sodipodi:cy="226.8949"
         sodipodi:r1="14.278275"
         sodipodi:r2="8.9487772"
         sodipodi:arg1="0.52359878"
         sodipodi:arg2="1.1519173"
         inkscape:rounded="0"
         inkscape:randomized="0"
         d="m 125.44864,234.03403 -8.72555,1.03598 -6.60842,5.79115 -3.68162,-7.97836 -7.549817,-4.49542 6.450187,-5.96687 1.94237,-8.56947 7.66806,4.29063 8.75027,-0.8008 -1.71108,8.61863 z"
         transform="matrix(0.22002856,0.2250858,-0.17528291,0.28254497,594.61996,84.846881)"
         inkscape:transform-center-x="-0.31165621"
         inkscape:transform-center-y="-0.096133868" /><path
         sodipodi:type="star"
         style="fill:#000000;fill-opacity:0.978962;stroke:#000000;stroke-width:1.5875;stroke-linecap:round;stroke-linejoin:round;paint-order:markers fill stroke"
         id="path1-0-0"
         inkscape:flatsided="false"
         sodipodi:sides="5"
         sodipodi:cx="113.08329"
         sodipodi:cy="226.8949"
         sodipodi:r1="14.278275"
         sodipodi:r2="8.9487772"
         sodipodi:arg1="0.52359878"
         sodipodi:arg2="1.1519173"
         inkscape:rounded="0"
         inkscape:randomized="0"
         d="m 125.44864,234.03403 -8.72555,1.03598 -6.60842,5.79115 -3.68162,-7.97836 -7.549817,-4.49542 6.450187,-5.96687 1.94237,-8.56947 7.66806,4.29063 8.75027,-0.8008 -1.71108,8.61863 z"
         transform="matrix(0.15526979,0.05187734,-0.04001073,0.20132059,488.62177,88.523074)"
         inkscape:transform-center-x="0.11738111"
         inkscape:transform-center-y="-0.13479205" /></g></g></svg>
