<?xml version="1.0" encoding="UTF-8" standalone="no"?>
<!-- Created with Inkscape (http://www.inkscape.org/) -->

<svg
   width="180.25858mm"
   height="295.71967mm"
   viewBox="0 0 180.25858 295.71967"
   version="1.1"
   id="svg1"
   xml:space="preserve"
   sodipodi:docname="photography.svg"
   inkscape:version="1.3.2 (1:1.3.2+202311252150+091e20ef0f)"
   xmlns:inkscape="http://www.inkscape.org/namespaces/inkscape"
   xmlns:sodipodi="http://sodipodi.sourceforge.net/DTD/sodipodi-0.dtd"
   xmlns:xlink="http://www.w3.org/1999/xlink"
   xmlns="http://www.w3.org/2000/svg"
   xmlns:svg="http://www.w3.org/2000/svg"><sodipodi:namedview
     id="namedview1"
     pagecolor="#ffffff"
     bordercolor="#000000"
     borderopacity="0.25"
     inkscape:showpageshadow="2"
     inkscape:pageopacity="0.0"
     inkscape:pagecheckerboard="0"
     inkscape:deskcolor="#d1d1d1"
     inkscape:document-units="mm"
     inkscape:zoom="0.36504167"
     inkscape:cx="35.612373"
     inkscape:cy="156.14656"
     inkscape:window-width="1850"
     inkscape:window-height="1016"
     inkscape:window-x="0"
     inkscape:window-y="0"
     inkscape:window-maximized="1"
     inkscape:current-layer="layer1" /><defs
     id="defs1"><linearGradient
       id="linearGradient1"><stop
         style="stop-color:#784421;stop-opacity:1"
         offset="0"
         id="stop1" /><stop
         style="stop-color:#c87137;stop-opacity:1"
         offset="0.33501455"
         id="stop4" /><stop
         style="stop-color:#deaa87;stop-opacity:1"
         offset="0.63969052"
         id="stop3" /><stop
         style="stop-color:#c87137;stop-opacity:1"
         offset="0.84892297"
         id="stop5" /><stop
         style="stop-color:#784421;stop-opacity:1"
         offset="1"
         id="stop2" /></linearGradient><linearGradient
       xlink:href="#linearGradient1"
       id="linearGradient2"
       x1="113.54744"
       y1="20.200367"
       x2="112.37875"
       y2="284.54822"
       gradientUnits="userSpaceOnUse"
       gradientTransform="matrix(0.8100121,0,0,0.8100121,19.706614,29.443254)" /></defs><g
     id="layer1"
     transform="translate(-13.596344,-3.5259551)"><path
       style="fill:url(#linearGradient2);fill-opacity:1;stroke-width:0.810012"
       d="m 115.12837,271.38029 c -0.53043,-0.25492 -3.08614,-1.48392 -5.67937,-2.73113 -12.334827,-5.93242 -25.181327,-14.24721 -36.433667,-23.58139 -5.930552,-4.91958 -8.934806,-7.64834 -9.989952,-9.07386 -0.509571,-0.68845 -0.618671,-1.04836 -0.618671,-2.04091 0,-0.6628 -0.231801,-2.11907 -0.515119,-3.23616 -0.862428,-3.40058 -1.085749,-5.87936 -1.071168,-11.88961 0.01393,-5.75472 0.153594,-7.64361 1.077324,-14.57347 1.199417,-8.99807 2.510252,-14.65467 6.5309,-28.18251 3.427542,-11.53229 4.084689,-13.53606 4.527207,-13.80429 0.645612,-0.39133 0.901997,0.15682 0.869086,1.85808 -0.05978,3.09205 -0.730817,6.24717 -4.021969,18.91146 -3.580756,13.77871 -5.333784,25.50729 -5.34949,35.79073 -0.0087,5.70788 0.193422,7.90453 1.069475,11.62191 0.526702,2.23499 1.827752,5.99988 2.36837,6.85342 0.411535,0.64974 8.620311,7.34804 13.407004,10.94001 6.551945,4.91661 10.823868,7.69934 25.57889,16.66205 5.18643,3.15042 9.59832,5.8765 9.80418,6.05795 0.28392,0.25025 0.3164,0.39968 0.13449,0.61885 -0.31447,0.37893 -0.53529,0.35261 -1.68752,-0.20113 z m 52.41925,-1.69091 c -0.1797,-0.25656 -0.43764,-0.96208 -0.5732,-1.56782 -0.33965,-1.51769 0.10054,-3.15407 2.6524,-9.86024 1.12135,-2.94685 2.28769,-6.37053 2.59186,-7.60821 1.96317,-7.98791 0.81816,-23.42547 -2.46828,-33.2785 -1.89473,-5.68058 -6.53896,-12.26784 -11.20308,-15.89015 -0.954,-0.74091 -3.28966,-2.37293 -5.19036,-3.62671 -3.47414,-2.29171 -5.09423,-3.72236 -4.96647,-4.38574 0.12708,-0.65993 0.8099,-0.5093 2.10522,0.46442 0.70728,0.53167 2.36974,1.56292 3.69435,2.29167 4.64988,2.55817 7.61648,4.71284 10.68461,7.7603 5.26969,5.23424 8.1246,10.95882 10.12572,20.30388 1.4943,6.97825 1.7317,9.34427 1.73105,17.25242 -6.7e-4,7.92677 -0.0646,8.39908 -1.83034,13.53207 -1.41988,4.12747 -5.47541,13.56725 -6.26294,14.57783 -0.48409,0.62121 -0.67552,0.62731 -1.09054,0.0347 z m -41.27483,-67.48276 c -6.9654,-0.86573 -12.21407,-3.06298 -16.35318,-6.84589 -1.77554,-1.62275 -1.99047,-2.88414 -0.8154,-4.78545 0.55161,-0.89251 3.04865,-3.29102 4.34747,-4.17592 1.5213,-1.03646 4.70477,-2.52365 7.04203,-3.28975 l 2.09336,-0.68616 -0.78251,-0.56919 c -1.16281,-0.84582 -2.38988,-2.29188 -2.38988,-2.8164 0,-1.0064 3.3468,-3.40437 6.87342,-4.92478 2.13203,-0.91916 4.68696,-1.6852 5.6206,-1.6852 0.47726,0 0.58498,-0.0807 0.50058,-0.37505 -0.0591,-0.20628 -0.41011,-1.48414 -0.7799,-2.83969 -1.78404,-6.53973 -5.07608,-11.84353 -9.56451,-15.40937 -0.92717,-0.73659 -1.85454,-1.47577 -2.06082,-1.64263 -0.20627,-0.16685 -0.37505,-0.40379 -0.37505,-0.52652 0,-0.54816 0.79701,-0.417 2.42482,0.39907 6.00819,3.01208 11.19033,11.19938 12.04129,19.02412 l 0.14234,1.30887 1.75061,0.13188 c 3.33682,0.25138 11.53876,2.4038 14.11922,3.70528 l 1.00988,0.50934 0.21368,-0.80318 c 0.59851,-2.2496 1.78462,-7.44607 2.06087,-9.02883 0.42086,-2.41144 0.4068,-7.09284 -0.0276,-9.19609 -0.75363,-3.64851 -1.90214,-5.50002 -5.87639,-9.47326 -3.17121,-3.17042 -4.69592,-4.36328 -14.24964,-11.14828 -14.34022,-10.18435 -15.42745,-11.15722 -21.40436,-19.15305 -1.13477,-1.51807 -2.06322,-2.60001 -2.06322,-2.40428 0,0.19571 0.19826,0.94435 0.44057,1.66364 0.72029,2.13816 0.18736,2.51541 -1.28974,0.91296 -2.57652,-2.79521 -2.78082,-6.99307 -0.66463,-13.65734 0.47897,-1.50838 0.87086,-2.91893 0.87086,-3.13454 0,-0.50535 0.54479,-0.95666 0.96169,-0.79667 0.17831,0.0684 0.32484,0.2962 0.32562,0.50618 0.008,2.13064 6.11967,4.73951 9.90836,4.22946 1.32884,-0.17889 2.09181,-0.72042 3.76037,-2.66894 2.8191,-3.292095 4.38403,-4.944973 4.9676,-5.246751 0.33025,-0.170767 0.65944,-0.545559 0.73155,-0.832855 0.0721,-0.287303 0.63631,-0.976599 1.2538,-1.531773 3.63348,-3.266811 7.88089,-4.774576 7.88089,-2.797595 0,0.958049 -2.06962,2.36125 -5.73295,3.886932 -1.09033,0.454092 -1.98241,0.946928 -1.98241,1.095193 0,0.345195 -3.35919,4.807549 -5.27803,7.011339 -0.94452,1.08478 -1.85734,1.89207 -2.5445,2.25031 -0.97703,0.50938 -1.28903,0.55799 -3.53621,0.55091 -2.89628,-0.009 -4.74102,-0.47924 -7.25725,-1.84947 -0.86784,-0.47258 -1.65929,-0.77784 -1.75877,-0.67836 -0.34794,0.34794 -1.28957,4.69526 -1.41826,6.54787 -0.11754,1.69214 -0.0892,1.90522 0.29896,2.25031 0.23584,0.20966 1.57601,1.82731 2.97817,3.59478 2.78056,3.50501 6.83617,7.80914 9.06494,9.62044 0.77776,0.63207 5.70578,4.16173 10.95116,7.84368 5.24537,3.68195 10.45324,7.42332 11.57304,8.31415 3.07774,2.44842 7.87363,7.35657 9.05163,9.2635 1.94859,3.15435 2.69777,6.87046 2.44118,12.10884 -0.15387,3.14132 -0.38135,4.43513 -1.66813,9.48736 l -0.90442,3.55098 0.52271,0.33347 c 0.28749,0.18341 1.23272,1.01102 2.1005,1.83914 3.93872,3.75869 6.12487,8.03036 6.78726,13.26212 0.16632,1.31362 0.44984,3.1443 0.63004,4.06819 0.56361,2.88959 0.32993,4.25702 -0.54321,3.17873 -0.53926,-0.66595 -1.65169,-3.86077 -2.25142,-6.4659 -0.28492,-1.23768 -0.62946,-2.73252 -0.76562,-3.32189 -0.64138,-2.77599 -2.5582,-6.19567 -4.87831,-8.70308 -1.04812,-1.13275 -1.32117,-1.31088 -2.16389,-1.41172 -0.53044,-0.0635 -1.06168,-0.23534 -1.18054,-0.38193 -0.68671,-0.84686 -5.12088,-2.4748 -10.36135,-3.80401 -3.44328,-0.87337 -3.68292,-0.90468 -6.88927,-0.89996 -3.06343,0.005 -3.46363,0.0519 -5.14357,0.60941 -3.06906,1.01846 -7.07242,3.20724 -7.07242,3.86675 0,0.42204 1.22031,1.3909 2.48326,1.97156 l 1.09021,0.50125 3.94621,-1.18693 c 4.75943,-1.43152 5.56025,-1.56963 6.29802,-1.08623 0.58168,0.38113 0.70766,1.01246 0.27356,1.37083 -0.58898,0.48621 -6.91532,2.85185 -10.13457,3.78965 -6.93804,2.02115 -8.16885,2.51974 -10.94751,4.4348 -1.55334,1.07057 -4.36791,3.79978 -4.36791,4.23545 0,0.4501 1.77411,2.1659 3.26283,3.1556 2.03838,1.35512 4.83865,2.55133 7.83123,3.34534 2.4558,0.65157 2.62847,0.66739 7.33709,0.67176 5.37456,0.005 4.27678,0.1959 12.10883,-2.10588 3.66839,-1.0781 5.35789,-1.31916 5.35789,-0.76445 0,0.77847 -7.15571,3.42358 -11.57304,4.27798 -2.74566,0.53106 -6.39332,0.71001 -8.67979,0.42582 z m -25.93854,-17.57777 c -6.641754,-0.55078 -14.097802,-3.08463 -19.459459,-6.61306 -3.650376,-2.40226 -5.077885,-4.09718 -4.488957,-5.32985 0.441351,-0.92378 1.114949,-0.85939 2.268811,0.21688 2.740296,2.55601 9.351647,5.82136 14.613526,7.21763 3.559161,0.94444 5.708503,1.27099 13.394729,2.03507 6.38648,0.63488 6.8581,0.71009 6.8581,1.09376 0,0.34489 -0.29669,0.47271 -1.82168,0.78481 -1.76347,0.3609 -7.04431,0.84878 -8.57263,0.79199 -0.41255,-0.0153 -1.66915,-0.10408 -2.79244,-0.19723 z M 32.084838,169.60243 c -0.06529,-0.27304 -0.368604,-1.94308 -0.67406,-3.71118 -0.465279,-2.69314 -0.573034,-4.10651 -0.664161,-8.711 -0.168644,-8.52163 0.442826,-14.22031 2.283918,-21.28539 2.378334,-9.12664 6.638066,-17.21538 10.984931,-20.85912 2.294351,-1.92323 5.054014,-2.97032 5.406628,-2.05143 0.170475,0.44426 -0.0469,0.66008 -2.236962,2.22128 -1.701552,1.21294 -4.187317,4.0354 -5.547643,6.29908 -4.88784,8.13368 -7.199954,15.69611 -8.525248,27.88427 -0.350127,3.21999 -0.410336,8.59899 -0.20985,18.74898 0.03086,1.56364 -0.01547,1.82805 -0.331489,1.88951 -0.23931,0.0466 -0.408764,-0.10162 -0.486064,-0.425 z M 126.93722,122.9611 c -0.44254,-0.82689 1.34099,-6.82339 3.41011,-11.46528 1.75899,-3.94616 4.21841,-8.15187 8.54611,-14.614231 9.23395,-13.788623 10.94148,-17.085916 12.28305,-23.71885 1.28925,-6.374277 0.02,-15.958902 -2.87291,-21.694468 -0.35071,-0.695359 -1.60936,-2.817085 -2.79698,-4.714946 -2.85712,-4.565787 -3.46035,-5.862119 -3.31751,-7.129325 0.21433,-1.901519 1.44327,-2.058785 1.44327,-0.184694 0,1.142979 0.42524,1.940974 3.27707,6.149685 4.273,6.306056 5.75212,10.387464 6.7053,18.502299 0.79659,6.781731 -0.20594,12.539411 -3.3212,19.074098 -1.62276,3.40397 -3.12819,5.867516 -8.05429,13.180419 -5.92165,8.790823 -6.67577,10.144393 -11.28352,20.252833 -3.03304,6.65382 -3.48207,7.36478 -4.0185,6.36246 z M 44.254476,100.63344 C 38.590693,100.03527 34.33135,98.51216 34.33135,97.085 c 0,-0.690131 0.596234,-0.693087 1.783517,-0.0088 1.82567,1.052165 3.78142,1.306217 10.003844,1.29951 6.228888,-0.0065 7.906714,-0.179669 14.466314,-1.491273 4.54885,-0.909554 9.332716,-2.275721 13.496,-3.854167 12.017567,-4.556277 24.134894,-10.685199 31.887005,-16.128389 5.3682,-3.769314 9.32423,-7.438519 15.90178,-14.748833 9.04605,-10.053802 11.34197,-12.246427 15.28573,-14.597973 2.17309,-1.295749 3.01915,-1.562675 3.20097,-1.009881 0.0438,0.133142 -0.53882,0.734184 -1.29469,1.335648 -2.16329,1.721377 -4.87434,4.70849 -7.58074,8.352653 -5.01383,6.75113 -7.353,9.508083 -12.04575,14.19713 -2.54564,2.54363 -5.69549,5.489499 -6.99966,6.546375 -7.41724,6.010792 -18.222814,11.92139 -31.154949,17.041606 -8.557284,3.388079 -16.448535,5.324583 -25.62496,6.288324 -3.899293,0.40953 -9.182751,0.56085 -11.401285,0.32654 z m 96.272574,-8.974169 c -1.78671,-1.332202 -2.42967,-3.071598 -2.16964,-5.869457 0.24859,-2.674753 1.31629,-5.302737 3.9131,-9.631514 2.64274,-4.40535 3.0743,-5.736241 3.22827,-9.955551 0.13349,-3.658105 -0.17533,-7.353623 -0.77569,-9.282604 -0.21826,-0.701272 -0.97447,-2.122399 -1.68991,-3.17582 -1.46379,-2.155269 -1.656,-2.694954 -0.99356,-2.789674 0.6353,-0.09084 3.67015,3.134871 4.43233,4.711084 1.1683,2.416065 1.78798,7.027002 1.60584,11.948733 -0.15212,4.110099 -0.64406,5.559211 -3.5088,10.335802 -2.64755,4.414456 -3.36267,6.503442 -3.36265,9.822904 10e-6,1.420745 0.10751,2.286777 0.35575,2.865855 0.19566,0.456425 0.35574,0.952428 0.35574,1.102232 0,0.532243 -0.61567,0.495954 -1.39078,-0.08199 z M 128.41594,77.148243 c -1.92191,-0.504748 -4.25924,-1.750746 -4.72883,-2.520868 -0.52108,-0.854579 -0.51893,-1.10917 0.0139,-1.641983 0.45341,-0.453414 1.3917,-0.559254 1.92884,-0.217574 0.26196,0.166638 0.27305,0.282643 0.0599,0.626633 -0.24055,0.388212 -0.16304,0.459227 0.96442,0.883641 1.57675,0.593543 3.72322,1.050567 5.08367,1.082414 1.64512,0.03851 2.14316,0.235871 2.14316,0.849284 0,1.167203 -2.7778,1.644203 -5.46505,0.938453 z m 8.67979,-6.943816 c -1.79533,-1.009133 -3.99209,-1.635955 -6.75181,-1.926562 -3.065,-0.322755 -5.17483,-0.282547 -5.73424,0.109278 -0.36145,0.253168 -0.57426,0.276595 -0.90495,0.09962 -0.59497,-0.318415 -0.54193,-0.991902 0.11183,-1.420268 0.47528,-0.311407 1.03857,-0.341701 4.44706,-0.23916 3.36173,0.101134 4.16455,0.194822 5.79043,0.675737 1.03816,0.307078 2.34013,0.789252 2.89325,1.071498 1.24872,0.637183 2.28648,1.692588 2.11184,2.147717 -0.17677,0.460654 -0.26303,0.437904 -1.96341,-0.517856 z"
       id="path1"
       sodipodi:nodetypes="sssssssssscssssssssssssssssssssssssssssssscssssssssssscsscsssssssssssscssscsssssscssssssssssscssssssssssscssscsssssssscsssssssssssssssssssssscsscsssssssssssssssssscssssscssssssssssssssssssssscssscsssccssssssssss" /></g></svg>
