<?xml version="1.0" encoding="UTF-8" standalone="no"?>
<!-- Created with Inkscape (http://www.inkscape.org/) -->

<svg
   width="304.38968mm"
   height="239.47539mm"
   viewBox="0 0 304.38968 239.47539"
   version="1.1"
   id="svg1"
   xml:space="preserve"
   xmlns:inkscape="http://www.inkscape.org/namespaces/inkscape"
   xmlns:sodipodi="http://sodipodi.sourceforge.net/DTD/sodipodi-0.dtd"
   xmlns="http://www.w3.org/2000/svg"
   xmlns:svg="http://www.w3.org/2000/svg"><sodipodi:namedview
     id="namedview1"
     pagecolor="#ffffff"
     bordercolor="#000000"
     borderopacity="0.25"
     inkscape:showpageshadow="2"
     inkscape:pageopacity="0.0"
     inkscape:pagecheckerboard="0"
     inkscape:deskcolor="#d1d1d1"
     inkscape:document-units="mm" /><defs
     id="defs1" /><g
     inkscape:label="Layer 1"
     inkscape:groupmode="layer"
     id="layer1"
     transform="translate(47.189336,-14.857957)"><g
       id="g2"><path
         style="fill:#000000;stroke-width:6.49521"
         d="m 83.384433,252.54884 c 1.14998,-2.2172 2.37212,-8.58348 2.37296,-12.3611 7.2e-4,-3.36874 -2.16777,-10.38649 -4.13979,-13.39728 -0.73019,-1.11471 -3.96519,-5.44539 -7.18896,-9.6237 -6.71215,-8.69968 -8.93157,-12.94573 -11.00263,-21.05026 -1.33886,-5.23911 -1.44207,-6.37161 -1.1529,-12.64839 0.36893,-8.00918 0.87601,-10.74393 3.52131,-18.99239 1.68538,-5.25541 1.97682,-6.98742 2.22104,-13.19827 0.50858,-12.92703 -1.67511,-22.68563 -7.82757,-34.98555 -3.36965,-6.73651 -4.82413,-9.1322 -8.89149,-14.64547 -4.67811,-6.341205 -2.41544,-5.033845 6.99287,4.04028 5.632,5.43195 12.12559,17.02389 14.60312,26.06828 1.25851,4.59451 1.49968,27.0951 0.32411,30.24605 -1.28949,3.45617 -3.46259,16.09228 -3.78489,22.00806 -0.28319,5.19694 -0.16952,6.26346 1.11978,10.48963 1.99903,6.5538 3.28995,9.26977 5.74514,12.08707 3.62491,4.15967 12.25244,16.04889 13.67651,18.84716 1.82386,3.58367 3.48469,10.2914 3.48092,14.05837 -0.007,6.48313 -1.92681,9.84933 -7.29179,12.78186 l -3.67732,2.01014 z m 40.338777,-0.27864 c -5.23963,-2.95682 -7.15974,-6.3809 -7.16617,-12.77894 -0.004,-3.76696 1.65712,-10.4747 3.48091,-14.05837 1.42408,-2.79826 10.0516,-14.68749 13.67658,-18.84715 2.45512,-2.8173 3.74605,-5.53327 5.74508,-12.08707 1.2891,-4.22618 1.4029,-5.29269 1.11977,-10.48964 -0.32216,-5.91577 -2.49539,-18.55188 -3.78482,-22.00805 -1.17557,-3.15096 -0.93447,-25.65154 0.32411,-30.24606 2.47747,-9.04439 8.97112,-20.63633 14.60306,-26.06827 9.40831,-9.074135 11.67105,-10.381485 6.99287,-4.04028 -4.0673,5.51326 -5.52177,7.90896 -8.89143,14.64547 -6.15252,12.29991 -8.33589,22.05851 -7.82763,34.98554 0.24422,6.21086 0.53585,7.94287 2.2211,13.19828 2.64524,8.24846 3.15225,10.9832 3.52125,18.99238 0.28903,6.27678 0.18576,7.40929 -1.1529,12.64839 -2.07107,8.10453 -4.29042,12.35058 -11.00263,21.05027 -3.22377,4.1783 -6.45878,8.50898 -7.1889,9.62369 -1.97208,3.01079 -4.14057,10.02855 -4.13986,13.39729 8.5e-4,3.81217 1.22637,10.15039 2.40031,12.41391 0.50987,0.98298 0.85867,1.76189 0.77527,1.73084 -0.0831,-0.0325 -1.75105,-0.95902 -3.70597,-2.06223 z M -18.178337,121.96001 c -13.95327,-3.78969 -21.79494,-9.24996 -26.37952,-18.36839 -4.59958,-9.148305 -3.26488,-17.186585 4.75781,-28.654725 3.66505,-5.239035 9.19546,-10.936835 13.07155,-13.467105 3.06262,-1.99936 9.52198,-4.19994 14.80505,-5.04392 7.2074105,-1.15141 25.26189,-1.72513 35.66436,-1.13335 15.01148,0.85405 24.06002,0.74903 27.21494,-0.31567 1.44727,-0.48844 4.85862,-2.2074 7.58076,-3.81983 6.30438,-3.73443 11.11954,-5.30861 21.63763,-7.07394 7.75476,-1.30151 9.76925,-1.41641 24.831257,-1.41641 15.06207,0 17.07656,0.11497 24.83126,1.41641 10.51808,1.76533 15.33331,3.33951 21.63769,7.07394 2.72215,1.61243 6.13343,3.33139 7.58069,3.81983 3.15492,1.06476 12.20347,1.16979 27.21494,0.31567 10.40247,-0.59172 28.45696,-0.0195 35.66437,1.13335 5.28307,0.84398 11.74243,3.04456 14.80512,5.04392 3.87602,2.53027 9.40649,8.22807 13.07155,13.467105 8.02269,11.46814 9.35732,19.50642 4.75774,28.654725 -4.66765,9.28367 -13.09435,15.01933 -27.28723,18.57306 -9.58576,2.40017 -18.26674,1.37659 -22.66569,-2.67252 -2.83295,-2.60764 -3.58497,-7.30257 -1.94194,-12.12442 0.69733,-2.04671 0.74169,-2.75397 0.21239,-3.39148 -0.36763,-0.44297 -0.89276,-0.66686 -1.16686,-0.49753 -1.02066,0.63069 -4.31607,-1.00033 -6.17247,-3.05509 -1.07086,-1.185305 -2.34321,-3.470575 -2.87945,-5.171865 -1.13205,-3.59127 -0.64108,-6.08712 2.02507,-10.28894 1.83003,-2.88439 1.91668,-3.60036 0.77871,-6.43117 -0.81917,-2.03781 -0.81846,-2.04047 0.22539,-0.80722 0.57612,0.6805 1.25533,1.24675 1.50929,1.25818 0.25396,0.013 1.13997,1.00137 1.96883,2.19974 0.82892,1.19836 1.72331,2.17882 1.98753,2.17882 0.71779,0 2.27969,-4.45163 2.27969,-6.49729 0,-1.08035 -0.32606,-1.91122 -0.82489,-2.1027 -1.16777,-0.44817 -1.02637,-1.8486 0.18641,-1.8486 0.55664,0 1.28943,0.6099 1.62894,1.35496 0.34554,0.75826 1.8714,1.99046 3.46481,2.79795 l 2.84743,1.44284 -0.35204,-2.52293 c -0.19356,-1.38757 -0.50728,-3.63167 -0.6972,-4.986825 -0.25591,-1.82619 -0.10717,-2.82704 0.57418,-3.86699 1.11562,-1.70265 2.17752,-1.32327 1.35412,0.48389 -0.63133,1.38602 0.25137,5.847115 1.15687,5.847115 0.27344,0 0.93498,0.74039 1.46954,1.64531 l 0.97188,1.6453 1.67134,-1.58763 c 2.08393,-1.97954 7.68371,-5.552425 8.70235,-5.552425 1.43038,0 1.46156,0.70337 0.10263,2.318205 -1.59666,1.89751 -1.65089,2.42797 -0.48649,4.76157 l 0.87282,1.74955 1.87686,-1.15998 c 1.03222,-0.63783 1.87686,-0.90692 1.87686,-0.59756 0,0.30917 -0.22409,0.70071 -0.49754,0.86984 -0.83866,0.51832 -0.039,4.83465 1.41076,7.60966 2.16349,4.14284 2.46559,5.74002 1.51741,8.02315 -1.21804,2.93291 -6.53223,8.058865 -9.80984,9.462285 -1.53697,0.65803 -3.72494,2.03326 -4.86219,3.05599 -1.13731,1.02274 -3.17895,2.15674 -4.53691,2.51995 -2.35945,0.63069 -2.46915,0.75039 -2.46915,2.6872 0,2.29976 0.35204,2.53255 4.58374,3.02911 5.24157,0.61509 20.53506,-2.4587 24.86821,-4.99807 7.36207,-4.31444 11.27283,-13.534005 8.76094,-20.653535 -2.4018,-6.80743 -11.81135,-18.597215 -16.94016,-21.225375 -7.68981,-3.94045 -23.90589,-5.30925 -51.79373,-4.37186 -19.37314,0.65121 -21.92667,0.14225 -32.38682,-6.45578 -5.86303,-3.69825 -9.31472,-4.90188 -18.75648,-6.54055 -6.36304,-1.10432 -8.99314,-1.24072 -23.92187,-1.24072 -14.928717,0 -17.558757,0.1364 -23.921857,1.24072 -9.44177,1.63867 -12.89345,2.8423 -18.75642,6.54055 -10.46021,6.59796 -13.01374,7.10699 -32.38688,6.45578 -27.8878395,-0.93739 -44.10392,0.43128 -51.79373,4.37186 -5.12881,2.62816 -14.53829,14.417945 -16.94016,21.225375 -2.51189,7.11953 1.39894,16.339095 8.76094,20.653535 4.33315,2.53937 19.62671,5.6131 24.8682805,4.99807 3.8996,-0.45727 4.58366996,-0.79976 4.58366996,-2.29255 0,-0.98727 -0.54883996,-1.5358 -2.33716996,-2.33601 -1.28547,-0.57482 -2.83152,-1.60191 -3.43571,-2.2817 -0.60405,-0.67979 -2.58392,-1.92252 -4.3994705,-2.7617 -3.75572,-1.73597 -8.57309,-6.346725 -9.85544,-9.432795 -0.94869,-2.28307 -0.64692,-3.87985 1.51696,-8.02314 1.44914,-2.77502 2.24935,-7.09135 1.41069,-7.60966 -0.27345,-0.16888 -0.49753,-0.56054 -0.49753,-0.86984 0,-0.30918 0.84457,-0.039 1.87686,0.59756 l 1.87685,1.15998 0.87276,-1.74955 c 1.16414,-2.3336 1.10997,-2.86407 -0.48649,-4.76158 -1.3588,-1.61484 -1.32762,-2.31821 0.10263,-2.31821 1.01864,0 6.6184905,3.57289 8.7023505,5.55244 l 1.67134,1.58762 0.97195,-1.6453 c 0.53455,-0.90491 1.19583,-1.6453 1.46954,-1.6453 0.90568996,0 1.78825996,-4.461105 1.15679996,-5.847115 -0.82334,-1.80704 0.23837,-2.18642 1.35412004,-0.4839 0.68141,1.03995 0.82996,2.0408 0.57417,3.866985 -0.18966,1.35516 -0.50337,3.59926 -0.69719,4.98683 l -0.35204004,2.52294 2.84743004,-1.44285 c 1.59341,-0.80748 3.11933,-2.03969 3.46481,-2.79794 0.3397,-0.74526 1.07262,-1.35497 1.62893,-1.35497 1.2130495,0 1.3545095,1.4005 0.18706,1.8486 -0.49883,0.19161 -0.82489,1.02235 -0.82489,2.1027 0,2.04567 1.56191,6.49729 2.2796295,6.49729 0.26435,0 1.15861,-0.98045 1.98753,-2.17882 0.82886,-1.19837 1.71487,-2.18824 1.96883,-2.19973 0.25396,-0.013 0.93317,-0.57743 1.50936,-1.25819 1.04404,-1.23325 1.04482,-1.23058 0.22538,0.80722 -1.13802,2.83081 -1.05131,3.54678 0.77865,6.43117 2.66589,4.20182 3.15713,6.69767 2.02514,10.28894 -1.14303,3.625885 -4.04249,7.046195 -6.72345,7.930975 -1.05892,0.34944 -2.07425,0.48649 -2.25631,0.30462 -0.1818695,-0.18186 -0.7913095,0.0857 -1.3539895,0.59496 -0.86445,0.78235 -0.96746,1.41674 -0.66472,4.09303 0.1968,1.74188 0.19226,4.05327 -0.013,5.13628 -1.3877,7.39733 -13.12942,10.53848 -26.1617405,6.99885 z M 6.4752835,98.214175 c -0.19291,-3.4096 -0.42544,-3.95487 -4.04262,-9.48197 -2.11101004,-3.2254 -3.97825,-5.87707 -4.1494,-5.89265 -0.17148,-0.013 -0.88881,1.02351 -1.59484,2.30898 -0.70603,1.28547 -2.12939,3.7302 -3.16303,5.43285 -1.45448,2.39583 -1.8399,3.57685 -1.70474,5.2243 l 0.17472,2.12867 3.33692,0.0325 c 3.56593,0.0325 5.91792,1.08457 8.44787,3.777545 2.05326,2.1857 2.95162,1.00961 2.69518,-3.528455 z M 213.84479,97.997885 c 1.48695,0 3.09555,0.32541 3.57464,0.72298 0.75513,0.62679 0.98097,0.45986 1.6961,-1.25143 1.23396,-2.95325 1.02208,-5.33192 -0.72045,-8.08869 -0.84997,-1.3447 -2.25033,-3.7441 -3.11199,-5.33198 -0.86165,-1.58795 -1.71292,-2.87446 -1.89166,-2.85893 -0.17862,0.013 -2.04866,2.6618 -4.15525,5.88057 -3.54236,5.41246 -3.84686,6.11329 -4.05133,9.3242 -0.31242,4.903225 0.36633,5.543655 3.51846,3.32171 1.9309,-1.361 3.00033,-1.71843 5.14148,-1.71843 z M 14.038953,97.358105 c 0.92356,-2.21026 0.94363,-5.77678 0.0455,-8.62759 l -0.64497,-2.05509 -2.53112,1.65498 -2.5311195,1.65498 1.29378,2.55548 c 0.8309995,1.64147 1.2937795,3.51267 1.2937795,5.23131 0,2.541635 0.0585,2.645035 1.14641,2.06229 0.63068,-0.33775 1.49669,-1.45181 1.92472,-2.47636 z m 188.173557,-7.02529 1.14784,-1.94531 -2.57107,-1.6809 -2.571,-1.68096 -0.64497,2.05508 c -1.3664,4.35251 -0.47285,9.74035 1.83093,11.03751 0.922,0.51897 1.0432,0.2806 1.33724,-2.63452 0.17797,-1.76306 0.83989,-4.08094 1.47116,-5.1509 z m -214.565287,4.36212 c 0.039,-1.92771 0.73389,-3.55431 3.4370105,-8.0679 1.86217,-3.10938 3.38575,-5.93597 3.38575,-6.28132 0,-0.93336 -4.9583805,-5.23345 -6.0341105,-5.233 -0.15978,7e-5 -0.29034,1.34458 -0.29034,2.9878 0,2.50975 0.24162,3.2402 1.51235,4.56685 1.5771005,1.64692 2.0082505,3.44551 0.8248905,3.44142 -0.9930505,-0.003 -5.4389005,-3.05048 -6.5949105,-4.51995 l -0.98481,-1.25189 0.55924,1.54807 c 0.80586,2.23169 0.68901,4.57932 -0.32541,6.54146 -0.79105,1.52975 -0.79813,1.89212 -0.0669,3.42538 0.88828,1.86269 3.57633,5.25794 4.16258,5.25774 0.20006,-6e-5 0.38647,-1.08665 0.41505,-2.41466 z m 238.635507,-1.00656 c 0.81989,-0.97435 1.85861,-2.5432 2.30834,-3.48631 0.73116,-1.53326 0.72408,-1.89562 -0.0669,-3.42538 -1.01461,-1.96214 -1.13146,-4.30976 -0.32541,-6.54145 l 0.55924,-1.54807 -0.98487,1.25188 c -1.15595,1.46948 -5.60186,4.51658 -6.59485,4.51996 -1.18336,0.004 -0.75227,-1.7945 0.8249,-3.44143 1.2704,-1.32664 1.51228,-2.05709 1.51228,-4.56684 0,-1.64323 -0.13056,-2.98774 -0.29034,-2.9878 -1.07574,-4.6e-4 -6.03412,4.29963 -6.03412,5.233 0,0.34554 1.52359,3.17193 3.38576,6.28132 2.70312,4.51359 3.39609,6.14018 3.43707,8.0679 0.026,1.32801 0.215,2.41459 0.41505,2.41466 0.20005,6e-5 1.03436,-0.7971 1.85425,-1.77144 z M 8.3051735,86.482395 c 0.84607,-0.64368 0.83613,-0.90882 -0.13769,-3.67337 -0.57678,-1.63894 -1.04937,-3.42233 -1.04937,-3.96312 0,-0.8738 -0.30527,-0.81489 -2.74169,0.52871 -1.50793,0.83171 -2.74527,1.66544 -2.74962,1.85276 -0.0195,0.70954 4.51398,5.9828 5.12569,5.96611 0.35205,-0.006 1.05093,-0.32996 1.55249,-0.71116 z M 207.79528,82.739785 c 1.23558,-1.55184 2.24293,-2.97481 2.23858,-3.16213 -0.004,-0.18706 -1.24169,-1.02105 -2.74969,-1.85276 -2.43622,-1.34366 -2.74169,-1.40258 -2.74169,-0.52871 0,0.54105 -0.4722,2.32418 -1.04937,3.96312 -0.97357,2.76456 -0.9835,3.02982 -0.1377,3.67337 1.49825,1.13965 2.08685,0.86217 4.43968,-2.09283 z"
         id="path1" /><path
         style="fill:#000000;stroke-width:0.495229"
         d="m 51.849644,158.79936 c -1.505242,0.11399 -3.112066,-0.0554 -4.619377,-0.48702 l -0.45464,-0.13018 -0.288568,0.9361 c -0.312984,1.0153 -0.586353,1.24365 -0.958756,0.80085 -0.162738,-0.1935 -0.233261,-0.4492 -0.273318,-0.99024 -0.02956,-0.4012 -0.0776,-0.7429 -0.106757,-0.75936 -0.02916,-0.0165 -0.358361,0.22555 -0.731565,0.53778 -1.012026,0.84668 -4.105424,2.94495 -5.085423,3.44947 -1.559683,0.80294 -3.244166,1.09233 -4.742168,0.81467 -1.240809,-0.22999 -1.873175,-0.96507 -2.027446,-2.35677 -0.154571,-1.39444 0.218142,-2.66614 1.168101,-3.98558 0.725906,-1.00823 1.189162,-1.47189 2.903857,-2.90633 0.771468,-0.64539 1.516832,-1.30386 1.656368,-1.46328 0.321145,-0.36687 0.169229,-0.40857 -1.024667,-0.28129 -2.061007,0.21973 -2.494364,0.24932 -4.135747,0.28239 -2.970964,0.0598 -7.229727,-0.55999 -8.76905,-1.27627 -2.020631,-0.94024 -3.942667,-3.54087 -4.514129,-6.10791 -0.423381,-1.90184 -0.144647,-3.26725 0.926044,-4.53626 0.867368,-1.02804 1.553125,-1.47438 2.991759,-1.94728 2.381723,-0.78292 4.789875,-0.68985 8.227581,0.31798 2.424024,0.71064 4.222333,1.65504 6.556988,3.4435 0.448926,0.34391 0.828919,0.6028 0.844414,0.57534 0.01548,-0.0275 -0.146276,-0.38274 -0.359516,-0.78945 -1.01536,-1.93672 -0.874501,-3.20533 0.367827,-3.3128 0.285777,-0.0247 0.626758,0.0793 0.94805,0.28907 0.581527,0.37977 0.792874,0.64232 1.275668,1.5847 l 0.351243,0.6856 0.288065,-1.58192 c 0.340832,-1.87167 0.743973,-2.961 1.665679,-4.50093 1.237027,-2.06675 2.912644,-3.70592 4.781612,-4.67763 1.287863,-0.6696 3.614066,-1.38976 5.031193,-1.55763 2.236197,-0.26489 4.446253,0.17115 5.41591,1.06853 0.662492,0.61312 1.27435,1.95985 1.366707,3.0082 0.126223,1.43276 -0.223016,2.5248 -1.818938,5.68766 -1.810733,3.5886 -3.758742,6.28614 -6.023503,8.34115 -0.759567,0.6892 -1.372035,1.28537 -1.361045,1.3248 0.01098,0.0394 0.250499,0.16961 0.532245,0.28931 0.281745,0.11968 1.11675,0.65091 1.855571,1.18051 0.738821,0.52958 1.714384,1.1948 2.167917,1.47824 1.365119,0.85315 2.298138,2.16439 2.251099,3.16364 -0.0116,0.24651 -0.1698,0.70205 -0.351546,1.01231 -0.3976,0.67877 -1.650015,1.8955 -2.483346,2.41261 -0.72945,0.45264 -2.226644,0.87154 -3.444542,0.96391 z m -12.745351,2.6976 c 0.749531,-0.35881 3.323538,-2.19446 4.600205,-3.28062 0.884921,-0.75286 1.416718,-1.49355 1.472464,-2.05084 0.0699,-0.69887 -0.62181,-3.48409 -1.238887,-4.98846 -0.57157,-1.39344 -2.593215,-4.99697 -2.856344,-5.09134 -0.188948,-0.0678 -2.375044,-1.58359 -4.044611,-2.80447 -1.613785,-1.18009 -3.584421,-2.29667 -5.005707,-2.83626 -1.237756,-0.46992 -3.224017,-0.90033 -4.659157,-1.00963 -1.104386,-0.0841 -1.32241,-0.0584 -2.718084,0.32076 -1.420706,0.38547 -1.558635,0.44736 -2.164134,0.96206 -0.775761,0.65957 -1.228136,1.4395 -1.370352,2.3626 -0.08734,0.56691 -0.04707,0.88664 0.238338,1.89227 0.595014,2.09656 1.855021,3.82235 3.450322,4.72582 1.901616,1.07695 6.659971,1.60955 11.32651,1.26773 1.090929,-0.0799 2.152536,-0.12698 2.359117,-0.10464 0.499088,0.054 0.844782,0.35583 0.985362,0.86037 0.171016,0.61377 -0.261382,1.21377 -1.844064,2.55887 -2.013463,1.71122 -2.728102,2.476 -3.370575,3.60706 -0.431687,0.75995 -0.594161,1.21201 -0.643612,1.79075 -0.08453,0.98916 0.148617,1.86258 0.581982,2.18025 0.422465,0.30967 1.540681,0.45334 2.63429,0.33845 0.91475,-0.0961 1.166496,-0.17392 2.266945,-0.70068 z m 15.579424,-5.70414 c 0.220907,-0.17323 0.638438,-0.56609 0.927847,-0.87303 0.464594,-0.49275 0.507427,-0.59193 0.36586,-0.84724 -0.289661,-0.52241 -0.696964,-0.88459 -1.680823,-1.4946 -0.533691,-0.3309 -1.300327,-0.84694 -1.703631,-1.14676 -0.403307,-0.29984 -1.40832,-0.9016 -2.233359,-1.33725 -1.362471,-0.71944 -1.511321,-0.83248 -1.622742,-1.23237 -0.18453,-0.66227 0.263531,-1.332 1.77808,-2.65776 1.650938,-1.44515 2.458701,-2.31598 3.677893,-3.96506 1.698562,-2.29749 4.083937,-6.74192 4.434741,-8.26282 0.204825,-0.88799 0.0088,-2.04368 -0.444057,-2.61823 -0.925531,-1.1742 -4.296402,-1.20609 -7.212394,-0.0682 -0.695095,0.27122 -1.577035,0.67386 -1.959878,0.89472 -1.924327,1.11012 -4.042359,3.78988 -4.744934,6.00333 -0.340183,1.07176 -0.685756,3.42493 -0.722039,4.91671 -0.02786,1.14569 -0.02714,1.14909 0.427688,2.01578 0.250577,0.47748 0.601416,1.09195 0.779642,1.36547 0.607203,0.9319 1.610254,3.22519 1.960587,4.48252 0.392266,1.40784 0.538093,2.75936 0.462209,4.2837 -0.02836,0.56981 -0.02722,1.04892 0.0025,1.0647 0.186607,0.0989 2.377627,0.45733 2.939647,0.48092 1.884677,0.0792 3.692108,-0.31836 4.567118,-1.00451 z"
         id="path2"
         sodipodi:nodetypes="cscsscssssssssssssssssssssscsssssssssssssssccssssssssssssssssssssssssssssssssssssssssssss" /><path
         d="m 152.02019,56.001035 c -0.54623,-0.670882 -1.52797,-1.841908 -2.18164,-2.602272 -0.65368,-0.760363 -1.6472,-1.998806 -2.20783,-2.752095 -1.51564,-2.036495 -2.77397,-3.344547 -4.38569,-4.55902 -2.11478,-1.593536 -3.81174,-2.547408 -5.60238,-3.149126 -1.62422,-0.545798 -2.57348,-1.124746 -3.05891,-1.865598 -0.36444,-0.556208 -0.17938,-0.962146 0.62393,-1.368682 0.98676,-0.499374 1.6889,-0.599842 2.66433,-0.381242 0.48233,0.108088 0.90915,0.16434 0.94848,0.125005 0.0393,-0.03933 -0.26396,-0.623761 -0.67401,-1.298713 -0.92886,-1.528938 -2.79775,-5.587808 -3.40284,-7.390339 -0.98557,-2.935969 -1.18785,-5.337537 -0.70021,-8.313021 0.39486,-2.409403 0.7603,-3.503774 1.70632,-5.109957 0.83948,-1.425278 2.02279,-2.488338 2.75824,-2.477942 0.5875,0.0083 1.86169,0.735797 2.75934,1.57544 1.58283,1.480545 4.07853,5.544216 4.91805,8.007865 0.17112,0.502193 0.35479,0.913078 0.40814,0.913078 0.0533,0 0.59386,-0.739593 1.20112,-1.64354 2.05572,-3.060069 4.3297,-5.139701 7.24394,-6.624854 1.12768,-0.574685 1.48605,-0.664088 2.93827,-0.733036 1.42038,-0.06744 1.78883,-0.02049 2.60915,0.332396 1.72404,0.741664 3.18563,2.902588 3.7848,5.595708 0.52336,2.352426 0.29304,3.327162 -2.26598,9.58974 -1.09543,2.680792 -1.86774,5.829853 -2.10181,8.570029 l -0.0875,1.025048 1.95036,0.12341 c 3.67548,0.232576 5.47772,0.846401 7.19134,2.449284 1.07454,1.005105 1.78524,2.310662 1.77967,3.269265 -0.0129,2.217334 -2.66465,4.75569 -6.64485,6.360643 -2.922,1.178245 -7.56014,2.27401 -9.6254,2.27401 -0.84076,0 -0.90054,0.03314 -1.15375,0.639155 -0.14689,0.351534 -0.29685,0.639154 -0.33326,0.639154 -0.0365,0 -0.51313,-0.548904 -1.05937,-1.219793 z m 4.28967,-2.071709 c 9.04486,-1.526795 14.58284,-4.881177 13.31012,-8.062017 -0.34555,-0.863606 -1.4986,-1.905507 -2.88516,-2.607046 -1.18513,-0.599626 -2.12889,-0.663232 -5.77925,-0.389524 l -2.1241,0.159271 -0.31501,-0.480775 c -0.28197,-0.430348 -0.29463,-0.688562 -0.12072,-2.46196 0.36914,-3.763966 0.95335,-5.875716 2.91677,-10.543262 1.54386,-3.670149 1.79837,-4.730477 1.52211,-6.341463 -0.37994,-2.215608 -1.80988,-4.168933 -3.24961,-4.439024 -1.15464,-0.216615 -4.23059,1.550938 -6.52207,3.747817 -2.1957,2.10504 -4.62934,6.245899 -5.26631,8.960695 -0.10605,0.451974 -0.30576,1.039507 -0.44381,1.30563 -0.36157,0.697016 -1.11572,4.045842 -1.24816,5.542449 -0.0622,0.70307 -0.20156,2.100079 -0.30967,3.104465 l -0.19657,1.826155 1.72463,1.734848 c 2.55251,2.567625 3.44062,3.878345 4.98036,7.350277 1.01337,2.285038 0.68447,2.154223 4.00645,1.593464 z M 143.16389,40.922389 c -0.0721,-0.326422 -0.12369,-1.497448 -0.11472,-2.602272 0.0176,-2.173147 0.56765,-4.847511 1.70324,-8.281805 l 0.56466,-1.70765 -0.68429,-1.853354 c -1.06708,-2.890143 -2.31267,-5.23167 -3.87527,-7.284952 -1.17569,-1.544877 -1.38346,-1.604716 -1.98829,-0.572651 -0.79863,1.362765 -1.30549,2.989 -1.55519,4.989834 -0.42328,3.391689 0.3239,6.092408 3.41304,12.336576 0.94411,1.908332 1.86243,3.941088 2.04072,4.517226 0.34455,1.113365 0.71652,1.457574 0.4961,0.459048 z"
         style="fill:#000000;stroke-width:0.718959"
         id="path1-2" /></g></g></svg>
