<?xml version="1.0" encoding="UTF-8" standalone="no"?>
<svg
   width="1150.449"
   height="905.104"
   viewBox="0 0 304.39 239.475"
   version="1.1"
   id="svg2"
   sodipodi:docname="womb.svg"
   inkscape:version="1.3.2 (1:1.3.2+202311252150+091e20ef0f)"
   xmlns:inkscape="http://www.inkscape.org/namespaces/inkscape"
   xmlns:sodipodi="http://sodipodi.sourceforge.net/DTD/sodipodi-0.dtd"
   xmlns:xlink="http://www.w3.org/1999/xlink"
   xmlns="http://www.w3.org/2000/svg"
   xmlns:svg="http://www.w3.org/2000/svg">
  <defs
     id="defs2">
    <linearGradient
       id="linearGradient2"
       inkscape:collect="always">
      <stop
         style="stop-color:#a05a2c;stop-opacity:1"
         offset="0"
         id="stop2" />
      <stop
         style="stop-color:#c87137;stop-opacity:1"
         offset="0.25627768"
         id="stop5" />
      <stop
         style="stop-color:#deaa87;stop-opacity:1"
         offset="0.57303023"
         id="stop4" />
      <stop
         style="stop-color:#c87137;stop-opacity:1"
         offset="0.78069925"
         id="stop6" />
      <stop
         style="stop-color:#a05a2c;stop-opacity:1"
         offset="1"
         id="stop3" />
    </linearGradient>
    <linearGradient
       inkscape:collect="always"
       xlink:href="#linearGradient2"
       id="linearGradient3"
       x1="145.88008"
       y1="1.5518435"
       x2="145.88008"
       y2="236.11874"
       gradientUnits="userSpaceOnUse" />
  </defs>
  <sodipodi:namedview
     id="namedview2"
     pagecolor="#ffffff"
     bordercolor="#000000"
     borderopacity="0.25"
     inkscape:showpageshadow="2"
     inkscape:pageopacity="0.0"
     inkscape:pagecheckerboard="0"
     inkscape:deskcolor="#d1d1d1"
     inkscape:zoom="0.45077693"
     inkscape:cx="476.95432"
     inkscape:cy="598.96588"
     inkscape:window-width="1850"
     inkscape:window-height="1016"
     inkscape:window-x="0"
     inkscape:window-y="0"
     inkscape:window-maximized="1"
     inkscape:current-layer="svg2" />
  <g
     id="g2"
     style="fill-opacity:1;fill:url(#linearGradient3)">
    <path
       d="M130.574 237.69c1.15-2.216 2.372-8.583 2.373-12.36 0-3.369-2.168-10.387-4.14-13.397-.73-1.115-3.965-5.446-7.189-9.624-6.712-8.7-8.932-12.946-11.003-21.05-1.339-5.24-1.442-6.372-1.153-12.649.37-8.009.876-10.744 3.522-18.992 1.685-5.256 1.977-6.988 2.22-13.199.51-12.927-1.674-22.685-7.827-34.985-3.37-6.737-4.824-9.132-8.891-14.646-4.678-6.34-2.416-5.033 6.993 4.04 5.632 5.433 12.125 17.025 14.603 26.069 1.258 4.595 1.5 27.095.324 30.246-1.29 3.456-3.463 16.092-3.785 22.008-.283 5.197-.17 6.264 1.12 10.49 1.999 6.554 3.29 9.27 5.745 12.087 3.625 4.16 12.252 16.049 13.676 18.847 1.824 3.584 3.485 10.291 3.481 14.058-.007 6.484-1.927 9.85-7.291 12.782l-3.678 2.01zm40.339-.278c-5.24-2.957-7.16-6.38-7.167-12.779-.004-3.767 1.657-10.474 3.481-14.058 1.424-2.798 10.052-14.688 13.677-18.847 2.455-2.818 3.746-5.533 5.745-12.087 1.289-4.226 1.403-5.293 1.12-10.49-.322-5.916-2.496-18.552-3.785-22.008-1.176-3.15-.935-25.652.324-30.246 2.477-9.044 8.971-20.636 14.603-26.068 9.408-9.074 11.671-10.382 6.993-4.04-4.067 5.513-5.522 7.908-8.891 14.645-6.153 12.3-8.336 22.058-7.828 34.985.244 6.211.536 7.943 2.221 13.199 2.645 8.248 3.152 10.983 3.521 18.992.29 6.277.186 7.41-1.153 12.648-2.07 8.105-4.29 12.351-11.002 21.05-3.224 4.179-6.46 8.51-7.19 9.624-1.971 3.011-4.14 10.029-4.14 13.398.002 3.812 1.227 10.15 2.401 12.414.51.983.859 1.762.776 1.73-.084-.032-1.752-.959-3.706-2.062zM29.01 107.102c-13.953-3.79-21.795-9.25-26.38-18.368-4.6-9.149-3.264-17.187 4.758-28.655 3.665-5.24 9.196-10.937 13.072-13.467 3.062-2 9.522-4.2 14.805-5.044 7.207-1.151 25.262-1.725 35.664-1.133 15.012.854 24.06.749 27.215-.316 1.447-.489 4.859-2.208 7.58-3.82 6.305-3.734 11.12-5.309 21.639-7.074 7.754-1.301 9.769-1.416 24.83-1.416 15.063 0 17.077.115 24.832 1.416 10.518 1.765 15.333 3.34 21.638 7.074 2.722 1.612 6.133 3.331 7.58 3.82 3.155 1.065 12.204 1.17 27.215.316 10.403-.592 28.457-.02 35.665 1.133 5.283.844 11.742 3.044 14.805 5.044 3.876 2.53 9.406 8.228 13.071 13.467 8.023 11.468 9.358 19.506 4.758 28.655-4.667 9.283-13.094 15.019-27.287 18.573-9.586 2.4-18.267 1.376-22.666-2.673-2.833-2.607-3.585-7.302-1.942-12.124.698-2.047.742-2.754.213-3.392-.368-.443-.893-.667-1.167-.497-1.02.63-4.316-1-6.173-3.055-1.07-1.186-2.343-3.47-2.88-5.172-1.131-3.591-.64-6.087 2.026-10.29 1.83-2.884 1.917-3.6.779-6.43-.82-2.038-.819-2.04.225-.808.576.681 1.255 1.247 1.51 1.259.253.013 1.14 1.001 1.968 2.2.83 1.198 1.724 2.178 1.988 2.178.718 0 2.28-4.451 2.28-6.497 0-1.08-.327-1.911-.825-2.103-1.168-.448-1.027-1.848.186-1.848.557 0 1.29.61 1.629 1.355.345.758 1.871 1.99 3.465 2.798l2.847 1.442-.352-2.523-.697-4.986c-.256-1.827-.107-2.827.574-3.867 1.116-1.703 2.178-1.324 1.354.484-.631 1.386.252 5.847 1.157 5.847.274 0 .935.74 1.47 1.645l.972 1.645 1.67-1.587c2.085-1.98 7.685-5.553 8.703-5.553 1.43 0 1.462.704.103 2.318-1.597 1.898-1.651 2.428-.487 4.762l.873 1.75 1.877-1.16c1.032-.638 1.877-.907 1.877-.598 0 .31-.224.7-.498.87-.838.518-.039 4.834 1.411 7.61 2.164 4.142 2.466 5.74 1.518 8.023-1.219 2.933-6.533 8.059-9.81 9.462-1.537.658-3.725 2.033-4.863 3.056-1.137 1.023-3.178 2.157-4.536 2.52-2.36.63-2.47.75-2.47 2.687 0 2.3.352 2.533 4.584 3.03 5.242.614 20.535-2.46 24.868-4.999 7.362-4.314 11.273-13.534 8.761-20.653-2.401-6.808-11.811-18.598-16.94-21.226-7.69-3.94-23.906-5.31-51.794-4.372-19.373.652-21.926.143-32.386-6.455-5.863-3.699-9.315-4.902-18.757-6.541-6.363-1.104-8.993-1.24-23.922-1.24-14.928 0-17.559.136-23.922 1.24-9.441 1.639-12.893 2.842-18.756 6.54-10.46 6.599-13.014 7.108-32.387 6.456-27.888-.937-44.104.432-51.794 4.372-5.128 2.628-14.538 14.418-16.94 21.226-2.512 7.12 1.4 16.339 8.761 20.653 4.333 2.54 19.627 5.613 24.868 4.998 3.9-.457 4.584-.8 4.584-2.292 0-.988-.549-1.536-2.337-2.336-1.286-.575-2.832-1.602-3.436-2.282-.604-.68-2.584-1.923-4.4-2.762-3.755-1.736-8.572-6.347-9.855-9.433-.948-2.283-.647-3.88 1.517-8.023 1.45-2.775 2.25-7.091 1.41-7.61-.273-.168-.497-.56-.497-.87 0-.308.845-.038 1.877.598l1.877 1.16.873-1.75c1.164-2.333 1.11-2.863-.487-4.76-1.358-1.616-1.327-2.319.103-2.319 1.019 0 6.619 3.573 8.702 5.552l1.672 1.588.972-1.645c.534-.905 1.195-1.646 1.47-1.646.905 0 1.787-4.46 1.156-5.847-.823-1.807.238-2.186 1.354-.484.682 1.04.83 2.041.574 3.867l-.697 4.987-.352 2.523 2.847-1.443c1.594-.807 3.12-2.04 3.465-2.798.34-.745 1.073-1.355 1.63-1.355 1.212 0 1.354 1.4.186 1.849-.499.192-.825 1.022-.825 2.103 0 2.045 1.562 6.497 2.28 6.497.264 0 1.159-.98 1.988-2.179.828-1.198 1.714-2.188 1.968-2.2.254-.013.934-.577 1.51-1.258 1.044-1.233 1.045-1.23.225.807-1.138 2.831-1.051 3.547.779 6.432 2.666 4.201 3.157 6.697 2.025 10.289-1.143 3.625-4.043 7.046-6.724 7.93-1.058.35-2.074.487-2.256.305-.182-.182-.791.086-1.354.595-.864.783-.967 1.417-.665 4.093.197 1.742.193 4.053-.013 5.136-1.387 7.398-13.129 10.539-26.161 7zm24.654-23.746c-.193-3.41-.426-3.955-4.043-9.482-2.111-3.225-3.978-5.877-4.15-5.892-.17-.013-.888 1.023-1.594 2.309a180.34 180.34 0 01-3.163 5.432c-1.455 2.396-1.84 3.577-1.705 5.225l.175 2.128 3.337.033c3.566.032 5.918 1.084 8.447 3.777 2.054 2.186 2.952 1.01 2.696-3.528zm207.37-.216c1.486 0 3.095.325 3.574.723.755.627.98.46 1.696-1.252 1.234-2.953 1.022-5.331-.72-8.088-.85-1.345-2.25-3.744-3.113-5.332-.861-1.588-1.712-2.875-1.891-2.86-.179.014-2.049 2.663-4.155 5.881-3.543 5.413-3.847 6.114-4.052 9.325-.312 4.903.367 5.543 3.519 3.321 1.93-1.36 3-1.718 5.141-1.718zM61.227 82.5c.924-2.21.944-5.777.046-8.627l-.645-2.056-2.531 1.655-2.531 1.655 1.293 2.556c.831 1.641 1.294 3.513 1.294 5.231 0 2.542.059 2.645 1.147 2.063.63-.338 1.496-1.452 1.924-2.477zm188.174-7.025l1.148-1.945-2.571-1.681-2.571-1.681-.645 2.055c-1.367 4.352-.473 9.74 1.83 11.037.923.52 1.044.28 1.338-2.634.178-1.763.84-4.081 1.471-5.151zM34.837 79.837c.039-1.928.733-3.554 3.437-8.068 1.862-3.11 3.385-5.936 3.385-6.281 0-.934-4.958-5.234-6.034-5.233-.16 0-.29 1.344-.29 2.988 0 2.51.241 3.24 1.512 4.566 1.577 1.647 2.008 3.446.825 3.442-.993-.003-5.439-3.05-6.595-4.52l-.985-1.252.56 1.548c.805 2.232.689 4.58-.326 6.542-.79 1.53-.798 1.892-.067 3.425.889 1.863 3.577 5.258 4.163 5.258.2 0 .386-1.087.415-2.415zm238.635-1.007c.82-.974 1.859-2.543 2.308-3.486.732-1.533.724-1.896-.066-3.425-1.015-1.962-1.132-4.31-.326-6.542l.56-1.548-.986 1.252c-1.155 1.47-5.601 4.517-6.594 4.52-1.184.004-.753-1.794.825-3.441 1.27-1.327 1.512-2.057 1.512-4.567 0-1.643-.13-2.988-.29-2.988-1.076 0-6.035 4.3-6.035 5.233 0 .346 1.524 3.172 3.386 6.281 2.703 4.514 3.396 6.14 3.437 8.068.026 1.328.215 2.415.415 2.415.2 0 1.035-.797 1.854-1.772zM55.495 71.624c.846-.643.836-.908-.138-3.673-.577-1.639-1.05-3.422-1.05-3.963 0-.874-.305-.815-2.741.529-1.508.831-2.746 1.665-2.75 1.852-.02.71 4.514 5.983 5.126 5.967.352-.006 1.05-.33 1.552-.712zm199.49-3.742c1.235-1.552 2.243-2.975 2.238-3.162-.004-.187-1.241-1.021-2.75-1.853-2.436-1.344-2.741-1.403-2.741-.529 0 .541-.472 2.324-1.05 3.963-.973 2.765-.983 3.03-.137 3.674 1.498 1.14 2.087.862 4.44-2.093z"
       id="path1"
       style="fill-opacity:1;fill:url(#linearGradient3)" />
    <path
       d="M99.039 143.941a13.36 13.36 0 01-4.62-.487l-.454-.13-.289.936c-.313 1.016-.586 1.244-.958.801-.163-.193-.234-.449-.274-.99-.03-.401-.077-.743-.106-.76-.03-.016-.359.226-.732.538-1.012.847-4.105 2.945-5.085 3.45-1.56.803-3.245 1.092-4.743.814-1.24-.23-1.873-.965-2.027-2.356-.155-1.395.218-2.666 1.168-3.986.726-1.008 1.19-1.472 2.904-2.906.771-.646 1.517-1.304 1.656-1.463.321-.367.17-.41-1.024-.282-2.061.22-2.495.25-4.136.283-2.971.06-7.23-.56-8.77-1.277-2.02-.94-3.942-3.54-4.513-6.108-.424-1.901-.145-3.267.926-4.536.867-1.028 1.553-1.474 2.991-1.947 2.382-.783 4.79-.69 8.228.318 2.424.71 4.222 1.655 6.557 3.443.449.344.829.603.844.576.016-.028-.146-.383-.359-.79-1.015-1.936-.875-3.205.368-3.313.286-.024.627.08.948.29.581.38.793.642 1.276 1.584l.35.686.289-1.582c.34-1.872.744-2.961 1.665-4.501 1.238-2.067 2.913-3.706 4.782-4.678 1.288-.67 3.614-1.39 5.031-1.557 2.236-.265 4.447.17 5.416 1.068.663.613 1.275 1.96 1.367 3.008.126 1.433-.223 2.525-1.819 5.688-1.81 3.589-3.759 6.286-6.024 8.341-.76.69-1.372 1.286-1.36 1.325.01.04.25.17.532.29.281.12 1.116.65 1.855 1.18a53.48 53.48 0 002.168 1.478c1.365.853 2.298 2.165 2.251 3.164-.011.246-.17.702-.351 1.012-.398.679-1.65 1.896-2.484 2.413-.73.452-2.226.871-3.444.964zm-12.745 2.698c.75-.359 3.323-2.194 4.6-3.28.885-.753 1.417-1.494 1.472-2.051.07-.7-.622-3.485-1.239-4.989-.571-1.393-2.593-4.997-2.856-5.091-.189-.068-2.375-1.584-4.045-2.805-1.613-1.18-3.584-2.296-5.005-2.836-1.238-.47-3.224-.9-4.66-1.01-1.104-.084-1.322-.058-2.717.321-1.421.386-1.56.448-2.165.962-.775.66-1.228 1.44-1.37 2.363-.087.567-.047.886.238 1.892.595 2.097 1.855 3.822 3.45 4.726 1.902 1.077 6.66 1.61 11.327 1.268 1.091-.08 2.153-.127 2.36-.105.498.054.844.356.985.86.17.614-.262 1.214-1.844 2.56-2.014 1.71-2.728 2.475-3.371 3.606-.432.76-.594 1.212-.644 1.791-.084.99.149 1.863.582 2.18.423.31 1.541.454 2.635.339.914-.096 1.166-.174 2.267-.7zm15.58-5.704c.22-.173.637-.566.927-.873.464-.493.507-.592.366-.847-.29-.523-.697-.885-1.681-1.495a29.84 29.84 0 01-1.704-1.147c-.403-.3-1.408-.901-2.233-1.337-1.363-.72-1.511-.832-1.623-1.232-.184-.663.264-1.332 1.778-2.658 1.651-1.445 2.459-2.316 3.678-3.965 1.699-2.298 4.084-6.742 4.435-8.263.205-.888.009-2.044-.444-2.618-.926-1.174-4.297-1.206-7.213-.068-.695.27-1.577.673-1.96.894-1.924 1.11-4.042 3.79-4.744 6.004-.34 1.071-.686 3.425-.722 4.916-.028 1.146-.028 1.15.427 2.016.25.478.602 1.092.78 1.366.607.931 1.61 3.225 1.96 4.482.393 1.408.539 2.76.463 4.284-.029.57-.027 1.049.002 1.064.187.1 2.378.458 2.94.481 1.885.08 3.692-.318 4.567-1.004zm97.336-99.792c-.547-.67-1.528-1.842-2.182-2.602a60.886 60.886 0 01-2.208-2.752c-1.516-2.037-2.774-3.345-4.386-4.56-2.114-1.593-3.811-2.547-5.602-3.148-1.624-.546-2.573-1.125-3.059-1.866-.364-.556-.18-.962.624-1.369.987-.5 1.689-.6 2.664-.381.483.108.91.164.949.125.04-.04-.264-.624-.674-1.299-.93-1.529-2.798-5.587-3.403-7.39-.986-2.936-1.188-5.338-.7-8.313.395-2.41.76-3.504 1.706-5.11.84-1.425 2.023-2.488 2.758-2.478.588.008 1.862.736 2.76 1.576 1.582 1.48 4.078 5.544 4.918 8.007.17.503.354.913.408.913.053 0 .594-.74 1.201-1.643 2.056-3.06 4.33-5.14 7.244-6.625 1.128-.575 1.486-.664 2.938-.733 1.42-.067 1.789-.02 2.61.332 1.723.742 3.185 2.903 3.784 5.596.523 2.353.293 3.327-2.266 9.59-1.095 2.68-1.868 5.83-2.102 8.57l-.087 1.025 1.95.123c3.676.233 5.478.847 7.192 2.45 1.074 1.005 1.785 2.31 1.78 3.269-.014 2.217-2.665 4.756-6.646 6.36-2.922 1.179-7.56 2.275-9.625 2.275-.84 0-.9.033-1.154.639-.147.351-.297.639-.333.639-.037 0-.513-.549-1.06-1.22zm4.29-2.072c9.044-1.526 14.582-4.88 13.31-8.062-.346-.863-1.5-1.905-2.886-2.607-1.185-.6-2.129-.663-5.78-.39l-2.123.16-.315-.48c-.282-.431-.295-.69-.12-2.463.368-3.764.952-5.875 2.916-10.543 1.544-3.67 1.798-4.73 1.522-6.341-.38-2.216-1.81-4.17-3.25-4.44-1.154-.216-4.23 1.552-6.522 3.748-2.195 2.105-4.63 6.246-5.266 8.961-.106.452-.306 1.04-.444 1.306-.361.697-1.116 4.046-1.248 5.542-.062.703-.202 2.1-.31 3.105l-.196 1.826 1.724 1.735c2.553 2.567 3.441 3.878 4.98 7.35 1.014 2.285.685 2.154 4.007 1.593zm-13.147-13.007c-.072-.326-.123-1.497-.114-2.602.017-2.173.567-4.847 1.703-8.282l.564-1.707-.684-1.854c-1.067-2.89-2.313-5.231-3.875-7.285-1.176-1.544-1.384-1.604-1.988-.572-.8 1.363-1.306 2.989-1.556 4.99-.423 3.391.324 6.092 3.413 12.336.945 1.908 1.863 3.941 2.041 4.517.345 1.114.717 1.458.496.46z"
       id="path2"
       style="fill-opacity:1;fill:url(#linearGradient3)" />
  </g>
</svg>
