<?xml version="1.0" encoding="UTF-8" standalone="no"?>
<!-- Created with Inkscape (http://www.inkscape.org/) -->

<svg
   width="304.38971mm"
   height="211.66669mm"
   viewBox="0 0 304.38971 211.66669"
   version="1.1"
   id="svg1"
   xml:space="preserve"
   xmlns:inkscape="http://www.inkscape.org/namespaces/inkscape"
   xmlns:sodipodi="http://sodipodi.sourceforge.net/DTD/sodipodi-0.dtd"
   xmlns="http://www.w3.org/2000/svg"
   xmlns:svg="http://www.w3.org/2000/svg"><sodipodi:namedview
     id="namedview1"
     pagecolor="#ffffff"
     bordercolor="#000000"
     borderopacity="0.25"
     inkscape:showpageshadow="2"
     inkscape:pageopacity="0.0"
     inkscape:pagecheckerboard="0"
     inkscape:deskcolor="#d1d1d1"
     inkscape:document-units="mm" /><defs
     id="defs1" /><g
     inkscape:label="Layer 1"
     inkscape:groupmode="layer"
     id="layer1"
     transform="translate(373.52985,-71.412458)"><path
       style="fill:#000000;stroke-width:6.49521"
       d="m -242.95607,281.29464 c 1.14998,-2.2172 2.37212,-8.58348 2.37296,-12.3611 7.2e-4,-3.36874 -2.16777,-10.38649 -4.13979,-13.39728 -0.73019,-1.11471 -3.96519,-5.44539 -7.18896,-9.6237 -6.71215,-8.69968 -8.93157,-12.94573 -11.00263,-21.05026 -1.33886,-5.23911 -1.44207,-6.37161 -1.1529,-12.64839 0.36893,-8.00918 0.87601,-10.74393 3.52131,-18.99239 1.68538,-5.25541 1.97682,-6.98742 2.22104,-13.19827 0.50858,-12.92703 -1.67511,-22.68563 -7.82757,-34.98555 -3.36965,-6.73651 -4.82413,-9.1322 -8.89149,-14.64547 -4.67811,-6.34121 -2.41544,-5.03385 6.99287,4.04028 5.632,5.43195 12.12559,17.02389 14.60312,26.06828 1.25851,4.59451 1.49968,27.0951 0.32411,30.24605 -1.28949,3.45617 -3.46259,16.09228 -3.78489,22.00806 -0.28319,5.19694 -0.16952,6.26346 1.11978,10.48963 1.99903,6.5538 3.28995,9.26977 5.74514,12.08707 3.62491,4.15967 12.25244,16.04889 13.67651,18.84716 1.82386,3.58367 3.48469,10.2914 3.48092,14.05837 -0.007,6.48313 -1.92681,9.84933 -7.29179,12.78186 l -3.67732,2.01014 z m 40.33878,-0.27864 c -5.23963,-2.95682 -7.15974,-6.3809 -7.16617,-12.77894 -0.004,-3.76696 1.65712,-10.4747 3.48091,-14.05837 1.42408,-2.79826 10.0516,-14.68749 13.67658,-18.84715 2.45512,-2.8173 3.74605,-5.53327 5.74508,-12.08707 1.2891,-4.22618 1.4029,-5.29269 1.11977,-10.48964 -0.32216,-5.91577 -2.49539,-18.55188 -3.78482,-22.00805 -1.17557,-3.15096 -0.93447,-25.65154 0.32411,-30.24606 2.47747,-9.04439 8.97112,-20.63633 14.60306,-26.06827 9.40831,-9.07414 11.67105,-10.38149 6.99287,-4.04028 -4.0673,5.51326 -5.52177,7.90896 -8.89143,14.64547 -6.15252,12.29991 -8.33589,22.05851 -7.82763,34.98554 0.24422,6.21086 0.53585,7.94287 2.2211,13.19828 2.64524,8.24846 3.15225,10.9832 3.52125,18.99238 0.28903,6.27678 0.18576,7.40929 -1.1529,12.64839 -2.07107,8.10453 -4.29042,12.35058 -11.00263,21.05027 -3.22377,4.1783 -6.45878,8.50898 -7.1889,9.62369 -1.97208,3.01079 -4.14057,10.02855 -4.13986,13.39729 8.5e-4,3.81217 1.22637,10.15039 2.40031,12.41391 0.50987,0.98298 0.85867,1.76189 0.77527,1.73084 -0.0831,-0.0325 -1.75105,-0.95902 -3.70597,-2.06223 z M -344.51884,150.70581 c -13.95327,-3.78969 -21.79494,-9.24996 -26.37952,-18.36839 -4.59958,-9.14831 -3.26488,-17.18659 4.75781,-28.65473 3.66505,-5.239035 9.19546,-10.936835 13.07155,-13.467105 3.06262,-1.99936 9.52198,-4.19994 14.80505,-5.04392 7.20741,-1.15141 25.26189,-1.72513 35.66436,-1.13335 15.01148,0.85405 24.06002,0.74903 27.21494,-0.31567 1.44727,-0.48844 4.85862,-2.2074 7.58076,-3.81983 6.30438,-3.73443 11.11954,-5.30861 21.63763,-7.07394 7.75476,-1.30151 9.76925,-1.41641 24.83126,-1.41641 15.06207,0 17.07656,0.11497 24.83126,1.41641 10.51808,1.76533 15.33331,3.33951 21.63769,7.07394 2.72215,1.61243 6.13343,3.33139 7.58069,3.81983 3.15492,1.06476 12.20347,1.16979 27.21494,0.31567 10.40247,-0.59172 28.45696,-0.0195 35.66437,1.13335 5.283069,0.84398 11.742429,3.04456 14.805119,5.04392 3.87602,2.53027 9.40649,8.22807 13.07155,13.467105 8.02269,11.46814 9.35732,19.50642 4.75774,28.65473 -4.66765,9.28367 -13.09435,15.01933 -27.28723,18.57306 -9.585759,2.40017 -18.266739,1.37659 -22.665689,-2.67252 -2.83295,-2.60764 -3.58497,-7.30257 -1.94194,-12.12442 0.69733,-2.04671 0.74169,-2.75397 0.21239,-3.39148 -0.36763,-0.44297 -0.89276,-0.66686 -1.16686,-0.49753 -1.02066,0.63069 -4.31607,-1.00033 -6.17247,-3.05509 -1.07086,-1.18531 -2.34321,-3.47058 -2.87945,-5.17187 -1.13205,-3.59127 -0.64108,-6.08712 2.02507,-10.28894 1.83003,-2.88439 1.91668,-3.60036 0.77871,-6.43117 -0.81917,-2.03781 -0.81846,-2.04047 0.22539,-0.80722 0.57612,0.6805 1.25533,1.24675 1.50929,1.25818 0.25396,0.013 1.13997,1.00137 1.96883,2.19974 0.82892,1.19836 1.72331,2.17882 1.98753,2.17882 0.71779,0 2.27969,-4.45163 2.27969,-6.49729 0,-1.08035 -0.32606,-1.91122 -0.82489,-2.1027 -1.16777,-0.44817 -1.02637,-1.8486 0.18641,-1.8486 0.55664,0 1.28943,0.6099 1.62894,1.35496 0.34554,0.75826 1.8714,1.99046 3.46481,2.79795 l 2.84743,1.44284 -0.35204,-2.52293 c -0.19356,-1.38757 -0.50728,-3.63167 -0.6972,-4.986825 -0.25591,-1.82619 -0.10717,-2.82704 0.57418,-3.86699 1.11562,-1.70265 2.17752,-1.32327 1.35412,0.48389 -0.63133,1.38602 0.25137,5.847115 1.15687,5.847115 0.27344,0 0.93498,0.74039 1.46954,1.64531 l 0.97188,1.6453 1.67134,-1.58763 c 2.08393,-1.97954 7.68371,-5.552425 8.70235,-5.552425 1.430379,0 1.461559,0.70337 0.10263,2.318205 -1.59666,1.89751 -1.65089,2.42797 -0.48649,4.76157 l 0.87282,1.74955 1.876859,-1.15998 c 1.03222,-0.63783 1.87686,-0.90692 1.87686,-0.59756 0,0.30917 -0.22409,0.70071 -0.49754,0.86984 -0.83866,0.51832 -0.039,4.83465 1.41076,7.60966 2.16349,4.14284 2.46559,5.74002 1.51741,8.02315 -1.21804,2.93291 -6.532229,8.05887 -9.809839,9.46229 -1.53697,0.65803 -3.72494,2.03326 -4.86219,3.05599 -1.13731,1.02274 -3.17895,2.15674 -4.53691,2.51995 -2.35945,0.63069 -2.46915,0.75039 -2.46915,2.6872 0,2.29976 0.35204,2.53255 4.58374,3.02911 5.24157,0.61509 20.535059,-2.4587 24.868209,-4.99807 7.36207,-4.31444 11.27283,-13.53401 8.76094,-20.65354 -2.4018,-6.80743 -11.81135,-18.597215 -16.94016,-21.225375 -7.689809,-3.94045 -23.905889,-5.30925 -51.793729,-4.37186 -19.37314,0.65121 -21.92667,0.14225 -32.38682,-6.45578 -5.86303,-3.69825 -9.31472,-4.90188 -18.75648,-6.54055 -6.36304,-1.10432 -8.99314,-1.24072 -23.92187,-1.24072 -14.92872,0 -17.55876,0.1364 -23.92186,1.24072 -9.44177,1.63867 -12.89345,2.8423 -18.75642,6.54055 -10.46021,6.59796 -13.01374,7.10699 -32.38688,6.45578 -27.88784,-0.93739 -44.10392,0.43128 -51.79373,4.37186 -5.12881,2.62816 -14.53829,14.417945 -16.94016,21.225375 -2.51189,7.11953 1.39894,16.3391 8.76094,20.65354 4.33315,2.53937 19.62671,5.6131 24.86828,4.99807 3.8996,-0.45727 4.58367,-0.79976 4.58367,-2.29255 0,-0.98727 -0.54884,-1.5358 -2.33717,-2.33601 -1.28547,-0.57482 -2.83152,-1.60191 -3.43571,-2.2817 -0.60405,-0.67979 -2.58392,-1.92252 -4.39947,-2.7617 -3.75572,-1.73597 -8.57309,-6.34673 -9.85544,-9.4328 -0.94869,-2.28307 -0.64692,-3.87985 1.51696,-8.02314 1.44914,-2.77502 2.24935,-7.09135 1.41069,-7.60966 -0.27345,-0.16888 -0.49753,-0.56054 -0.49753,-0.86984 0,-0.30918 0.84457,-0.039 1.87686,0.59756 l 1.87685,1.15998 0.87276,-1.74955 c 1.16414,-2.3336 1.10997,-2.86407 -0.48649,-4.76158 -1.3588,-1.61484 -1.32762,-2.31821 0.10263,-2.31821 1.01864,0 6.61849,3.57289 8.70235,5.55244 l 1.67134,1.58762 0.97195,-1.6453 c 0.53455,-0.90491 1.19583,-1.6453 1.46954,-1.6453 0.90569,0 1.78826,-4.461105 1.1568,-5.847115 -0.82334,-1.80704 0.23837,-2.18642 1.35412,-0.4839 0.68141,1.03995 0.82996,2.0408 0.57417,3.866985 -0.18966,1.35516 -0.50337,3.59926 -0.69719,4.98683 l -0.35204,2.52294 2.84743,-1.44285 c 1.59341,-0.80748 3.11933,-2.03969 3.46481,-2.79794 0.3397,-0.74526 1.07262,-1.35497 1.62893,-1.35497 1.21305,0 1.35451,1.4005 0.18706,1.8486 -0.49883,0.19161 -0.82489,1.02235 -0.82489,2.1027 0,2.04567 1.56191,6.49729 2.27963,6.49729 0.26435,0 1.15861,-0.98045 1.98753,-2.17882 0.82886,-1.19837 1.71487,-2.18824 1.96883,-2.19973 0.25396,-0.013 0.93317,-0.57743 1.50936,-1.25819 1.04404,-1.23325 1.04482,-1.23058 0.22538,0.80722 -1.13802,2.83081 -1.05131,3.54678 0.77865,6.43117 2.66589,4.20182 3.15713,6.69767 2.02514,10.28894 -1.14303,3.62589 -4.04249,7.0462 -6.72345,7.93098 -1.05892,0.34944 -2.07425,0.48649 -2.25631,0.30462 -0.18187,-0.18186 -0.79131,0.0857 -1.35399,0.59496 -0.86445,0.78235 -0.96746,1.41674 -0.66472,4.09303 0.1968,1.74188 0.19226,4.05327 -0.013,5.13628 -1.3877,7.39733 -13.12942,10.53848 -26.16174,6.99885 z m 24.65362,-23.74584 c -0.19291,-3.4096 -0.42544,-3.95487 -4.04262,-9.48197 -2.11101,-3.2254 -3.97825,-5.87707 -4.1494,-5.89265 -0.17148,-0.013 -0.88881,1.02351 -1.59484,2.30898 -0.70603,1.28547 -2.12939,3.7302 -3.16303,5.43285 -1.45448,2.39583 -1.8399,3.57685 -1.70474,5.2243 l 0.17472,2.12867 3.33692,0.0325 c 3.56593,0.0325 5.91792,1.08457 8.44787,3.77755 2.05326,2.1857 2.95162,1.00961 2.69518,-3.52846 z m 207.36951,-0.21629 c 1.48695,0 3.09555,0.32541 3.57464,0.72298 0.75513,0.62679 0.98097,0.45986 1.6961,-1.25143 1.23396,-2.95325 1.02208,-5.33192 -0.72045,-8.08869 -0.84997,-1.3447 -2.25033,-3.7441 -3.11199,-5.33198 -0.86165,-1.58795 -1.71292,-2.87446 -1.89166,-2.85893 -0.17862,0.013 -2.04866,2.6618 -4.15525,5.88057 -3.54236,5.41246 -3.84686,6.11329 -4.05133,9.3242 -0.31242,4.90323 0.36633,5.54366 3.51846,3.32171 1.9309,-1.361 3.00033,-1.71843 5.14148,-1.71843 z m -199.80584,-0.63978 c 0.92356,-2.21026 0.94363,-5.77678 0.0455,-8.62759 l -0.64497,-2.05509 -2.53112,1.65498 -2.53112,1.65498 1.29378,2.55548 c 0.831,1.64147 1.29378,3.51267 1.29378,5.23131 0,2.54164 0.0585,2.64504 1.14641,2.06229 0.63068,-0.33775 1.49669,-1.45181 1.92472,-2.47636 z m 188.17356,-7.02529 1.14784,-1.94531 -2.57107,-1.6809 -2.571,-1.68096 -0.64497,2.05508 c -1.3664,4.35251 -0.47285,9.74035 1.83093,11.03751 0.922,0.51897 1.0432,0.2806 1.33724,-2.63452 0.17797,-1.76306 0.83989,-4.08094 1.47116,-5.1509 z m -214.56529,4.36212 c 0.039,-1.92771 0.73389,-3.55431 3.43701,-8.0679 1.86217,-3.10938 3.38575,-5.93597 3.38575,-6.28132 0,-0.93336 -4.95838,-5.23345 -6.03411,-5.233 -0.15978,7e-5 -0.29034,1.34458 -0.29034,2.9878 0,2.50975 0.24162,3.2402 1.51235,4.56685 1.5771,1.64692 2.00825,3.44551 0.82489,3.44142 -0.99305,-0.003 -5.4389,-3.05048 -6.59491,-4.51995 l -0.98481,-1.25189 0.55924,1.54807 c 0.80586,2.23169 0.68901,4.57932 -0.32541,6.54146 -0.79105,1.52975 -0.79813,1.89212 -0.0669,3.42538 0.88828,1.86269 3.57633,5.25794 4.16258,5.25774 0.20006,-6e-5 0.38647,-1.08665 0.41505,-2.41466 z m 238.63551,-1.00656 c 0.819889,-0.97435 1.858609,-2.5432 2.308339,-3.48631 0.73116,-1.53326 0.72408,-1.89562 -0.0669,-3.42538 -1.01461,-1.96214 -1.13146,-4.30976 -0.32541,-6.54145 l 0.55924,-1.54807 -0.98487,1.25188 c -1.15595,1.46948 -5.601859,4.51658 -6.594849,4.51996 -1.18336,0.004 -0.75227,-1.7945 0.8249,-3.44143 1.2704,-1.32664 1.51228,-2.05709 1.51228,-4.56684 0,-1.64323 -0.13056,-2.98774 -0.29034,-2.9878 -1.07574,-4.6e-4 -6.03412,4.29963 -6.03412,5.233 0,0.34554 1.52359,3.17193 3.38576,6.28132 2.70312,4.51359 3.39609,6.14018 3.43707,8.0679 0.026,1.32801 0.215,2.41459 0.41505,2.41466 0.20005,6e-5 1.03436,-0.7971 1.85425,-1.77144 z m -217.97756,-7.20598 c 0.84607,-0.64368 0.83613,-0.90882 -0.13769,-3.67337 -0.57678,-1.63894 -1.04937,-3.42233 -1.04937,-3.96312 0,-0.8738 -0.30527,-0.81489 -2.74169,0.52871 -1.50793,0.83171 -2.74527,1.66544 -2.74962,1.85276 -0.0195,0.70954 4.51398,5.9828 5.12569,5.96611 0.35205,-0.006 1.05093,-0.32996 1.55249,-0.71116 z m 199.49011,-3.74261 c 1.23558,-1.55184 2.24293,-2.97481 2.23858,-3.16213 -0.004,-0.18706 -1.24169,-1.02105 -2.74969,-1.85276 -2.43622,-1.34366 -2.74169,-1.40258 -2.74169,-0.52871 0,0.54105 -0.4722,2.32418 -1.04937,3.96312 -0.97357,2.76456 -0.9835,3.02982 -0.1377,3.67337 1.49825,1.13965 2.08685,0.86217 4.43968,-2.09283 z"
       id="path1" /></g></svg>
