<?xml version="1.0" encoding="UTF-8" standalone="no"?>
<!-- Created with Inkscape (http://www.inkscape.org/) -->

<svg
   width="80.319931mm"
   height="211.66664mm"
   viewBox="0 0 80.319931 211.66664"
   version="1.1"
   id="svg1"
   xml:space="preserve"
   sodipodi:docname="yoga1"
   xmlns:inkscape="http://www.inkscape.org/namespaces/inkscape"
   xmlns:sodipodi="http://sodipodi.sourceforge.net/DTD/sodipodi-0.dtd"
   xmlns="http://www.w3.org/2000/svg"
   xmlns:svg="http://www.w3.org/2000/svg"><sodipodi:namedview
     id="namedview1"
     pagecolor="#ffffff"
     bordercolor="#000000"
     borderopacity="0.25"
     inkscape:showpageshadow="2"
     inkscape:pageopacity="0.0"
     inkscape:pagecheckerboard="0"
     inkscape:deskcolor="#d1d1d1"
     inkscape:document-units="mm" /><defs
     id="defs1" /><g
     id="layer1"
     transform="translate(304.21244,-39.782439)"><path
       d="m -261.53218,251.06127 c -0.7777,-0.58351 -3.36493,-5.24709 -4.31312,-7.77447 -2.79438,-7.44864 -3.59438,-12.7946 -3.36141,-22.46193 0.20944,-8.69525 0.70314,-12.51734 3.02697,-23.4403 2.20906,-10.38343 3.2265,-18.4457 2.93623,-23.26633 -0.30389,-5.04614 -1.41436,-10.46515 -2.31578,-11.30057 -0.39711,-0.36815 -0.8773,-1.18398 -1.06711,-1.81321 -0.18969,-0.6292 -0.56876,-1.73401 -0.84219,-2.45507 -0.70418,-1.85716 -0.65618,-7.26084 0.11227,-12.619 1.20512,-8.40449 1.68898,-16.12275 1.33705,-21.32695 -0.39715,-5.87304 -0.72489,-7.62454 -1.94658,-10.40271 -0.94606,-2.15129 -1.36303,-2.72726 -3.09329,-4.27266 -0.4726,-0.42212 -1.00637,-1.31379 -1.18619,-1.9815 -0.28376,-1.05441 -0.81226,-1.54749 -4.01967,-3.75143 -18.0936,-12.432827 -24.41861,-17.781887 -26.8362,-22.695147 -1.05113,-2.13624 -1.11125,-2.4464 -1.11125,-5.73085 0,-3.41885 0.0194,-3.5149 1.37236,-6.23329 2.842,-5.71745 7.27985,-9.24873 16.63445,-13.23627 4.9372,-2.10457 9.27134,-4.31137 10.71849,-5.45753 1.66247,-1.316732 2.46703,-3.159292 3.0356,-6.95215 0.51832,-3.457607 0.89666,-4.242929 1.97004,-4.089511 0.93487,0.133558 1.54664,2.040652 1.75279,5.46396 0.29925,4.97204 -0.96774,8.364691 -4.22307,11.306601 -1.02371,0.92516 -2.6501,2.0784 -3.61424,2.56281 -2.83116,1.42249 -10.78786,5.18295 -10.96648,5.18295 -0.0902,0 -1.33372,0.75032 -2.7633,1.66734 -4.32228,2.77263 -6.75869,5.97567 -7.10614,9.34214 -0.15059,1.45966 -0.0348,2.04476 0.69733,3.54255 1.05395,2.15419 4.75455,5.76079 9.53597,9.29373 l 3.27767,2.42182 0.23886,-1.39365 c 0.37745,-2.20155 1.54424,-5.50531 2.79926,-7.92548 2.73732,-5.27869 9.58108,-9.42344 15.52793,-9.40416 9.32163,0.031 21.43326,8.32164 22.37637,15.31848 0.11537,0.85566 0.29693,2.13407 0.40308,2.84092 l 0.19356,1.28514 0.63984,-0.79349 c 3.19312,-3.96002 4.97328,-7.90459 6.02897,-13.35936 1.28332,-6.63091 0.38596,-8.02379 -7.08369,-10.99424 -6.18847,-2.46095 -10.07973,-5.02039 -14.76584,-9.71207 -3.96385,-3.96854 -5.5451,-6.816732 -5.5451,-9.98806 0,-1.120611 0.16995,-2.538882 0.37783,-3.151662 0.41008,-1.208953 1.49729,-2.916871 1.85685,-2.916871 0.1231,0 0.22337,1.511839 0.22337,3.359625 0,3.221152 0.0457,3.438677 1.10954,5.279573 1.466,2.536905 4.35763,5.587105 7.66186,8.082005 3.22827,2.43754 5.23858,3.48146 10.40898,5.40528 6.8782,2.55924 8.8645,3.93009 10.31367,7.11799 1.7891,3.93582 1.95548,11.04479 0.36544,15.61715 -2.64162,7.59651 -9.08923,15.007787 -20.50802,23.573157 -4.01503,3.01176 -6.19656,4.11251 -8.20907,4.14224 l -1.56557,0.0232 0.46165,0.89325 c 2.26894,4.39023 2.80646,17.40069 1.23988,30.01221 -0.2977,2.39604 -0.47248,4.42504 -0.38863,4.50893 0.084,0.084 1.60026,-0.52402 3.36969,-1.35091 6.34045,-2.9629 12.12828,-4.40069 17.71499,-4.40069 5.46416,0 10.01152,1.25607 12.2239,3.37639 3.02043,2.89477 3.32765,6.5056 0.96232,11.31028 -1.7812,3.61819 -5.88864,7.20963 -16.27923,14.2344 -8.69459,5.8781 -12.804,10.05302 -12.8942,13.09973 -0.0271,0.943 0.45448,4.51144 0.78195,5.78434 0.15098,0.58696 -2.52254,1.40612 -3.81926,1.1702 l -0.9833,-0.17885 -1.38854,8.62418 c -2.09469,13.00969 -2.18508,13.92346 -2.19852,22.22647 -0.0155,8.72 0.37164,11.65351 2.34826,17.86327 1.52291,4.78393 1.87539,9.52416 0.78896,10.61055 -0.7893,0.78935 -1.62809,0.88869 -2.42917,0.28764 z m 6.72351,-80.45987 c 1.49093,-1.2585 5.80823,-4.35214 9.59392,-6.87472 10.34003,-6.89005 13.32318,-9.43578 13.78955,-11.76752 0.3488,-1.74399 -1.44312,-2.58893 -6.25095,-2.94757 -3.27534,-0.24427 -7.94264,0.4805 -11.88079,1.84504 -2.53764,0.87928 -9.98043,3.89216 -11.1943,4.53153 -0.2524,0.13317 -0.63759,0.94424 -0.85554,1.80261 -0.35732,1.40658 -0.32209,1.74493 0.35538,3.42625 1.23752,3.07126 3.01369,10.52856 3.09859,13.00957 0.008,0.1804 0.15136,0.0883 0.32208,-0.2044 0.17111,-0.29267 1.53093,-1.56205 3.0219,-2.82059 z m -2.90348,-69.55367 c 3.64273,-0.53895 7.37214,-3.271047 8.76583,-6.421667 0.97087,-2.19484 1.16958,-5.37356 0.45313,-7.24953 -1.19819,-3.13738 -6.34185,-7.0824 -11.46305,-8.79175 -2.37125,-0.79148 -6.47637,-0.70917 -8.8458,0.1773 -2.46243,0.92132 -4.99577,3.01617 -6.33194,5.23593 -2.04363,3.39513 -2.90289,7.85105 -2.00863,10.41634 0.41275,1.18394 3.58191,3.59372 6.31695,4.80329 2.2701,1.003927 8.61539,2.483637 9.87815,2.303507 0.54081,-0.077 1.99671,-0.29035 3.23536,-0.47346 z"
       style="fill:#000000;stroke-width:3.87125"
       id="path1-6" /></g></svg>
