<?xml version="1.0" encoding="UTF-8" standalone="no"?>
<svg
   width="303.571"
   height="800"
   viewBox="0 0 80.32 211.667"
   version="1.1"
   id="svg1"
   sodipodi:docname="yoga1.svg"
   inkscape:version="1.3.2 (1:1.3.2+202311252150+091e20ef0f)"
   xmlns:inkscape="http://www.inkscape.org/namespaces/inkscape"
   xmlns:sodipodi="http://sodipodi.sourceforge.net/DTD/sodipodi-0.dtd"
   xmlns:xlink="http://www.w3.org/1999/xlink"
   xmlns="http://www.w3.org/2000/svg"
   xmlns:svg="http://www.w3.org/2000/svg">
  <defs
     id="defs1">
    <linearGradient
       id="linearGradient1"
       inkscape:collect="always">
      <stop
         style="stop-color:#784421;stop-opacity:1"
         offset="0"
         id="stop1" />
      <stop
         style="stop-color:#c87137;stop-opacity:1"
         offset="0.22187473"
         id="stop4" />
      <stop
         style="stop-color:#deaa87;stop-opacity:1"
         offset="0.50746179"
         id="stop3" />
      <stop
         style="stop-color:#a05a2c;stop-opacity:1"
         offset="0.78184128"
         id="stop5" />
      <stop
         style="stop-color:#784421;stop-opacity:1"
         offset="1"
         id="stop2" />
    </linearGradient>
    <linearGradient
       inkscape:collect="always"
       xlink:href="#linearGradient1"
       id="linearGradient2"
       x1="37.705627"
       y1="4.2222762"
       x2="37.705627"
       y2="208.99913"
       gradientUnits="userSpaceOnUse" />
  </defs>
  <sodipodi:namedview
     id="namedview1"
     pagecolor="#ffffff"
     bordercolor="#000000"
     borderopacity="0.25"
     inkscape:showpageshadow="2"
     inkscape:pageopacity="0.0"
     inkscape:pagecheckerboard="0"
     inkscape:deskcolor="#d1d1d1"
     inkscape:zoom="1.02"
     inkscape:cx="212.7451"
     inkscape:cy="410.78431"
     inkscape:window-width="1850"
     inkscape:window-height="1016"
     inkscape:window-x="0"
     inkscape:window-y="0"
     inkscape:window-maximized="1"
     inkscape:current-layer="svg1" />
  <path
     d="M42.68 211.279c-.777-.584-3.365-5.247-4.313-7.775-2.794-7.448-3.594-12.794-3.361-22.462.21-8.695.703-12.517 3.027-23.44 2.209-10.383 3.226-18.446 2.936-23.266-.304-5.046-1.414-10.465-2.316-11.3-.397-.369-.877-1.185-1.067-1.814-.19-.63-.569-1.734-.842-2.455-.704-1.857-.656-7.26.112-12.619 1.205-8.405 1.69-16.123 1.337-21.327-.397-5.873-.725-7.625-1.946-10.403-.946-2.151-1.363-2.727-3.094-4.272-.472-.422-1.006-1.314-1.186-1.982-.284-1.054-.812-1.547-4.02-3.751C9.854 51.98 3.53 46.63 1.111 41.718.061 39.58 0 39.27 0 35.987c0-3.42.02-3.515 1.372-6.234 2.842-5.717 7.28-9.248 16.635-13.236 4.937-2.104 9.271-4.311 10.718-5.457 1.663-1.317 2.467-3.16 3.036-6.953.518-3.457.897-4.242 1.97-4.089.935.134 1.547 2.04 1.753 5.464.299 4.972-.968 8.365-4.223 11.307-1.024.925-2.65 2.078-3.615 2.562-2.83 1.423-10.787 5.183-10.966 5.183-.09 0-1.334.75-2.763 1.668-4.323 2.772-6.76 5.975-7.107 9.342-.15 1.46-.034 2.045.698 3.542 1.054 2.154 4.754 5.761 9.536 9.294l3.277 2.422.24-1.394c.377-2.201 1.544-5.505 2.799-7.925 2.737-5.279 9.58-9.424 15.528-9.404 9.321.03 21.433 8.321 22.376 15.318.115.856.297 2.134.403 2.841l.194 1.285.64-.793c3.192-3.96 4.973-7.905 6.028-13.36 1.284-6.63.386-8.024-7.083-10.994-6.189-2.46-10.08-5.02-14.766-9.712-3.964-3.969-5.545-6.817-5.545-9.988 0-1.12.17-2.539.378-3.152.41-1.209 1.497-2.917 1.856-2.917.123 0 .224 1.512.224 3.36 0 3.221.045 3.439 1.11 5.28 1.465 2.536 4.357 5.587 7.661 8.082 3.228 2.437 5.239 3.481 10.41 5.405 6.877 2.56 8.864 3.93 10.313 7.118 1.789 3.936 1.955 11.045.365 15.617-2.641 7.596-9.089 15.008-20.508 23.573-4.015 3.012-6.196 4.113-8.209 4.142l-1.565.024.461.893c2.27 4.39 2.807 17.4 1.24 30.012-.298 2.396-.472 4.425-.389 4.509.084.084 1.6-.524 3.37-1.35 6.34-2.964 12.128-4.402 17.715-4.402 5.464 0 10.012 1.256 12.224 3.377 3.02 2.895 3.328 6.505.962 11.31-1.78 3.618-5.888 7.21-16.279 14.234-8.694 5.879-12.804 10.053-12.894 13.1-.027.943.454 4.512.782 5.785.15.586-2.523 1.406-3.82 1.17l-.983-.18-1.388 8.625c-2.095 13.01-2.185 13.923-2.199 22.227-.015 8.72.372 11.653 2.349 17.863 1.522 4.784 1.875 9.524.789 10.61-.79.79-1.629.889-2.43.288zm6.724-80.46c1.49-1.259 5.808-4.352 9.594-6.875 10.34-6.89 13.323-9.436 13.79-11.767.348-1.744-1.444-2.59-6.252-2.948-3.275-.244-7.942.48-11.88 1.845-2.538.88-9.98 3.892-11.195 4.532-.252.133-.637.944-.855 1.802-.358 1.407-.322 1.745.355 3.427 1.238 3.07 3.014 10.528 3.099 13.01.008.18.151.087.322-.205.17-.293 1.53-1.562 3.022-2.82zM46.5 61.265c3.643-.539 7.372-3.27 8.766-6.421.971-2.195 1.17-5.374.453-7.25-1.198-3.137-6.342-7.082-11.463-8.792-2.371-.791-6.476-.709-8.846.178-2.462.921-4.995 3.016-6.332 5.236-2.043 3.395-2.902 7.85-2.008 10.416.413 1.184 3.582 3.594 6.317 4.803 2.27 1.004 8.615 2.484 9.878 2.304.54-.077 1.997-.29 3.235-.474z"
     id="path1"
     style="fill-opacity:1;fill:url(#linearGradient2)" />
</svg>
